<svg width="144" height="301" viewBox="0 0 144 301" fill="none" xmlns="http://www.w3.org/2000/svg">
<path fill-rule="evenodd" clip-rule="evenodd" d="M123.365 88.2142C147.463 25.2331 35.2176 1.33832 21.2559 53.3028C7.00747 106.099 99.555 150.363 123.365 88.2142Z" fill="#6CC1FF" fill-opacity="0.59"/>
<path fill-rule="evenodd" clip-rule="evenodd" d="M29.7488 205.401C14.211 208.948 11.2183 221.922 4.5983 232.19C6.79157 247.766 20.9723 245.675 28.3074 253.791C53.0108 246.115 54.2965 210.939 29.7488 205.401Z" fill="#86CBFD" fill-opacity="0.61"/>
<path fill-rule="evenodd" clip-rule="evenodd" d="M48.6208 263.134C36.8427 265.465 34.7369 274.704 29.8347 281.96C31.7103 293.128 42.4749 291.82 48.1648 297.722C66.8638 292.56 67.3764 267.42 48.6208 263.134Z" fill="#6CC1FF" fill-opacity="0.61"/>
<path fill-rule="evenodd" clip-rule="evenodd" d="M61.5349 179.877C59.3882 164.565 45.4553 151.883 29.3218 156.95C29.6284 156.846 18.9227 162.206 17.4607 163.674C14.6916 166.465 15.6947 173.126 11.1657 175.376C12.4861 185.794 14.1532 189.89 18.4781 197.766C23.3288 197.09 27.0079 198.1 28.6406 201.977C32.5773 198.383 36.4018 202.058 40.3305 201.181C52.2585 198.543 56.3289 188.988 61.5349 179.877Z" fill="#86CBFD" fill-opacity="0.61"/>
</svg>
