<svg width="320" height="276" viewBox="0 0 320 276" fill="none" xmlns="http://www.w3.org/2000/svg">
<path d="M20.3984 247.336L23.3672 241.625H25.0703L21.1484 248.758V253H19.6484V248.758L15.7266 241.625H17.4453L20.3984 247.336ZM25.4141 248.695C25.4141 247.867 25.5755 247.122 25.8984 246.461C26.2266 245.799 26.6797 245.289 27.2578 244.93C27.8411 244.57 28.5052 244.391 29.25 244.391C30.401 244.391 31.3307 244.789 32.0391 245.586C32.7526 246.383 33.1094 247.443 33.1094 248.766V248.867C33.1094 249.69 32.9505 250.43 32.6328 251.086C32.3203 251.737 31.8698 252.245 31.2812 252.609C30.6979 252.974 30.026 253.156 29.2656 253.156C28.1198 253.156 27.1901 252.758 26.4766 251.961C25.7682 251.164 25.4141 250.109 25.4141 248.797V248.695ZM26.8672 248.867C26.8672 249.805 27.0833 250.557 27.5156 251.125C27.9531 251.693 28.5365 251.977 29.2656 251.977C30 251.977 30.5833 251.69 31.0156 251.117C31.4479 250.539 31.6641 249.732 31.6641 248.695C31.6641 247.768 31.4427 247.018 31 246.445C30.5625 245.867 29.9792 245.578 29.25 245.578C28.5365 245.578 27.9609 245.862 27.5234 246.43C27.0859 246.997 26.8672 247.81 26.8672 248.867ZM40.1406 252.164C39.5781 252.826 38.7526 253.156 37.6641 253.156C36.763 253.156 36.0755 252.896 35.6016 252.375C35.1328 251.849 34.8958 251.073 34.8906 250.047V244.547H36.3359V250.008C36.3359 251.289 36.8568 251.93 37.8984 251.93C39.0026 251.93 39.737 251.518 40.1016 250.695V244.547H41.5469V253H40.1719L40.1406 252.164ZM51.1094 251.977C51.625 251.977 52.0755 251.82 52.4609 251.508C52.8464 251.195 53.0599 250.805 53.1016 250.336H54.4688C54.4427 250.82 54.276 251.281 53.9688 251.719C53.6615 252.156 53.25 252.505 52.7344 252.766C52.224 253.026 51.6823 253.156 51.1094 253.156C49.9583 253.156 49.0417 252.773 48.3594 252.008C47.6823 251.237 47.3438 250.185 47.3438 248.852V248.609C47.3438 247.786 47.4948 247.055 47.7969 246.414C48.099 245.773 48.5312 245.276 49.0938 244.922C49.6615 244.568 50.3307 244.391 51.1016 244.391C52.0495 244.391 52.8359 244.674 53.4609 245.242C54.0911 245.81 54.4271 246.547 54.4688 247.453H53.1016C53.0599 246.906 52.8516 246.458 52.4766 246.109C52.1068 245.755 51.6484 245.578 51.1016 245.578C50.3672 245.578 49.7969 245.844 49.3906 246.375C48.9896 246.901 48.7891 247.664 48.7891 248.664V248.938C48.7891 249.911 48.9896 250.661 49.3906 251.188C49.7917 251.714 50.3646 251.977 51.1094 251.977ZM61.3125 253C61.2292 252.833 61.1615 252.536 61.1094 252.109C60.4375 252.807 59.6354 253.156 58.7031 253.156C57.8698 253.156 57.1849 252.922 56.6484 252.453C56.1172 251.979 55.8516 251.38 55.8516 250.656C55.8516 249.776 56.1849 249.094 56.8516 248.609C57.5234 248.12 58.4661 247.875 59.6797 247.875H61.0859V247.211C61.0859 246.706 60.9349 246.305 60.6328 246.008C60.3307 245.706 59.8854 245.555 59.2969 245.555C58.7812 245.555 58.349 245.685 58 245.945C57.651 246.206 57.4766 246.521 57.4766 246.891H56.0234C56.0234 246.469 56.1719 246.062 56.4688 245.672C56.7708 245.276 57.1771 244.964 57.6875 244.734C58.2031 244.505 58.7682 244.391 59.3828 244.391C60.3568 244.391 61.1198 244.635 61.6719 245.125C62.224 245.609 62.5104 246.279 62.5312 247.133V251.023C62.5312 251.799 62.6302 252.417 62.8281 252.875V253H61.3125ZM58.9141 251.898C59.3672 251.898 59.7969 251.781 60.2031 251.547C60.6094 251.312 60.9036 251.008 61.0859 250.633V248.898H59.9531C58.1823 248.898 57.2969 249.417 57.2969 250.453C57.2969 250.906 57.4479 251.26 57.75 251.516C58.0521 251.771 58.4401 251.898 58.9141 251.898ZM66.1641 244.547L66.2109 245.609C66.8568 244.797 67.7005 244.391 68.7422 244.391C70.5286 244.391 71.4297 245.398 71.4453 247.414V253H70V247.406C69.9948 246.797 69.8542 246.346 69.5781 246.055C69.3073 245.763 68.8828 245.617 68.3047 245.617C67.8359 245.617 67.4245 245.742 67.0703 245.992C66.7161 246.242 66.4401 246.57 66.2422 246.977V253H64.7969V244.547H66.1641ZM84.7344 248.867C84.7344 250.154 84.4401 251.19 83.8516 251.977C83.263 252.763 82.4661 253.156 81.4609 253.156C80.4349 253.156 79.6276 252.831 79.0391 252.18V256.25H77.5938V244.547H78.9141L78.9844 245.484C79.5729 244.755 80.3906 244.391 81.4375 244.391C82.4531 244.391 83.2552 244.773 83.8438 245.539C84.4375 246.305 84.7344 247.37 84.7344 248.734V248.867ZM83.2891 248.703C83.2891 247.75 83.0859 246.997 82.6797 246.445C82.2734 245.893 81.7161 245.617 81.0078 245.617C80.1328 245.617 79.4766 246.005 79.0391 246.781V250.82C79.4714 251.591 80.1328 251.977 81.0234 251.977C81.7161 251.977 82.2656 251.703 82.6719 251.156C83.0833 250.604 83.2891 249.786 83.2891 248.703ZM91.7969 253C91.7135 252.833 91.6458 252.536 91.5938 252.109C90.9219 252.807 90.1198 253.156 89.1875 253.156C88.3542 253.156 87.6693 252.922 87.1328 252.453C86.6016 251.979 86.3359 251.38 86.3359 250.656C86.3359 249.776 86.6693 249.094 87.3359 248.609C88.0078 248.12 88.9505 247.875 90.1641 247.875H91.5703V247.211C91.5703 246.706 91.4193 246.305 91.1172 246.008C90.8151 245.706 90.3698 245.555 89.7812 245.555C89.2656 245.555 88.8333 245.685 88.4844 245.945C88.1354 246.206 87.9609 246.521 87.9609 246.891H86.5078C86.5078 246.469 86.6562 246.062 86.9531 245.672C87.2552 245.276 87.6615 244.964 88.1719 244.734C88.6875 244.505 89.2526 244.391 89.8672 244.391C90.8411 244.391 91.6042 244.635 92.1562 245.125C92.7083 245.609 92.9948 246.279 93.0156 247.133V251.023C93.0156 251.799 93.1146 252.417 93.3125 252.875V253H91.7969ZM89.3984 251.898C89.8516 251.898 90.2812 251.781 90.6875 251.547C91.0938 251.312 91.388 251.008 91.5703 250.633V248.898H90.4375C88.6667 248.898 87.7812 249.417 87.7812 250.453C87.7812 250.906 87.9323 251.26 88.2344 251.516C88.5365 251.771 88.9245 251.898 89.3984 251.898ZM97.9219 250.883L99.8906 244.547H101.438L98.0391 254.305C97.513 255.711 96.6771 256.414 95.5312 256.414L95.2578 256.391L94.7188 256.289V255.117L95.1094 255.148C95.599 255.148 95.9792 255.049 96.25 254.852C96.526 254.654 96.7526 254.292 96.9297 253.766L97.25 252.906L94.2344 244.547H95.8125L97.9219 250.883ZM107.414 253V245.664H106.078V244.547H107.414V243.68C107.414 242.773 107.656 242.073 108.141 241.578C108.625 241.083 109.31 240.836 110.195 240.836C110.529 240.836 110.859 240.88 111.188 240.969L111.109 242.141C110.865 242.094 110.604 242.07 110.328 242.07C109.859 242.07 109.497 242.208 109.242 242.484C108.987 242.755 108.859 243.146 108.859 243.656V244.547H110.664V245.664H108.859V253H107.414ZM111.883 248.695C111.883 247.867 112.044 247.122 112.367 246.461C112.695 245.799 113.148 245.289 113.727 244.93C114.31 244.57 114.974 244.391 115.719 244.391C116.87 244.391 117.799 244.789 118.508 245.586C119.221 246.383 119.578 247.443 119.578 248.766V248.867C119.578 249.69 119.419 250.43 119.102 251.086C118.789 251.737 118.339 252.245 117.75 252.609C117.167 252.974 116.495 253.156 115.734 253.156C114.589 253.156 113.659 252.758 112.945 251.961C112.237 251.164 111.883 250.109 111.883 248.797V248.695ZM113.336 248.867C113.336 249.805 113.552 250.557 113.984 251.125C114.422 251.693 115.005 251.977 115.734 251.977C116.469 251.977 117.052 251.69 117.484 251.117C117.917 250.539 118.133 249.732 118.133 248.695C118.133 247.768 117.911 247.018 117.469 246.445C117.031 245.867 116.448 245.578 115.719 245.578C115.005 245.578 114.43 245.862 113.992 246.43C113.555 246.997 113.336 247.81 113.336 248.867ZM125.477 245.844C125.258 245.807 125.021 245.789 124.766 245.789C123.818 245.789 123.174 246.193 122.836 247V253H121.391V244.547H122.797L122.82 245.523C123.294 244.768 123.966 244.391 124.836 244.391C125.117 244.391 125.331 244.427 125.477 244.5V245.844ZM136 253C135.917 252.833 135.849 252.536 135.797 252.109C135.125 252.807 134.323 253.156 133.391 253.156C132.557 253.156 131.872 252.922 131.336 252.453C130.805 251.979 130.539 251.38 130.539 250.656C130.539 249.776 130.872 249.094 131.539 248.609C132.211 248.12 133.154 247.875 134.367 247.875H135.773V247.211C135.773 246.706 135.622 246.305 135.32 246.008C135.018 245.706 134.573 245.555 133.984 245.555C133.469 245.555 133.036 245.685 132.688 245.945C132.339 246.206 132.164 246.521 132.164 246.891H130.711C130.711 246.469 130.859 246.062 131.156 245.672C131.458 245.276 131.865 244.964 132.375 244.734C132.891 244.505 133.456 244.391 134.07 244.391C135.044 244.391 135.807 244.635 136.359 245.125C136.911 245.609 137.198 246.279 137.219 247.133V251.023C137.219 251.799 137.318 252.417 137.516 252.875V253H136ZM133.602 251.898C134.055 251.898 134.484 251.781 134.891 251.547C135.297 251.312 135.591 251.008 135.773 250.633V248.898H134.641C132.87 248.898 131.984 249.417 131.984 250.453C131.984 250.906 132.135 251.26 132.438 251.516C132.74 251.771 133.128 251.898 133.602 251.898ZM143.102 248.703C143.102 247.406 143.409 246.365 144.023 245.578C144.638 244.786 145.443 244.391 146.438 244.391C147.427 244.391 148.211 244.729 148.789 245.406V241H150.234V253H148.906L148.836 252.094C148.258 252.802 147.453 253.156 146.422 253.156C145.443 253.156 144.643 252.755 144.023 251.953C143.409 251.151 143.102 250.104 143.102 248.812V248.703ZM144.547 248.867C144.547 249.826 144.745 250.576 145.141 251.117C145.536 251.659 146.083 251.93 146.781 251.93C147.698 251.93 148.367 251.518 148.789 250.695V246.812C148.357 246.016 147.693 245.617 146.797 245.617C146.089 245.617 145.536 245.891 145.141 246.438C144.745 246.984 144.547 247.794 144.547 248.867ZM152.102 248.695C152.102 247.867 152.263 247.122 152.586 246.461C152.914 245.799 153.367 245.289 153.945 244.93C154.529 244.57 155.193 244.391 155.938 244.391C157.089 244.391 158.018 244.789 158.727 245.586C159.44 246.383 159.797 247.443 159.797 248.766V248.867C159.797 249.69 159.638 250.43 159.32 251.086C159.008 251.737 158.557 252.245 157.969 252.609C157.385 252.974 156.714 253.156 155.953 253.156C154.807 253.156 153.878 252.758 153.164 251.961C152.456 251.164 152.102 250.109 152.102 248.797V248.695ZM153.555 248.867C153.555 249.805 153.771 250.557 154.203 251.125C154.641 251.693 155.224 251.977 155.953 251.977C156.688 251.977 157.271 251.69 157.703 251.117C158.135 250.539 158.352 249.732 158.352 248.695C158.352 247.768 158.13 247.018 157.688 246.445C157.25 245.867 156.667 245.578 155.938 245.578C155.224 245.578 154.648 245.862 154.211 246.43C153.773 246.997 153.555 247.81 153.555 248.867ZM162.977 244.547L163.023 245.609C163.669 244.797 164.513 244.391 165.555 244.391C167.341 244.391 168.242 245.398 168.258 247.414V253H166.812V247.406C166.807 246.797 166.667 246.346 166.391 246.055C166.12 245.763 165.695 245.617 165.117 245.617C164.648 245.617 164.237 245.742 163.883 245.992C163.529 246.242 163.253 246.57 163.055 246.977V253H161.609V244.547H162.977ZM175.656 253C175.573 252.833 175.505 252.536 175.453 252.109C174.781 252.807 173.979 253.156 173.047 253.156C172.214 253.156 171.529 252.922 170.992 252.453C170.461 251.979 170.195 251.38 170.195 250.656C170.195 249.776 170.529 249.094 171.195 248.609C171.867 248.12 172.81 247.875 174.023 247.875H175.43V247.211C175.43 246.706 175.279 246.305 174.977 246.008C174.674 245.706 174.229 245.555 173.641 245.555C173.125 245.555 172.693 245.685 172.344 245.945C171.995 246.206 171.82 246.521 171.82 246.891H170.367C170.367 246.469 170.516 246.062 170.812 245.672C171.115 245.276 171.521 244.964 172.031 244.734C172.547 244.505 173.112 244.391 173.727 244.391C174.701 244.391 175.464 244.635 176.016 245.125C176.568 245.609 176.854 246.279 176.875 247.133V251.023C176.875 251.799 176.974 252.417 177.172 252.875V253H175.656ZM173.258 251.898C173.711 251.898 174.141 251.781 174.547 251.547C174.953 251.312 175.247 251.008 175.43 250.633V248.898H174.297C172.526 248.898 171.641 249.417 171.641 250.453C171.641 250.906 171.792 251.26 172.094 251.516C172.396 251.771 172.784 251.898 173.258 251.898ZM181.102 242.5V244.547H182.68V245.664H181.102V250.906C181.102 251.245 181.172 251.5 181.312 251.672C181.453 251.839 181.693 251.922 182.031 251.922C182.198 251.922 182.427 251.891 182.719 251.828V253C182.339 253.104 181.969 253.156 181.609 253.156C180.964 253.156 180.477 252.961 180.148 252.57C179.82 252.18 179.656 251.625 179.656 250.906V245.664H178.117V244.547H179.656V242.5H181.102ZM185.945 253H184.5V244.547H185.945V253ZM184.383 242.305C184.383 242.07 184.453 241.872 184.594 241.711C184.74 241.549 184.953 241.469 185.234 241.469C185.516 241.469 185.729 241.549 185.875 241.711C186.021 241.872 186.094 242.07 186.094 242.305C186.094 242.539 186.021 242.734 185.875 242.891C185.729 243.047 185.516 243.125 185.234 243.125C184.953 243.125 184.74 243.047 184.594 242.891C184.453 242.734 184.383 242.539 184.383 242.305ZM187.883 248.695C187.883 247.867 188.044 247.122 188.367 246.461C188.695 245.799 189.148 245.289 189.727 244.93C190.31 244.57 190.974 244.391 191.719 244.391C192.87 244.391 193.799 244.789 194.508 245.586C195.221 246.383 195.578 247.443 195.578 248.766V248.867C195.578 249.69 195.419 250.43 195.102 251.086C194.789 251.737 194.339 252.245 193.75 252.609C193.167 252.974 192.495 253.156 191.734 253.156C190.589 253.156 189.659 252.758 188.945 251.961C188.237 251.164 187.883 250.109 187.883 248.797V248.695ZM189.336 248.867C189.336 249.805 189.552 250.557 189.984 251.125C190.422 251.693 191.005 251.977 191.734 251.977C192.469 251.977 193.052 251.69 193.484 251.117C193.917 250.539 194.133 249.732 194.133 248.695C194.133 247.768 193.911 247.018 193.469 246.445C193.031 245.867 192.448 245.578 191.719 245.578C191.005 245.578 190.43 245.862 189.992 246.43C189.555 246.997 189.336 247.81 189.336 248.867ZM198.758 244.547L198.805 245.609C199.451 244.797 200.294 244.391 201.336 244.391C203.122 244.391 204.023 245.398 204.039 247.414V253H202.594V247.406C202.589 246.797 202.448 246.346 202.172 246.055C201.901 245.763 201.477 245.617 200.898 245.617C200.43 245.617 200.018 245.742 199.664 245.992C199.31 246.242 199.034 246.57 198.836 246.977V253H197.391V244.547H198.758ZM212.148 242.5V244.547H213.727V245.664H212.148V250.906C212.148 251.245 212.219 251.5 212.359 251.672C212.5 251.839 212.74 251.922 213.078 251.922C213.245 251.922 213.474 251.891 213.766 251.828V253C213.385 253.104 213.016 253.156 212.656 253.156C212.01 253.156 211.523 252.961 211.195 252.57C210.867 252.18 210.703 251.625 210.703 250.906V245.664H209.164V244.547H210.703V242.5H212.148ZM214.883 248.695C214.883 247.867 215.044 247.122 215.367 246.461C215.695 245.799 216.148 245.289 216.727 244.93C217.31 244.57 217.974 244.391 218.719 244.391C219.87 244.391 220.799 244.789 221.508 245.586C222.221 246.383 222.578 247.443 222.578 248.766V248.867C222.578 249.69 222.419 250.43 222.102 251.086C221.789 251.737 221.339 252.245 220.75 252.609C220.167 252.974 219.495 253.156 218.734 253.156C217.589 253.156 216.659 252.758 215.945 251.961C215.237 251.164 214.883 250.109 214.883 248.797V248.695ZM216.336 248.867C216.336 249.805 216.552 250.557 216.984 251.125C217.422 251.693 218.005 251.977 218.734 251.977C219.469 251.977 220.052 251.69 220.484 251.117C220.917 250.539 221.133 249.732 221.133 248.695C221.133 247.768 220.911 247.018 220.469 246.445C220.031 245.867 219.448 245.578 218.719 245.578C218.005 245.578 217.43 245.862 216.992 246.43C216.555 246.997 216.336 247.81 216.336 248.867ZM233.578 253C233.495 252.833 233.427 252.536 233.375 252.109C232.703 252.807 231.901 253.156 230.969 253.156C230.135 253.156 229.451 252.922 228.914 252.453C228.383 251.979 228.117 251.38 228.117 250.656C228.117 249.776 228.451 249.094 229.117 248.609C229.789 248.12 230.732 247.875 231.945 247.875H233.352V247.211C233.352 246.706 233.201 246.305 232.898 246.008C232.596 245.706 232.151 245.555 231.562 245.555C231.047 245.555 230.615 245.685 230.266 245.945C229.917 246.206 229.742 246.521 229.742 246.891H228.289C228.289 246.469 228.438 246.062 228.734 245.672C229.036 245.276 229.443 244.964 229.953 244.734C230.469 244.505 231.034 244.391 231.648 244.391C232.622 244.391 233.385 244.635 233.938 245.125C234.49 245.609 234.776 246.279 234.797 247.133V251.023C234.797 251.799 234.896 252.417 235.094 252.875V253H233.578ZM231.18 251.898C231.633 251.898 232.062 251.781 232.469 251.547C232.875 251.312 233.169 251.008 233.352 250.633V248.898H232.219C230.448 248.898 229.562 249.417 229.562 250.453C229.562 250.906 229.714 251.26 230.016 251.516C230.318 251.771 230.706 251.898 231.18 251.898ZM238.43 244.547L238.477 245.609C239.122 244.797 239.966 244.391 241.008 244.391C242.794 244.391 243.695 245.398 243.711 247.414V253H242.266V247.406C242.26 246.797 242.12 246.346 241.844 246.055C241.573 245.763 241.148 245.617 240.57 245.617C240.102 245.617 239.69 245.742 239.336 245.992C238.982 246.242 238.706 246.57 238.508 246.977V253H237.062V244.547H238.43ZM248.656 250.883L250.625 244.547H252.172L248.773 254.305C248.247 255.711 247.411 256.414 246.266 256.414L245.992 256.391L245.453 256.289V255.117L245.844 255.148C246.333 255.148 246.714 255.049 246.984 254.852C247.26 254.654 247.487 254.292 247.664 253.766L247.984 252.906L244.969 244.547H246.547L248.656 250.883ZM262.656 253C262.573 252.833 262.505 252.536 262.453 252.109C261.781 252.807 260.979 253.156 260.047 253.156C259.214 253.156 258.529 252.922 257.992 252.453C257.461 251.979 257.195 251.38 257.195 250.656C257.195 249.776 257.529 249.094 258.195 248.609C258.867 248.12 259.81 247.875 261.023 247.875H262.43V247.211C262.43 246.706 262.279 246.305 261.977 246.008C261.674 245.706 261.229 245.555 260.641 245.555C260.125 245.555 259.693 245.685 259.344 245.945C258.995 246.206 258.82 246.521 258.82 246.891H257.367C257.367 246.469 257.516 246.062 257.812 245.672C258.115 245.276 258.521 244.964 259.031 244.734C259.547 244.505 260.112 244.391 260.727 244.391C261.701 244.391 262.464 244.635 263.016 245.125C263.568 245.609 263.854 246.279 263.875 247.133V251.023C263.875 251.799 263.974 252.417 264.172 252.875V253H262.656ZM260.258 251.898C260.711 251.898 261.141 251.781 261.547 251.547C261.953 251.312 262.247 251.008 262.43 250.633V248.898H261.297C259.526 248.898 258.641 249.417 258.641 250.453C258.641 250.906 258.792 251.26 259.094 251.516C259.396 251.771 259.784 251.898 260.258 251.898ZM267.508 244.547L267.555 245.609C268.201 244.797 269.044 244.391 270.086 244.391C271.872 244.391 272.773 245.398 272.789 247.414V253H271.344V247.406C271.339 246.797 271.198 246.346 270.922 246.055C270.651 245.763 270.227 245.617 269.648 245.617C269.18 245.617 268.768 245.742 268.414 245.992C268.06 246.242 267.784 246.57 267.586 246.977V253H266.141V244.547H267.508ZM276.539 253H275.094V244.547H276.539V253ZM274.977 242.305C274.977 242.07 275.047 241.872 275.188 241.711C275.333 241.549 275.547 241.469 275.828 241.469C276.109 241.469 276.323 241.549 276.469 241.711C276.615 241.872 276.688 242.07 276.688 242.305C276.688 242.539 276.615 242.734 276.469 242.891C276.323 243.047 276.109 243.125 275.828 243.125C275.547 243.125 275.333 243.047 275.188 242.891C275.047 242.734 274.977 242.539 274.977 242.305ZM280.219 244.547L280.258 245.484C280.878 244.755 281.714 244.391 282.766 244.391C283.948 244.391 284.753 244.844 285.18 245.75C285.461 245.344 285.826 245.016 286.273 244.766C286.727 244.516 287.26 244.391 287.875 244.391C289.729 244.391 290.672 245.372 290.703 247.336V253H289.258V247.422C289.258 246.818 289.12 246.367 288.844 246.07C288.568 245.768 288.104 245.617 287.453 245.617C286.917 245.617 286.471 245.779 286.117 246.102C285.763 246.419 285.557 246.849 285.5 247.391V253H284.047V247.461C284.047 246.232 283.445 245.617 282.242 245.617C281.294 245.617 280.646 246.021 280.297 246.828V253H278.852V244.547H280.219ZM298.109 253C298.026 252.833 297.958 252.536 297.906 252.109C297.234 252.807 296.432 253.156 295.5 253.156C294.667 253.156 293.982 252.922 293.445 252.453C292.914 251.979 292.648 251.38 292.648 250.656C292.648 249.776 292.982 249.094 293.648 248.609C294.32 248.12 295.263 247.875 296.477 247.875H297.883V247.211C297.883 246.706 297.732 246.305 297.43 246.008C297.128 245.706 296.682 245.555 296.094 245.555C295.578 245.555 295.146 245.685 294.797 245.945C294.448 246.206 294.273 246.521 294.273 246.891H292.82C292.82 246.469 292.969 246.062 293.266 245.672C293.568 245.276 293.974 244.964 294.484 244.734C295 244.505 295.565 244.391 296.18 244.391C297.154 244.391 297.917 244.635 298.469 245.125C299.021 245.609 299.307 246.279 299.328 247.133V251.023C299.328 251.799 299.427 252.417 299.625 252.875V253H298.109ZM295.711 251.898C296.164 251.898 296.594 251.781 297 251.547C297.406 251.312 297.701 251.008 297.883 250.633V248.898H296.75C294.979 248.898 294.094 249.417 294.094 250.453C294.094 250.906 294.245 251.26 294.547 251.516C294.849 251.771 295.237 251.898 295.711 251.898ZM303.164 253H301.719V241H303.164V253ZM66.8594 271.164C66.2969 271.826 65.4714 272.156 64.3828 272.156C63.4818 272.156 62.7943 271.896 62.3203 271.375C61.8516 270.849 61.6146 270.073 61.6094 269.047V263.547H63.0547V269.008C63.0547 270.289 63.5755 270.93 64.6172 270.93C65.7214 270.93 66.4557 270.518 66.8203 269.695V263.547H68.2656V272H66.8906L66.8594 271.164ZM75.3906 269.758C75.3906 269.367 75.2422 269.065 74.9453 268.852C74.6536 268.633 74.1406 268.445 73.4062 268.289C72.6771 268.133 72.0964 267.945 71.6641 267.727C71.237 267.508 70.9193 267.247 70.7109 266.945C70.5078 266.643 70.4062 266.284 70.4062 265.867C70.4062 265.174 70.6979 264.589 71.2812 264.109C71.8698 263.63 72.6198 263.391 73.5312 263.391C74.4896 263.391 75.2656 263.638 75.8594 264.133C76.4583 264.628 76.7578 265.26 76.7578 266.031H75.3047C75.3047 265.635 75.1354 265.294 74.7969 265.008C74.4635 264.721 74.0417 264.578 73.5312 264.578C73.0052 264.578 72.5938 264.693 72.2969 264.922C72 265.151 71.8516 265.451 71.8516 265.82C71.8516 266.169 71.9896 266.432 72.2656 266.609C72.5417 266.786 73.0391 266.956 73.7578 267.117C74.4818 267.279 75.0677 267.471 75.5156 267.695C75.9635 267.919 76.2943 268.19 76.5078 268.508C76.7266 268.82 76.8359 269.203 76.8359 269.656C76.8359 270.411 76.5339 271.018 75.9297 271.477C75.3255 271.93 74.5417 272.156 73.5781 272.156C72.901 272.156 72.3021 272.036 71.7812 271.797C71.2604 271.557 70.8516 271.224 70.5547 270.797C70.263 270.365 70.1172 269.898 70.1172 269.398H71.5625C71.5885 269.883 71.7812 270.268 72.1406 270.555C72.5052 270.836 72.9844 270.977 73.5781 270.977C74.125 270.977 74.5625 270.867 74.8906 270.648C75.224 270.424 75.3906 270.128 75.3906 269.758ZM80.2891 272H78.8438V263.547H80.2891V272ZM78.7266 261.305C78.7266 261.07 78.7969 260.872 78.9375 260.711C79.0833 260.549 79.2969 260.469 79.5781 260.469C79.8594 260.469 80.0729 260.549 80.2188 260.711C80.3646 260.872 80.4375 261.07 80.4375 261.305C80.4375 261.539 80.3646 261.734 80.2188 261.891C80.0729 262.047 79.8594 262.125 79.5781 262.125C79.2969 262.125 79.0833 262.047 78.9375 261.891C78.7969 261.734 78.7266 261.539 78.7266 261.305ZM83.9766 263.547L84.0234 264.609C84.6693 263.797 85.513 263.391 86.5547 263.391C88.3411 263.391 89.2422 264.398 89.2578 266.414V272H87.8125V266.406C87.8073 265.797 87.6667 265.346 87.3906 265.055C87.1198 264.763 86.6953 264.617 86.1172 264.617C85.6484 264.617 85.237 264.742 84.8828 264.992C84.5286 265.242 84.2526 265.57 84.0547 265.977V272H82.6094V263.547H83.9766ZM91.0938 267.703C91.0938 266.385 91.3984 265.339 92.0078 264.562C92.6172 263.781 93.4245 263.391 94.4297 263.391C95.4609 263.391 96.2656 263.755 96.8438 264.484L96.9141 263.547H98.2344V271.797C98.2344 272.891 97.9089 273.753 97.2578 274.383C96.612 275.013 95.7422 275.328 94.6484 275.328C94.0391 275.328 93.4427 275.198 92.8594 274.938C92.276 274.677 91.8307 274.32 91.5234 273.867L92.2734 273C92.8932 273.766 93.651 274.148 94.5469 274.148C95.25 274.148 95.7969 273.951 96.1875 273.555C96.5833 273.159 96.7812 272.602 96.7812 271.883V271.156C96.2031 271.823 95.4141 272.156 94.4141 272.156C93.4245 272.156 92.6224 271.758 92.0078 270.961C91.3984 270.164 91.0938 269.078 91.0938 267.703ZM92.5469 267.867C92.5469 268.82 92.7422 269.57 93.1328 270.117C93.5234 270.659 94.0703 270.93 94.7734 270.93C95.6849 270.93 96.3542 270.516 96.7812 269.688V265.828C96.3385 265.021 95.6745 264.617 94.7891 264.617C94.0859 264.617 93.5365 264.891 93.1406 265.438C92.7448 265.984 92.5469 266.794 92.5469 267.867ZM107.156 269.883L109.125 263.547H110.672L107.273 273.305C106.747 274.711 105.911 275.414 104.766 275.414L104.492 275.391L103.953 275.289V274.117L104.344 274.148C104.833 274.148 105.214 274.049 105.484 273.852C105.76 273.654 105.987 273.292 106.164 272.766L106.484 271.906L103.469 263.547H105.047L107.156 269.883ZM111.461 267.695C111.461 266.867 111.622 266.122 111.945 265.461C112.273 264.799 112.727 264.289 113.305 263.93C113.888 263.57 114.552 263.391 115.297 263.391C116.448 263.391 117.378 263.789 118.086 264.586C118.799 265.383 119.156 266.443 119.156 267.766V267.867C119.156 268.69 118.997 269.43 118.68 270.086C118.367 270.737 117.917 271.245 117.328 271.609C116.745 271.974 116.073 272.156 115.312 272.156C114.167 272.156 113.237 271.758 112.523 270.961C111.815 270.164 111.461 269.109 111.461 267.797V267.695ZM112.914 267.867C112.914 268.805 113.13 269.557 113.562 270.125C114 270.693 114.583 270.977 115.312 270.977C116.047 270.977 116.63 270.69 117.062 270.117C117.495 269.539 117.711 268.732 117.711 267.695C117.711 266.768 117.49 266.018 117.047 265.445C116.609 264.867 116.026 264.578 115.297 264.578C114.583 264.578 114.008 264.862 113.57 265.43C113.133 265.997 112.914 266.81 112.914 267.867ZM126.188 271.164C125.625 271.826 124.799 272.156 123.711 272.156C122.81 272.156 122.122 271.896 121.648 271.375C121.18 270.849 120.943 270.073 120.938 269.047V263.547H122.383V269.008C122.383 270.289 122.904 270.93 123.945 270.93C125.049 270.93 125.784 270.518 126.148 269.695V263.547H127.594V272H126.219L126.188 271.164ZM133.883 264.844C133.664 264.807 133.427 264.789 133.172 264.789C132.224 264.789 131.581 265.193 131.242 266V272H129.797V263.547H131.203L131.227 264.523C131.701 263.768 132.372 263.391 133.242 263.391C133.523 263.391 133.737 263.427 133.883 263.5V264.844ZM147.781 268.391C147.641 269.594 147.195 270.523 146.445 271.18C145.701 271.831 144.708 272.156 143.469 272.156C142.125 272.156 141.047 271.674 140.234 270.711C139.427 269.747 139.023 268.458 139.023 266.844V265.75C139.023 264.693 139.211 263.763 139.586 262.961C139.966 262.159 140.503 261.544 141.195 261.117C141.888 260.685 142.69 260.469 143.602 260.469C144.81 260.469 145.779 260.807 146.508 261.484C147.237 262.156 147.661 263.089 147.781 264.281H146.273C146.143 263.375 145.859 262.719 145.422 262.312C144.99 261.906 144.383 261.703 143.602 261.703C142.643 261.703 141.891 262.057 141.344 262.766C140.802 263.474 140.531 264.482 140.531 265.789V266.891C140.531 268.125 140.789 269.107 141.305 269.836C141.82 270.565 142.542 270.93 143.469 270.93C144.302 270.93 144.94 270.742 145.383 270.367C145.831 269.987 146.128 269.328 146.273 268.391H147.781ZM153.695 264.844C153.477 264.807 153.24 264.789 152.984 264.789C152.036 264.789 151.393 265.193 151.055 266V272H149.609V263.547H151.016L151.039 264.523C151.513 263.768 152.185 263.391 153.055 263.391C153.336 263.391 153.549 263.427 153.695 263.5V264.844ZM158.383 272.156C157.237 272.156 156.305 271.781 155.586 271.031C154.867 270.276 154.508 269.268 154.508 268.008V267.742C154.508 266.904 154.667 266.156 154.984 265.5C155.307 264.839 155.755 264.323 156.328 263.953C156.906 263.578 157.531 263.391 158.203 263.391C159.302 263.391 160.156 263.753 160.766 264.477C161.375 265.201 161.68 266.237 161.68 267.586V268.188H155.953C155.974 269.021 156.216 269.695 156.68 270.211C157.148 270.721 157.742 270.977 158.461 270.977C158.971 270.977 159.404 270.872 159.758 270.664C160.112 270.456 160.422 270.18 160.688 269.836L161.57 270.523C160.862 271.612 159.799 272.156 158.383 272.156ZM158.203 264.578C157.62 264.578 157.13 264.792 156.734 265.219C156.339 265.641 156.094 266.234 156 267H160.234V266.891C160.193 266.156 159.995 265.589 159.641 265.188C159.286 264.781 158.807 264.578 158.203 264.578ZM163.008 267.703C163.008 266.406 163.315 265.365 163.93 264.578C164.544 263.786 165.349 263.391 166.344 263.391C167.333 263.391 168.117 263.729 168.695 264.406V260H170.141V272H168.812L168.742 271.094C168.164 271.802 167.359 272.156 166.328 272.156C165.349 272.156 164.549 271.755 163.93 270.953C163.315 270.151 163.008 269.104 163.008 267.812V267.703ZM164.453 267.867C164.453 268.826 164.651 269.576 165.047 270.117C165.443 270.659 165.99 270.93 166.688 270.93C167.604 270.93 168.273 270.518 168.695 269.695V265.812C168.263 265.016 167.599 264.617 166.703 264.617C165.995 264.617 165.443 264.891 165.047 265.438C164.651 265.984 164.453 266.794 164.453 267.867ZM173.961 272H172.516V263.547H173.961V272ZM172.398 261.305C172.398 261.07 172.469 260.872 172.609 260.711C172.755 260.549 172.969 260.469 173.25 260.469C173.531 260.469 173.745 260.549 173.891 260.711C174.036 260.872 174.109 261.07 174.109 261.305C174.109 261.539 174.036 261.734 173.891 261.891C173.745 262.047 173.531 262.125 173.25 262.125C172.969 262.125 172.755 262.047 172.609 261.891C172.469 261.734 172.398 261.539 172.398 261.305ZM178.242 261.5V263.547H179.82V264.664H178.242V269.906C178.242 270.245 178.312 270.5 178.453 270.672C178.594 270.839 178.833 270.922 179.172 270.922C179.339 270.922 179.568 270.891 179.859 270.828V272C179.479 272.104 179.109 272.156 178.75 272.156C178.104 272.156 177.617 271.961 177.289 271.57C176.961 271.18 176.797 270.625 176.797 269.906V264.664H175.258V263.547H176.797V261.5H178.242ZM181.805 272.977H180.562L185.312 260.625H186.547L181.805 272.977ZM188.336 272V260.625H191.547C192.536 260.625 193.411 260.844 194.172 261.281C194.932 261.719 195.518 262.341 195.93 263.148C196.346 263.956 196.557 264.883 196.562 265.93V266.656C196.562 267.729 196.354 268.669 195.938 269.477C195.526 270.284 194.935 270.904 194.164 271.336C193.398 271.768 192.505 271.99 191.484 272H188.336ZM189.836 261.859V270.773H191.414C192.57 270.773 193.469 270.414 194.109 269.695C194.755 268.977 195.078 267.953 195.078 266.625V265.961C195.078 264.669 194.773 263.667 194.164 262.953C193.56 262.234 192.701 261.87 191.586 261.859H189.836ZM202.117 272.156C200.971 272.156 200.039 271.781 199.32 271.031C198.602 270.276 198.242 269.268 198.242 268.008V267.742C198.242 266.904 198.401 266.156 198.719 265.5C199.042 264.839 199.49 264.323 200.062 263.953C200.641 263.578 201.266 263.391 201.938 263.391C203.036 263.391 203.891 263.753 204.5 264.477C205.109 265.201 205.414 266.237 205.414 267.586V268.188H199.688C199.708 269.021 199.951 269.695 200.414 270.211C200.883 270.721 201.477 270.977 202.195 270.977C202.706 270.977 203.138 270.872 203.492 270.664C203.846 270.456 204.156 270.18 204.422 269.836L205.305 270.523C204.596 271.612 203.534 272.156 202.117 272.156ZM201.938 264.578C201.354 264.578 200.865 264.792 200.469 265.219C200.073 265.641 199.828 266.234 199.734 267H203.969V266.891C203.927 266.156 203.729 265.589 203.375 265.188C203.021 264.781 202.542 264.578 201.938 264.578ZM214.25 267.867C214.25 269.159 213.953 270.198 213.359 270.984C212.766 271.766 211.969 272.156 210.969 272.156C209.901 272.156 209.076 271.779 208.492 271.023L208.422 272H207.094V260H208.539V264.477C209.122 263.753 209.927 263.391 210.953 263.391C211.979 263.391 212.784 263.779 213.367 264.555C213.956 265.331 214.25 266.393 214.25 267.742V267.867ZM212.805 267.703C212.805 266.719 212.615 265.958 212.234 265.422C211.854 264.885 211.307 264.617 210.594 264.617C209.641 264.617 208.956 265.06 208.539 265.945V269.602C208.982 270.487 209.672 270.93 210.609 270.93C211.302 270.93 211.841 270.661 212.227 270.125C212.612 269.589 212.805 268.781 212.805 267.703ZM217.648 272H216.203V263.547H217.648V272ZM216.086 261.305C216.086 261.07 216.156 260.872 216.297 260.711C216.443 260.549 216.656 260.469 216.938 260.469C217.219 260.469 217.432 260.549 217.578 260.711C217.724 260.872 217.797 261.07 217.797 261.305C217.797 261.539 217.724 261.734 217.578 261.891C217.432 262.047 217.219 262.125 216.938 262.125C216.656 262.125 216.443 262.047 216.297 261.891C216.156 261.734 216.086 261.539 216.086 261.305ZM221.93 261.5V263.547H223.508V264.664H221.93V269.906C221.93 270.245 222 270.5 222.141 270.672C222.281 270.839 222.521 270.922 222.859 270.922C223.026 270.922 223.255 270.891 223.547 270.828V272C223.167 272.104 222.797 272.156 222.438 272.156C221.792 272.156 221.305 271.961 220.977 271.57C220.648 271.18 220.484 270.625 220.484 269.906V264.664H218.945V263.547H220.484V261.5H221.93ZM232.562 270.977C233.078 270.977 233.529 270.82 233.914 270.508C234.299 270.195 234.513 269.805 234.555 269.336H235.922C235.896 269.82 235.729 270.281 235.422 270.719C235.115 271.156 234.703 271.505 234.188 271.766C233.677 272.026 233.135 272.156 232.562 272.156C231.411 272.156 230.495 271.773 229.812 271.008C229.135 270.237 228.797 269.185 228.797 267.852V267.609C228.797 266.786 228.948 266.055 229.25 265.414C229.552 264.773 229.984 264.276 230.547 263.922C231.115 263.568 231.784 263.391 232.555 263.391C233.503 263.391 234.289 263.674 234.914 264.242C235.544 264.81 235.88 265.547 235.922 266.453H234.555C234.513 265.906 234.305 265.458 233.93 265.109C233.56 264.755 233.102 264.578 232.555 264.578C231.82 264.578 231.25 264.844 230.844 265.375C230.443 265.901 230.242 266.664 230.242 267.664V267.938C230.242 268.911 230.443 269.661 230.844 270.188C231.245 270.714 231.818 270.977 232.562 270.977ZM242.766 272C242.682 271.833 242.615 271.536 242.562 271.109C241.891 271.807 241.089 272.156 240.156 272.156C239.323 272.156 238.638 271.922 238.102 271.453C237.57 270.979 237.305 270.38 237.305 269.656C237.305 268.776 237.638 268.094 238.305 267.609C238.977 267.12 239.919 266.875 241.133 266.875H242.539V266.211C242.539 265.706 242.388 265.305 242.086 265.008C241.784 264.706 241.339 264.555 240.75 264.555C240.234 264.555 239.802 264.685 239.453 264.945C239.104 265.206 238.93 265.521 238.93 265.891H237.477C237.477 265.469 237.625 265.062 237.922 264.672C238.224 264.276 238.63 263.964 239.141 263.734C239.656 263.505 240.221 263.391 240.836 263.391C241.81 263.391 242.573 263.635 243.125 264.125C243.677 264.609 243.964 265.279 243.984 266.133V270.023C243.984 270.799 244.083 271.417 244.281 271.875V272H242.766ZM240.367 270.898C240.82 270.898 241.25 270.781 241.656 270.547C242.062 270.312 242.357 270.008 242.539 269.633V267.898H241.406C239.635 267.898 238.75 268.417 238.75 269.453C238.75 269.906 238.901 270.26 239.203 270.516C239.505 270.771 239.893 270.898 240.367 270.898ZM250.336 264.844C250.117 264.807 249.88 264.789 249.625 264.789C248.677 264.789 248.034 265.193 247.695 266V272H246.25V263.547H247.656L247.68 264.523C248.154 263.768 248.826 263.391 249.695 263.391C249.977 263.391 250.19 263.427 250.336 263.5V264.844ZM251.164 267.703C251.164 266.406 251.471 265.365 252.086 264.578C252.701 263.786 253.505 263.391 254.5 263.391C255.49 263.391 256.273 263.729 256.852 264.406V260H258.297V272H256.969L256.898 271.094C256.32 271.802 255.516 272.156 254.484 272.156C253.505 272.156 252.706 271.755 252.086 270.953C251.471 270.151 251.164 269.104 251.164 267.812V267.703ZM252.609 267.867C252.609 268.826 252.807 269.576 253.203 270.117C253.599 270.659 254.146 270.93 254.844 270.93C255.76 270.93 256.43 270.518 256.852 269.695V265.812C256.419 265.016 255.755 264.617 254.859 264.617C254.151 264.617 253.599 264.891 253.203 265.438C252.807 265.984 252.609 266.794 252.609 267.867Z" fill="black"/>
<path d="M232.149 56.7645C233.26 56.5241 234.343 54.6287 236.137 57.998L236.137 57.9978C237.146 57.6012 238.154 57.2045 239.175 56.8361C240.483 56.3453 244.107 56.9339 245.379 57.8251C247.73 59.4895 247.646 59.4589 248.412 63.4327C248.732 65.063 249.481 66.7774 250 68.4562C250.315 69.4886 251.022 71.1876 250.81 71.4446C250.293 72.0317 249.622 72.3843 250.48 73.6853C251.79 75.6272 251.143 72.6027 251.553 73.0614C252.165 73.7543 252.671 74.8498 253.129 75.8421L253.148 75.8818C253.671 77.0255 255.818 74.7769 255.217 78.4333C255.129 78.9377 256.774 80.7033 257.517 81.9866C258.402 83.4762 258.628 85.3466 260.15 86.5312C260.762 87.0037 259.858 89.8227 258.696 89.6512C256.575 89.3221 256.406 92.5275 254.652 92.8085C254.565 92.8125 254.489 93.1783 254.537 93.2911C257.305 98.445 252.62 96.7083 252.944 99.6037C250.594 98.9054 249.716 100.947 248.786 102.91C246.325 101.492 246.812 104.351 246.502 106.051C246.474 106.196 246.625 106.465 246.694 106.669C247.057 107.814 248.322 109.442 246.909 109.644C246.526 109.707 245.707 108.289 245.065 107.83C244.778 107.618 244.217 107.891 244.095 108.276C243.573 109.899 246.397 110.495 245.685 112.299C246.017 112.491 246.538 113.002 246.665 112.881C247.702 111.673 249.978 113.536 250.64 111.32C250.708 111.104 251.227 113.587 251.659 115.11C251.864 115.064 252.067 115.081 252.257 115.198C252.278 116.895 251.995 116.292 251.659 115.11C251.209 115.21 250.749 115.613 250.392 115.926L250.39 115.927C249.411 116.811 250.026 119.216 251.488 120.426C251.934 120.803 252.419 121.23 252.865 121.439C254.627 122.222 254.298 123.462 254.07 124.726L254.061 124.776C254.004 125.092 253.936 125.47 254.002 125.822L254.036 126.005C254.347 127.679 254.355 127.725 253.95 127.544C253.643 127.408 253.318 126.98 253.046 126.929C251.507 126.752 249.845 126.16 248.648 127.204C248.382 127.417 247.854 127.142 247.45 127.115C247.468 126.74 247.514 126.387 247.503 126.025C247.385 124.576 248.615 123.484 247.35 121.857C245.435 119.373 246.043 123.647 244.616 123.022C244.086 122.782 243.587 123.328 243.112 123.597C241.952 124.225 239.013 124.111 237.707 123.434C237.303 123.24 236.76 123.138 236.518 123.408C235.94 124.021 236.899 126.479 235.463 126.124C233.9 125.724 234.518 127.76 234.429 128.765C234.25 130.941 235.143 129.561 235.64 129.849C236.569 130.353 237.24 131.8 236.644 132.288C235.39 133.322 235.784 134.121 237.225 135.407C237.372 135.544 237.543 136.405 237.425 136.589C236.674 138.009 235.818 139.307 235.067 140.728C234.982 140.864 235.294 141.764 235.523 141.966C237.383 143.774 237.557 144.1 237.217 145.478C237.174 145.63 237.129 145.816 237.035 145.889C236.521 146.275 235.51 146.539 237.192 147.555C237.798 147.931 238.761 148.054 238.976 147.595C239.261 147.007 238.967 145.732 238.923 144.751C238.9 144.361 238.891 143.964 238.868 143.574C239.133 143.861 239.462 144.088 239.663 144.435C239.988 145.03 240.235 145.692 240.496 146.347C241.461 148.736 242.721 149.766 243.96 148.904C245.123 148.075 246.553 148.499 247.996 148.784C248.252 148.841 248.535 149.087 248.813 149.236C248.701 149.517 248.645 149.974 248.449 150.057C247.712 150.338 246.911 151.013 246.136 150.577C244.876 149.88 244.803 150.212 245.455 151.7C246.084 153.133 246.534 154.274 245.318 154.559C245.215 154.57 245.409 155.82 245.674 156.274C245.903 156.643 246.533 156.908 246.832 156.814C248.01 156.479 249.058 155.798 250.281 155.61C250.71 155.528 251.472 156.436 252.099 156.902C251.878 157.263 251.72 157.73 251.424 157.957C250.094 158.857 248.729 159.672 247.387 160.544C247.218 160.65 247.009 161.039 246.97 160.989C244.653 158.276 243.995 160.457 242.84 161.516C242.175 162.133 240.6 161.37 240.14 162.133C239.126 163.899 238.422 166.099 237.884 168.396C237.562 169.733 236.275 170.315 237.173 172.799C237.429 173.523 237.232 174.108 238.039 174.663C238.368 174.89 238.955 175.973 238.903 176.229C238.684 177.222 237.989 177.852 237.969 178.894C237.942 180.672 237.203 179.987 236.326 179.727C235.885 179.615 235.783 181.259 235.254 181.484C233.925 182.051 232.524 182.615 230.997 182.466C229.901 182.366 229.056 182.226 228.74 183.661C228.627 184.109 228.11 184.696 228.017 184.603C225.631 182.02 225.924 185.595 224.906 186.096C223.634 186.671 222.873 188.696 221.521 188.705C220.138 188.728 219.514 189.861 218.445 190.283C217.047 190.813 215.669 191.433 214.295 192.019C213.042 192.553 211.836 193.2 210.523 193.594C209.297 193.983 207.268 192.448 207.016 195.122C205.53 193.689 205.133 196.525 203.638 195.028C202.967 197.348 201.012 197.281 199.64 198.333C197.071 200.262 193.592 199.511 190.678 200.42C189.705 200.734 188.11 199.881 186.868 198.977C185.502 197.992 185.293 200.182 184.076 199.167C182.713 201.581 180.988 202.85 177.904 200.431C177.66 200.235 177.28 201.898 176.824 201.792C175.557 201.498 174.221 200.835 172.918 200.123C171.561 199.368 167.703 198.313 166.625 198.672C165.622 199 164.776 199.527 163.374 198.625C162.439 198.023 161.178 197.827 160.58 198.349C159.588 199.205 159.015 200.749 157.659 201.127C157.375 201.215 156.201 202.982 158.324 204.278C158.202 204.663 158.162 205.28 157.908 205.355C155.897 206.079 154.969 208.508 153.635 210.277C153.339 210.67 153.159 211.713 152.921 211.615C151.95 211.095 149.56 211.421 150 213.5L146.579 214.5C145.892 214.85 146.186 215.968 145.5 216.309C142.869 217.616 139.546 217.879 139.821 216.932C139.35 217 138.542 216.778 138.459 217.213C138.116 218.626 137.924 219.808 136.425 217.38C136.145 216.933 135.414 216.977 134.908 216.793C134.443 216.625 133.991 216.484 133.541 216.309C133.813 216.026 134.278 215.861 134.333 215.404C134.514 214.027 132.075 210.734 130.885 211.041C129.176 211.469 127.44 209.909 125.724 209.274C124.149 208.678 122.66 209.08 120.982 207.362C120.036 206.398 119.926 206.978 119.56 207.835C119.284 208.485 118.065 207.972 117.362 208.205C115.368 208.888 113.57 204.754 111.617 204.82C110.182 202.331 107.577 200.408 108.136 196.903C108.148 196.764 107.256 195.845 106.759 195.39C106.289 194.957 105.767 194.612 105.273 194.29C104.426 193.684 103.467 192.693 102.758 192.662C101.774 192.614 100.961 193.261 100.133 193.747C100.01 193.833 100.081 194.503 100.207 194.883C101.054 197.455 100.28 198.319 99.0051 198.762C98.7968 198.817 98.7808 199.324 98.6536 199.612C99.0669 199.702 99.4713 199.73 99.8936 199.883C100.162 199.969 100.433 200.186 100.708 200.37C100.581 200.657 100.52 201.016 100.329 201.198C99.1804 202.187 97.5592 200.645 96.1922 200.494C95.7184 200.43 95.3464 200.855 94.9205 201.07C95.3243 201.431 96.0238 201.9 96.0596 202.151C96.1488 202.946 95.9846 203.65 95.932 204.406C95.5975 204.081 95.2661 203.723 94.9285 203.433C94.5518 203.094 94.127 202.641 93.771 202.56C93.2581 202.445 92.8676 203.078 92.6923 201.453C92.4991 199.702 93.066 196.426 90.1904 197.719C89.8431 197.867 88.8393 197.061 88.4179 196.408C87.1205 194.327 85.7107 192.695 84.0769 191.458C83.8447 191.29 83.5111 190.465 83.5388 190.154C83.6345 188.913 83.1406 188.257 82.2786 187.491C80.9978 186.37 79.6735 185.901 78.4242 183.933C77.4941 182.463 75.6533 182.247 74.9936 179.695C74.9276 179.457 74.3489 178.937 74.213 178.994C73.1799 179.502 71.6605 178.449 71.418 177.252C71.008 175.16 70.1853 172.644 71.2142 171.039C71.65 170.386 71.6883 169.136 71.8108 168.084C71.8293 167.876 71.4288 167.314 71.1788 167.02C71.1125 166.948 70.759 167.166 70.7405 167.374C70.5959 169.002 69.758 168.293 68.7867 167.94C67.2664 167.388 67.5014 164.087 65.9014 164.269C63.9814 164.454 64.1096 161.866 63.3391 160.561C62.9479 159.895 62.8589 158.932 62.6551 158.119C63.1249 158.719 63.5766 159.36 64.0646 159.919C64.17 160.04 64.5658 159.838 64.563 159.706C64.4738 158.911 65.4619 158.256 64.0149 157.206C63.632 156.936 63.0615 155.179 63.0766 155.173C64.847 154.218 65.1443 153.325 62.3252 151.526C61.2247 150.828 61.2885 148.801 62.3792 148.136C63.4549 147.478 63.4247 147.49 62.4651 145.533C62.1192 144.847 61.8309 144.003 61.7053 143.29C61.2956 141.031 61.4078 138.949 60.259 136.506C59.856 135.644 59.9503 133.437 60.3217 133.345C61.8856 133.079 61.6446 131.048 62.0636 129.602C62.27 128.914 63.4505 128.711 62.4806 127.524C61.577 126.41 60.549 123.914 59.4764 124.538C57.5458 125.661 57.0038 123.092 56.4694 121.42C56.0161 119.979 56.3612 117.565 55.9454 117.176C54.3633 115.683 55.9832 114.46 54.8351 113.315C55.1987 112.494 55.352 111.095 55.962 110.935C56.8981 110.703 58.1437 111.238 59.2599 111.596C59.3866 111.642 59.8251 112.922 59.749 113.288C59.6363 113.902 59.2101 114.284 58.9195 114.775C59.4567 114.779 60.0902 115.009 60.5161 114.794C61.3107 114.355 61.9939 113.697 62.6772 113.039C63.0128 112.696 62.717 110.956 62.1814 109.951C61.2096 108.131 60.8958 106.265 61.7032 105.354C63.1307 103.679 65.0219 102.673 65.1573 99.3478C68.4019 97.6647 69.1311 93.0535 70.1134 88.7011C70.2532 88.1081 70.7759 87.7853 71.2441 87.5857C72.7303 86.8855 74.2495 86.3046 75.7477 85.6326C76.2039 85.4048 76.5879 85.0077 77.011 84.6607C76.6075 84.1326 75.8482 83.3562 75.8577 83.0855C75.9229 82.0243 75.7383 80.5028 76.9664 80.7461C77.609 80.8721 78.2579 80.9289 78.9067 80.9857C78.5032 80.4576 78.0725 79.9078 77.7173 79.3258C77.6661 79.2477 77.9055 78.6789 78.1019 78.5952C79.1803 78.0688 80.4453 77.8963 80.3586 75.5997C80.3416 74.9736 80.8525 74.4557 81.2785 74.2408C82.2965 73.7402 83.2457 72.8688 84.7711 74.0188C84.7113 71.9107 86.1594 72.2935 87.0356 71.7533C87.3589 71.5488 87.7938 71.3968 88.201 71.5565C89.0034 71.8479 90.1665 72.9855 90.5595 72.6513C91.8592 71.5973 93.135 70.32 93.9168 68.5533C94.4834 67.245 94.3086 67.0861 95.4435 68.8692C97.5357 72.1444 99.7278 71.6766 101.802 71.5593C102.372 71.5161 102.985 71.6551 103.588 71.7311C102.544 68.1093 103.994 68.9578 105.669 69.4108C106.875 69.7298 107.973 68.8287 108.949 68.1459C109.242 67.9543 108.927 66.5883 108.883 65.7736C109.561 66.4847 110.275 67.1136 110.932 67.9004C112.285 69.5241 112.769 68.4841 113.353 67.6351C114.322 66.2222 114.152 62.7274 116.998 64.7145C117.095 64.7733 117.376 64.2199 117.325 64.1417C115.758 61.0095 118.315 62.3196 118.456 61.0594C118.545 60.2214 116.914 57.3163 119.383 59.2976C119.476 59.3911 119.794 56.9554 120.321 56.0975C120.845 55.2742 122.006 55.6125 122.332 54.0736C122.536 53.0866 123.873 53.0833 124.682 52.6382C125.477 52.1995 125.529 51.9441 124.875 51.2894C124.408 50.6549 123.391 50.3216 123.379 50.4602C123.185 52.643 121.424 51.8604 120.526 52.6431C120.354 52.7832 119.995 52.5695 119.696 52.4968C119.685 51.9682 119.508 51.1768 119.705 50.9263C120.682 49.5763 121.777 48.3763 122.817 47.1327C123.579 46.2411 122.49 46.0721 122.219 45.5208C121.949 44.9694 121.896 43.9251 122.093 43.5078C122.59 42.3292 122.853 44.1174 123.211 44.3311C123.721 44.6473 124.366 44.9055 124.774 44.7317C126.683 44.018 128.547 43.1568 130.447 42.3803C131.066 42.1164 131.676 41.7895 132.34 41.6731C133.047 41.5719 133.988 43.4041 134.019 44.6909C134.036 45.3171 134.185 46.4203 134.415 46.6227C134.939 47.0992 135.941 48.572 135.957 46.5986C135.952 46.1674 136.453 45.9203 136.8 45.7723C138.504 45.0794 140 43.7749 142.295 44.9301C143.102 42.5526 144.417 41.3253 146.917 42.7932C146.875 39.0108 149.763 42.6466 150.942 41.4772C152.04 40.4093 153.455 39.2062 155.514 40.3952C155.638 40.4758 155.861 40.5807 155.879 40.5396C156.475 37.9187 158.166 37.5312 160.08 37.2486C161.994 36.9661 163.692 36.0089 165.348 35.0364C166.451 34.3997 167.271 33.1834 168.289 32.3491C169.226 31.6164 170.208 31.1979 170.958 29.9445C171.9 28.3431 173.932 27.8768 175.725 27.8126C176.745 27.7777 178.339 29.2983 179.535 30.5553C181.897 33.082 184.108 34.3733 186.288 33.7105C186.512 33.6486 186.579 33.22 186.73 32.9888C186.501 32.7864 186.164 32.3301 186.028 32.3881C184.415 33.0423 184.659 31.6049 184.938 30.5857C185.093 29.9862 185.55 29.5917 185.991 29.3703C187.329 28.6998 188.706 28.0793 190.129 27.6063C191.086 27.2982 191.386 26.7037 190.637 24.9893C190.565 24.8201 191.052 24.2458 191.372 24.076C191.523 24.0116 191.954 24.3946 192.174 24.7009C192.406 25.0355 192.52 25.5537 192.745 25.9575C193.257 26.9062 193.814 27.8356 194.355 28.7714C194.688 28.1294 195.13 27.5745 195.331 26.7889C195.616 25.7004 195.017 24.9225 194.14 24.1629C192.964 23.1639 192.574 21.9969 193.707 21.514C194.401 21.2179 195.247 21.191 196.067 21.2744C196.426 21.3213 196.896 21.9211 197.342 22.2977C197.094 22.6368 196.822 22.9195 196.586 23.2868C196.317 23.7016 196.059 24.1447 195.805 24.5531C196.27 24.8885 196.725 25.328 197.183 25.5659C197.572 25.7668 202.431 24.062 202.83 23.9921C203.696 23.8895 204.764 24.301 205.48 23.9292C206.241 23.538 206.6 22.2852 207.337 21.8375C207.645 21.6395 208.528 22.4965 209.088 23.0577C209.221 23.2012 209.129 24.0738 209.125 24.6089C209.122 24.8103 209.103 25.0182 209.046 25.1761C208.691 26.2275 208.254 27.2136 208.02 28.3802C207.965 28.6703 211.996 29.5855 211.994 28.7862C211.964 25.3655 214.145 27.8027 215.286 27.7163C215.929 27.6755 217.518 28.5983 216.962 30.602C218.778 31.4282 219.75 35.0476 221.642 35.3411L221.65 35.3425C222.432 35.4725 222.773 35.5292 222.545 36.6229C222.192 38.3068 222.188 40.8088 221.266 41.3683C220.194 41.9922 219.906 44.4151 217.862 43.2198C217.129 42.7987 216.183 43.4686 215.66 44.1251C215.118 44.8226 213.46 45.6629 216.079 47.5798C216.312 47.7475 216.666 48.4963 216.645 48.7388C216.344 51.9675 217.236 52.7206 219.082 51.7338C219.157 51.7016 219.56 52.3964 219.792 52.7309C217.981 54.9701 220.988 57.5882 221.531 59.9906C221.561 60.1445 222.499 60.3779 223.015 60.6248C224.357 61.2194 225.215 62.1868 225.052 64.19C224.987 64.9176 225.001 65.7452 225.193 66.5301C225.319 67.0765 225.822 67.6288 226.153 68.1543C227.292 65.9688 231.209 73.0661 231.409 67.7141C232.596 68.9081 233.472 68.5348 234.236 67.9421C234.581 67.6619 234.688 66.9496 234.906 66.4566C234.402 66.0711 233.812 65.356 233.447 65.3784C231.953 65.5154 230.417 65.3034 228.768 63.906C228.403 63.5948 228.079 62.8331 227.88 62.2842C227.799 62.0521 228.171 61.4601 228.211 61.51C230.034 63.2331 229.934 59.7753 231.454 60.6609C231.743 60.8376 232.039 60.6113 232.335 60.5518C232.022 59.9852 231.731 59.176 231.402 58.9494C230.866 58.6114 230.31 58.6482 229.755 58.5182C230.124 58.1275 230.442 57.6587 230.85 57.3181C231.176 57.079 231.59 57.0027 232.149 56.7645Z" fill="#FFE68E"/>
<g clip-path="url(#clip0)">
<path d="M214.173 97.9234L144.782 166.258C141.646 169.346 136.562 169.346 133.426 166.258L92.5928 126.046C89.4565 122.957 89.4565 117.95 92.5928 114.863L161.983 46.5275C165.119 43.44 170.203 43.44 173.339 46.5275L214.173 86.7406C217.308 89.828 217.308 94.8348 214.173 97.9234Z" fill="#8CBAFA"/>
<path d="M214.173 86.7406L209.076 81.7212C211.868 84.4711 211.59 89.2037 208.455 92.2923L139.063 160.627C135.928 163.715 131.123 163.989 128.33 161.239L133.426 166.258C136.562 169.346 141.646 169.346 144.782 166.258L214.173 97.9235C217.308 94.8348 217.308 89.8281 214.173 86.7406Z" fill="#5692D8"/>
<path d="M160.849 62.1032L154.05 68.7989C151.376 71.4313 151.376 75.6984 154.05 78.3308C156.723 80.9632 161.056 80.9632 163.73 78.3308L170.529 71.6352C173.202 69.0028 173.202 64.7356 170.529 62.1032C167.856 59.4708 163.522 59.4708 160.849 62.1032Z" fill="#FFB600"/>
<path d="M220.725 118.105H122.592C118.157 118.105 114.562 121.645 114.562 126.011V182.881C114.562 187.248 118.157 190.788 122.592 190.788H220.725C225.159 190.788 228.754 187.248 228.754 182.881V126.011C228.754 121.645 225.159 118.105 220.725 118.105Z" fill="#FFB600"/>
<path d="M220.725 118.105H213.538C217.971 118.105 221.566 121.645 221.566 126.011V182.881C221.566 187.248 217.971 190.788 213.538 190.788H220.725C225.159 190.788 228.754 187.248 228.754 182.881V126.011C228.754 121.645 225.159 118.105 220.725 118.105Z" fill="#FFB600"/>
<path d="M114.562 135.969H228.754V149.631H114.562V135.969Z" fill="#575B7A"/>
<path d="M221.566 135.969H228.754V149.631H221.566V135.969Z" fill="#252D4C"/>
<path d="M200.688 171.461V179.887C200.688 180.54 201.224 181.067 201.886 181.067H215.496C216.158 181.067 216.694 180.54 216.694 179.887V171.461C216.694 170.809 216.158 170.282 215.496 170.282H201.886C201.224 170.282 200.688 170.809 200.688 171.461Z" fill="#E9E9EA"/>
<path d="M159.654 171.461V179.887C159.654 180.54 160.191 181.067 160.852 181.067H189.638C190.3 181.067 190.836 180.54 190.836 179.887V171.461C190.836 170.809 190.3 170.282 189.638 170.282H160.852C160.191 170.282 159.654 170.809 159.654 171.461Z" fill="#E9E9EA"/>
<path d="M94.1814 124.482C91.926 122.261 91.926 118.647 94.1814 116.427L149.221 62.225C150.099 61.3609 150.099 59.9601 149.221 59.0972C148.344 58.232 146.921 58.2332 146.045 59.0972L91.0041 113.299C86.9986 117.244 86.9986 123.664 91.0041 127.61L104.868 141.262C105.305 141.693 105.881 141.909 106.455 141.909C107.031 141.909 107.605 141.694 108.044 141.262C108.921 140.398 108.921 138.997 108.044 138.134L94.1814 124.482Z" fill="black"/>
<path d="M138.336 86.0505L104.347 119.522C103.47 120.386 103.47 121.787 104.347 122.651C104.786 123.082 105.36 123.298 105.936 123.298C106.51 123.298 107.085 123.083 107.523 122.651L141.512 89.1794C142.389 88.3154 142.389 86.9145 141.512 86.0505C140.636 85.1876 139.213 85.1876 138.336 86.0505Z" fill="black"/>
<path d="M158.89 82.5139C161.218 82.5139 163.546 81.6418 165.318 79.8964L172.117 73.2008C175.662 69.7101 175.662 64.0306 172.117 60.5399C168.573 57.0492 162.805 57.0492 159.261 60.5399L152.462 67.2355C150.744 68.9267 149.799 71.1744 149.799 73.566C149.799 75.9565 150.744 78.2052 152.462 79.8964C154.234 81.6418 156.562 82.5139 158.89 82.5139ZM155.638 70.3633L162.437 63.6677C164.23 61.9016 167.148 61.9016 168.94 63.6677C170.733 65.4337 170.733 68.3069 168.94 70.0719L162.141 76.7675C160.349 78.5336 157.431 78.5336 155.638 76.7675C154.77 75.9127 154.291 74.7756 154.291 73.566C154.291 72.3563 154.77 71.2181 155.638 70.3633Z" fill="black"/>
<path d="M220.724 115.893H199.103L215.762 99.4879C219.768 95.5421 219.768 89.1218 215.762 85.1761L174.927 44.9642C172.986 43.053 170.406 42 167.661 42C164.917 42 162.336 43.053 160.394 44.9642L152.393 52.8441C151.516 53.7082 151.516 55.1079 152.393 55.9719C153.27 56.836 154.693 56.836 155.569 55.9719L163.572 48.092C164.663 47.016 166.116 46.4238 167.661 46.4238C169.206 46.4238 170.659 47.016 171.751 48.092L212.584 88.3039C214.84 90.525 214.84 94.1378 212.584 96.3589L192.75 115.892H135.988L152.314 99.8139C153.192 98.951 153.192 97.5501 152.314 96.6861C151.437 95.8221 150.014 95.8221 149.138 96.6861L129.636 115.893H122.592C116.925 115.893 112.316 120.432 112.316 126.011V182.88C112.316 188.46 116.925 193 122.592 193H220.724C226.391 193 231 188.46 231 182.88V174.706C231 173.483 229.995 172.494 228.754 172.494C227.514 172.494 226.508 173.483 226.508 174.706V182.88C226.508 186.021 223.914 188.576 220.724 188.576H122.592C119.403 188.576 116.808 186.021 116.808 182.88V151.843H226.508V165.858C226.508 167.079 227.513 168.07 228.754 168.07C229.995 168.07 231 167.079 231 165.858V126.012C231 120.432 226.391 115.893 220.724 115.893ZM122.592 120.317H220.724C223.913 120.317 226.508 122.872 226.508 126.012V133.759H116.808V126.012C116.808 122.872 119.403 120.317 122.592 120.317ZM116.808 147.42V138.183H226.508V147.42H116.808Z" fill="black"/>
<path d="M201.886 168.07C199.988 168.07 198.442 169.592 198.442 171.461V179.887C198.442 181.758 199.988 183.279 201.886 183.279H215.496C217.395 183.279 218.94 181.758 218.94 179.887V171.461C218.94 169.592 217.395 168.07 215.496 168.07H201.886ZM214.448 178.855H202.934V172.494H214.448V178.855Z" fill="black"/>
<path d="M160.852 168.07C158.953 168.07 157.408 169.592 157.408 171.461V179.887C157.408 181.758 158.953 183.279 160.852 183.279H189.638C191.537 183.279 193.082 181.758 193.082 179.887V171.461C193.082 169.592 191.537 168.07 189.638 168.07H160.852ZM188.59 178.855H161.9V172.494H188.59V178.855Z" fill="black"/>
<path d="M133.578 178.855C132.338 178.855 131.332 179.846 131.332 181.067C131.332 182.29 132.338 183.279 133.578 183.279H147.92C149.16 183.279 150.166 182.29 150.166 181.067C150.166 179.846 149.16 178.855 147.92 178.855H133.578Z" fill="black"/>
</g>
<defs>
<clipPath id="clip0">
<rect width="143" height="151" fill="white" transform="translate(88 42)"/>
</clipPath>
</defs>
</svg>
