<svg width="320" height="276" viewBox="0 0 320 276" fill="none" xmlns="http://www.w3.org/2000/svg">
<path d="M29.9688 242.859H26.3125V253H24.8203V242.859H21.1719V241.625H29.9688V242.859ZM32.875 245.57C33.5156 244.784 34.349 244.391 35.375 244.391C37.1615 244.391 38.0625 245.398 38.0781 247.414V253H36.6328V247.406C36.6276 246.797 36.487 246.346 36.2109 246.055C35.9401 245.763 35.5156 245.617 34.9375 245.617C34.4688 245.617 34.0573 245.742 33.7031 245.992C33.349 246.242 33.0729 246.57 32.875 246.977V253H31.4297V241H32.875V245.57ZM43.75 253.156C42.6042 253.156 41.6719 252.781 40.9531 252.031C40.2344 251.276 39.875 250.268 39.875 249.008V248.742C39.875 247.904 40.0339 247.156 40.3516 246.5C40.6745 245.839 41.1224 245.323 41.6953 244.953C42.2734 244.578 42.8984 244.391 43.5703 244.391C44.6693 244.391 45.5234 244.753 46.1328 245.477C46.7422 246.201 47.0469 247.237 47.0469 248.586V249.188H41.3203C41.3411 250.021 41.5833 250.695 42.0469 251.211C42.5156 251.721 43.1094 251.977 43.8281 251.977C44.3385 251.977 44.7708 251.872 45.125 251.664C45.4792 251.456 45.7891 251.18 46.0547 250.836L46.9375 251.523C46.2292 252.612 45.1667 253.156 43.75 253.156ZM43.5703 245.578C42.987 245.578 42.4974 245.792 42.1016 246.219C41.7057 246.641 41.4609 247.234 41.3672 248H45.6016V247.891C45.5599 247.156 45.362 246.589 45.0078 246.188C44.6536 245.781 44.1745 245.578 43.5703 245.578ZM57.9141 253C57.8307 252.833 57.763 252.536 57.7109 252.109C57.0391 252.807 56.237 253.156 55.3047 253.156C54.4714 253.156 53.7865 252.922 53.25 252.453C52.7188 251.979 52.4531 251.38 52.4531 250.656C52.4531 249.776 52.7865 249.094 53.4531 248.609C54.125 248.12 55.0677 247.875 56.2812 247.875H57.6875V247.211C57.6875 246.706 57.5365 246.305 57.2344 246.008C56.9323 245.706 56.487 245.555 55.8984 245.555C55.3828 245.555 54.9505 245.685 54.6016 245.945C54.2526 246.206 54.0781 246.521 54.0781 246.891H52.625C52.625 246.469 52.7734 246.062 53.0703 245.672C53.3724 245.276 53.7786 244.964 54.2891 244.734C54.8047 244.505 55.3698 244.391 55.9844 244.391C56.9583 244.391 57.7214 244.635 58.2734 245.125C58.8255 245.609 59.112 246.279 59.1328 247.133V251.023C59.1328 251.799 59.2318 252.417 59.4297 252.875V253H57.9141ZM55.5156 251.898C55.9688 251.898 56.3984 251.781 56.8047 251.547C57.2109 251.312 57.5052 251.008 57.6875 250.633V248.898H56.5547C54.7839 248.898 53.8984 249.417 53.8984 250.453C53.8984 250.906 54.0495 251.26 54.3516 251.516C54.6536 251.771 55.0417 251.898 55.5156 251.898ZM62.7656 244.547L62.8125 245.609C63.4583 244.797 64.3021 244.391 65.3438 244.391C67.1302 244.391 68.0312 245.398 68.0469 247.414V253H66.6016V247.406C66.5964 246.797 66.4557 246.346 66.1797 246.055C65.9089 245.763 65.4844 245.617 64.9062 245.617C64.4375 245.617 64.026 245.742 63.6719 245.992C63.3177 246.242 63.0417 246.57 62.8438 246.977V253H61.3984V244.547H62.7656ZM71.7969 253H70.3516V244.547H71.7969V253ZM70.2344 242.305C70.2344 242.07 70.3047 241.872 70.4453 241.711C70.5911 241.549 70.8047 241.469 71.0859 241.469C71.3672 241.469 71.5807 241.549 71.7266 241.711C71.8724 241.872 71.9453 242.07 71.9453 242.305C71.9453 242.539 71.8724 242.734 71.7266 242.891C71.5807 243.047 71.3672 243.125 71.0859 243.125C70.8047 243.125 70.5911 243.047 70.4453 242.891C70.3047 242.734 70.2344 242.539 70.2344 242.305ZM75.4766 244.547L75.5156 245.484C76.1354 244.755 76.9714 244.391 78.0234 244.391C79.2057 244.391 80.0104 244.844 80.4375 245.75C80.7188 245.344 81.0833 245.016 81.5312 244.766C81.9844 244.516 82.5182 244.391 83.1328 244.391C84.987 244.391 85.9297 245.372 85.9609 247.336V253H84.5156V247.422C84.5156 246.818 84.3776 246.367 84.1016 246.07C83.8255 245.768 83.362 245.617 82.7109 245.617C82.1745 245.617 81.7292 245.779 81.375 246.102C81.0208 246.419 80.8151 246.849 80.7578 247.391V253H79.3047V247.461C79.3047 246.232 78.7031 245.617 77.5 245.617C76.5521 245.617 75.9036 246.021 75.5547 246.828V253H74.1094V244.547H75.4766ZM93.3672 253C93.2839 252.833 93.2161 252.536 93.1641 252.109C92.4922 252.807 91.6901 253.156 90.7578 253.156C89.9245 253.156 89.2396 252.922 88.7031 252.453C88.1719 251.979 87.9062 251.38 87.9062 250.656C87.9062 249.776 88.2396 249.094 88.9062 248.609C89.5781 248.12 90.5208 247.875 91.7344 247.875H93.1406V247.211C93.1406 246.706 92.9896 246.305 92.6875 246.008C92.3854 245.706 91.9401 245.555 91.3516 245.555C90.8359 245.555 90.4036 245.685 90.0547 245.945C89.7057 246.206 89.5312 246.521 89.5312 246.891H88.0781C88.0781 246.469 88.2266 246.062 88.5234 245.672C88.8255 245.276 89.2318 244.964 89.7422 244.734C90.2578 244.505 90.8229 244.391 91.4375 244.391C92.4115 244.391 93.1745 244.635 93.7266 245.125C94.2786 245.609 94.5651 246.279 94.5859 247.133V251.023C94.5859 251.799 94.6849 252.417 94.8828 252.875V253H93.3672ZM90.9688 251.898C91.4219 251.898 91.8516 251.781 92.2578 251.547C92.6641 251.312 92.9583 251.008 93.1406 250.633V248.898H92.0078C90.237 248.898 89.3516 249.417 89.3516 250.453C89.3516 250.906 89.5026 251.26 89.8047 251.516C90.1068 251.771 90.4948 251.898 90.9688 251.898ZM98.4219 253H96.9766V241H98.4219V253ZM112.195 251.008L113.82 244.547H115.266L112.805 253H111.633L109.578 246.594L107.578 253H106.406L103.953 244.547H105.391L107.055 250.875L109.023 244.547H110.188L112.195 251.008ZM118.312 253H116.867V244.547H118.312V253ZM116.75 242.305C116.75 242.07 116.82 241.872 116.961 241.711C117.107 241.549 117.32 241.469 117.602 241.469C117.883 241.469 118.096 241.549 118.242 241.711C118.388 241.872 118.461 242.07 118.461 242.305C118.461 242.539 118.388 242.734 118.242 242.891C118.096 243.047 117.883 243.125 117.602 243.125C117.32 243.125 117.107 243.047 116.961 242.891C116.82 242.734 116.75 242.539 116.75 242.305ZM122.203 253H120.758V241H122.203V253ZM126.094 253H124.648V241H126.094V253ZM136.469 245.844C136.25 245.807 136.013 245.789 135.758 245.789C134.81 245.789 134.167 246.193 133.828 247V253H132.383V244.547H133.789L133.812 245.523C134.286 244.768 134.958 244.391 135.828 244.391C136.109 244.391 136.323 244.427 136.469 244.5V245.844ZM141.156 253.156C140.01 253.156 139.078 252.781 138.359 252.031C137.641 251.276 137.281 250.268 137.281 249.008V248.742C137.281 247.904 137.44 247.156 137.758 246.5C138.081 245.839 138.529 245.323 139.102 244.953C139.68 244.578 140.305 244.391 140.977 244.391C142.076 244.391 142.93 244.753 143.539 245.477C144.148 246.201 144.453 247.237 144.453 248.586V249.188H138.727C138.747 250.021 138.99 250.695 139.453 251.211C139.922 251.721 140.516 251.977 141.234 251.977C141.745 251.977 142.177 251.872 142.531 251.664C142.885 251.456 143.195 251.18 143.461 250.836L144.344 251.523C143.635 252.612 142.573 253.156 141.156 253.156ZM140.977 245.578C140.393 245.578 139.904 245.792 139.508 246.219C139.112 246.641 138.867 247.234 138.773 248H143.008V247.891C142.966 247.156 142.768 246.589 142.414 246.188C142.06 245.781 141.581 245.578 140.977 245.578ZM149.523 251.977C150.039 251.977 150.49 251.82 150.875 251.508C151.26 251.195 151.474 250.805 151.516 250.336H152.883C152.857 250.82 152.69 251.281 152.383 251.719C152.076 252.156 151.664 252.505 151.148 252.766C150.638 253.026 150.096 253.156 149.523 253.156C148.372 253.156 147.456 252.773 146.773 252.008C146.096 251.237 145.758 250.185 145.758 248.852V248.609C145.758 247.786 145.909 247.055 146.211 246.414C146.513 245.773 146.945 245.276 147.508 244.922C148.076 244.568 148.745 244.391 149.516 244.391C150.464 244.391 151.25 244.674 151.875 245.242C152.505 245.81 152.841 246.547 152.883 247.453H151.516C151.474 246.906 151.266 246.458 150.891 246.109C150.521 245.755 150.062 245.578 149.516 245.578C148.781 245.578 148.211 245.844 147.805 246.375C147.404 246.901 147.203 247.664 147.203 248.664V248.938C147.203 249.911 147.404 250.661 147.805 251.188C148.206 251.714 148.779 251.977 149.523 251.977ZM158.016 253.156C156.87 253.156 155.938 252.781 155.219 252.031C154.5 251.276 154.141 250.268 154.141 249.008V248.742C154.141 247.904 154.299 247.156 154.617 246.5C154.94 245.839 155.388 245.323 155.961 244.953C156.539 244.578 157.164 244.391 157.836 244.391C158.935 244.391 159.789 244.753 160.398 245.477C161.008 246.201 161.312 247.237 161.312 248.586V249.188H155.586C155.607 250.021 155.849 250.695 156.312 251.211C156.781 251.721 157.375 251.977 158.094 251.977C158.604 251.977 159.036 251.872 159.391 251.664C159.745 251.456 160.055 251.18 160.32 250.836L161.203 251.523C160.495 252.612 159.432 253.156 158.016 253.156ZM157.836 245.578C157.253 245.578 156.763 245.792 156.367 246.219C155.971 246.641 155.727 247.234 155.633 248H159.867V247.891C159.826 247.156 159.628 246.589 159.273 246.188C158.919 245.781 158.44 245.578 157.836 245.578ZM164.562 253H163.117V244.547H164.562V253ZM163 242.305C163 242.07 163.07 241.872 163.211 241.711C163.357 241.549 163.57 241.469 163.852 241.469C164.133 241.469 164.346 241.549 164.492 241.711C164.638 241.872 164.711 242.07 164.711 242.305C164.711 242.539 164.638 242.734 164.492 242.891C164.346 243.047 164.133 243.125 163.852 243.125C163.57 243.125 163.357 243.047 163.211 242.891C163.07 242.734 163 242.539 163 242.305ZM169.672 251.039L171.766 244.547H173.242L170.211 253H169.109L166.047 244.547H167.523L169.672 251.039ZM178.031 253.156C176.885 253.156 175.953 252.781 175.234 252.031C174.516 251.276 174.156 250.268 174.156 249.008V248.742C174.156 247.904 174.315 247.156 174.633 246.5C174.956 245.839 175.404 245.323 175.977 244.953C176.555 244.578 177.18 244.391 177.852 244.391C178.951 244.391 179.805 244.753 180.414 245.477C181.023 246.201 181.328 247.237 181.328 248.586V249.188H175.602C175.622 250.021 175.865 250.695 176.328 251.211C176.797 251.721 177.391 251.977 178.109 251.977C178.62 251.977 179.052 251.872 179.406 251.664C179.76 251.456 180.07 251.18 180.336 250.836L181.219 251.523C180.51 252.612 179.448 253.156 178.031 253.156ZM177.852 245.578C177.268 245.578 176.779 245.792 176.383 246.219C175.987 246.641 175.742 247.234 175.648 248H179.883V247.891C179.841 247.156 179.643 246.589 179.289 246.188C178.935 245.781 178.456 245.578 177.852 245.578ZM192.195 253C192.112 252.833 192.044 252.536 191.992 252.109C191.32 252.807 190.518 253.156 189.586 253.156C188.753 253.156 188.068 252.922 187.531 252.453C187 251.979 186.734 251.38 186.734 250.656C186.734 249.776 187.068 249.094 187.734 248.609C188.406 248.12 189.349 247.875 190.562 247.875H191.969V247.211C191.969 246.706 191.818 246.305 191.516 246.008C191.214 245.706 190.768 245.555 190.18 245.555C189.664 245.555 189.232 245.685 188.883 245.945C188.534 246.206 188.359 246.521 188.359 246.891H186.906C186.906 246.469 187.055 246.062 187.352 245.672C187.654 245.276 188.06 244.964 188.57 244.734C189.086 244.505 189.651 244.391 190.266 244.391C191.24 244.391 192.003 244.635 192.555 245.125C193.107 245.609 193.393 246.279 193.414 247.133V251.023C193.414 251.799 193.513 252.417 193.711 252.875V253H192.195ZM189.797 251.898C190.25 251.898 190.68 251.781 191.086 251.547C191.492 251.312 191.786 251.008 191.969 250.633V248.898H190.836C189.065 248.898 188.18 249.417 188.18 250.453C188.18 250.906 188.331 251.26 188.633 251.516C188.935 251.771 189.323 251.898 189.797 251.898ZM199.297 248.703C199.297 247.406 199.604 246.365 200.219 245.578C200.833 244.786 201.638 244.391 202.633 244.391C203.622 244.391 204.406 244.729 204.984 245.406V241H206.43V253H205.102L205.031 252.094C204.453 252.802 203.648 253.156 202.617 253.156C201.638 253.156 200.839 252.755 200.219 251.953C199.604 251.151 199.297 250.104 199.297 248.812V248.703ZM200.742 248.867C200.742 249.826 200.94 250.576 201.336 251.117C201.732 251.659 202.279 251.93 202.977 251.93C203.893 251.93 204.562 251.518 204.984 250.695V246.812C204.552 246.016 203.888 245.617 202.992 245.617C202.284 245.617 201.732 245.891 201.336 246.438C200.94 246.984 200.742 247.794 200.742 248.867ZM212.188 253.156C211.042 253.156 210.109 252.781 209.391 252.031C208.672 251.276 208.312 250.268 208.312 249.008V248.742C208.312 247.904 208.471 247.156 208.789 246.5C209.112 245.839 209.56 245.323 210.133 244.953C210.711 244.578 211.336 244.391 212.008 244.391C213.107 244.391 213.961 244.753 214.57 245.477C215.18 246.201 215.484 247.237 215.484 248.586V249.188H209.758C209.779 250.021 210.021 250.695 210.484 251.211C210.953 251.721 211.547 251.977 212.266 251.977C212.776 251.977 213.208 251.872 213.562 251.664C213.917 251.456 214.227 251.18 214.492 250.836L215.375 251.523C214.667 252.612 213.604 253.156 212.188 253.156ZM212.008 245.578C211.424 245.578 210.935 245.792 210.539 246.219C210.143 246.641 209.898 247.234 209.805 248H214.039V247.891C213.997 247.156 213.799 246.589 213.445 246.188C213.091 245.781 212.612 245.578 212.008 245.578ZM218.734 253H217.289V241H218.734V253ZM222.625 253H221.18V244.547H222.625V253ZM221.062 242.305C221.062 242.07 221.133 241.872 221.273 241.711C221.419 241.549 221.633 241.469 221.914 241.469C222.195 241.469 222.409 241.549 222.555 241.711C222.701 241.872 222.773 242.07 222.773 242.305C222.773 242.539 222.701 242.734 222.555 242.891C222.409 243.047 222.195 243.125 221.914 243.125C221.633 243.125 221.419 243.047 221.273 242.891C221.133 242.734 221.062 242.539 221.062 242.305ZM228.336 251.977C228.852 251.977 229.302 251.82 229.688 251.508C230.073 251.195 230.286 250.805 230.328 250.336H231.695C231.669 250.82 231.503 251.281 231.195 251.719C230.888 252.156 230.477 252.505 229.961 252.766C229.451 253.026 228.909 253.156 228.336 253.156C227.185 253.156 226.268 252.773 225.586 252.008C224.909 251.237 224.57 250.185 224.57 248.852V248.609C224.57 247.786 224.721 247.055 225.023 246.414C225.326 245.773 225.758 245.276 226.32 244.922C226.888 244.568 227.557 244.391 228.328 244.391C229.276 244.391 230.062 244.674 230.688 245.242C231.318 245.81 231.654 246.547 231.695 247.453H230.328C230.286 246.906 230.078 246.458 229.703 246.109C229.333 245.755 228.875 245.578 228.328 245.578C227.594 245.578 227.023 245.844 226.617 246.375C226.216 246.901 226.016 247.664 226.016 248.664V248.938C226.016 249.911 226.216 250.661 226.617 251.188C227.018 251.714 227.591 251.977 228.336 251.977ZM234.891 253H233.445V244.547H234.891V253ZM233.328 242.305C233.328 242.07 233.398 241.872 233.539 241.711C233.685 241.549 233.898 241.469 234.18 241.469C234.461 241.469 234.674 241.549 234.82 241.711C234.966 241.872 235.039 242.07 235.039 242.305C235.039 242.539 234.966 242.734 234.82 242.891C234.674 243.047 234.461 243.125 234.18 243.125C233.898 243.125 233.685 243.047 233.539 242.891C233.398 242.734 233.328 242.539 233.328 242.305ZM236.828 248.695C236.828 247.867 236.99 247.122 237.312 246.461C237.641 245.799 238.094 245.289 238.672 244.93C239.255 244.57 239.919 244.391 240.664 244.391C241.815 244.391 242.745 244.789 243.453 245.586C244.167 246.383 244.523 247.443 244.523 248.766V248.867C244.523 249.69 244.365 250.43 244.047 251.086C243.734 251.737 243.284 252.245 242.695 252.609C242.112 252.974 241.44 253.156 240.68 253.156C239.534 253.156 238.604 252.758 237.891 251.961C237.182 251.164 236.828 250.109 236.828 248.797V248.695ZM238.281 248.867C238.281 249.805 238.497 250.557 238.93 251.125C239.367 251.693 239.951 251.977 240.68 251.977C241.414 251.977 241.997 251.69 242.43 251.117C242.862 250.539 243.078 249.732 243.078 248.695C243.078 247.768 242.857 247.018 242.414 246.445C241.977 245.867 241.393 245.578 240.664 245.578C239.951 245.578 239.375 245.862 238.938 246.43C238.5 246.997 238.281 247.81 238.281 248.867ZM251.555 252.164C250.992 252.826 250.167 253.156 249.078 253.156C248.177 253.156 247.49 252.896 247.016 252.375C246.547 251.849 246.31 251.073 246.305 250.047V244.547H247.75V250.008C247.75 251.289 248.271 251.93 249.312 251.93C250.417 251.93 251.151 251.518 251.516 250.695V244.547H252.961V253H251.586L251.555 252.164ZM260.086 250.758C260.086 250.367 259.938 250.065 259.641 249.852C259.349 249.633 258.836 249.445 258.102 249.289C257.372 249.133 256.792 248.945 256.359 248.727C255.932 248.508 255.615 248.247 255.406 247.945C255.203 247.643 255.102 247.284 255.102 246.867C255.102 246.174 255.393 245.589 255.977 245.109C256.565 244.63 257.315 244.391 258.227 244.391C259.185 244.391 259.961 244.638 260.555 245.133C261.154 245.628 261.453 246.26 261.453 247.031H260C260 246.635 259.831 246.294 259.492 246.008C259.159 245.721 258.737 245.578 258.227 245.578C257.701 245.578 257.289 245.693 256.992 245.922C256.695 246.151 256.547 246.451 256.547 246.82C256.547 247.169 256.685 247.432 256.961 247.609C257.237 247.786 257.734 247.956 258.453 248.117C259.177 248.279 259.763 248.471 260.211 248.695C260.659 248.919 260.99 249.19 261.203 249.508C261.422 249.82 261.531 250.203 261.531 250.656C261.531 251.411 261.229 252.018 260.625 252.477C260.021 252.93 259.237 253.156 258.273 253.156C257.596 253.156 256.997 253.036 256.477 252.797C255.956 252.557 255.547 252.224 255.25 251.797C254.958 251.365 254.812 250.898 254.812 250.398H256.258C256.284 250.883 256.477 251.268 256.836 251.555C257.201 251.836 257.68 251.977 258.273 251.977C258.82 251.977 259.258 251.867 259.586 251.648C259.919 251.424 260.086 251.128 260.086 250.758ZM269.344 242.5V244.547H270.922V245.664H269.344V250.906C269.344 251.245 269.414 251.5 269.555 251.672C269.695 251.839 269.935 251.922 270.273 251.922C270.44 251.922 270.669 251.891 270.961 251.828V253C270.581 253.104 270.211 253.156 269.852 253.156C269.206 253.156 268.719 252.961 268.391 252.57C268.062 252.18 267.898 251.625 267.898 250.906V245.664H266.359V244.547H267.898V242.5H269.344ZM276.703 245.844C276.484 245.807 276.247 245.789 275.992 245.789C275.044 245.789 274.401 246.193 274.062 247V253H272.617V244.547H274.023L274.047 245.523C274.521 244.768 275.193 244.391 276.062 244.391C276.344 244.391 276.557 244.427 276.703 244.5V245.844ZM281.391 253.156C280.245 253.156 279.312 252.781 278.594 252.031C277.875 251.276 277.516 250.268 277.516 249.008V248.742C277.516 247.904 277.674 247.156 277.992 246.5C278.315 245.839 278.763 245.323 279.336 244.953C279.914 244.578 280.539 244.391 281.211 244.391C282.31 244.391 283.164 244.753 283.773 245.477C284.383 246.201 284.688 247.237 284.688 248.586V249.188H278.961C278.982 250.021 279.224 250.695 279.688 251.211C280.156 251.721 280.75 251.977 281.469 251.977C281.979 251.977 282.411 251.872 282.766 251.664C283.12 251.456 283.43 251.18 283.695 250.836L284.578 251.523C283.87 252.612 282.807 253.156 281.391 253.156ZM281.211 245.578C280.628 245.578 280.138 245.792 279.742 246.219C279.346 246.641 279.102 247.234 279.008 248H283.242V247.891C283.201 247.156 283.003 246.589 282.648 246.188C282.294 245.781 281.815 245.578 281.211 245.578ZM291.586 253C291.503 252.833 291.435 252.536 291.383 252.109C290.711 252.807 289.909 253.156 288.977 253.156C288.143 253.156 287.458 252.922 286.922 252.453C286.391 251.979 286.125 251.38 286.125 250.656C286.125 249.776 286.458 249.094 287.125 248.609C287.797 248.12 288.74 247.875 289.953 247.875H291.359V247.211C291.359 246.706 291.208 246.305 290.906 246.008C290.604 245.706 290.159 245.555 289.57 245.555C289.055 245.555 288.622 245.685 288.273 245.945C287.924 246.206 287.75 246.521 287.75 246.891H286.297C286.297 246.469 286.445 246.062 286.742 245.672C287.044 245.276 287.451 244.964 287.961 244.734C288.477 244.505 289.042 244.391 289.656 244.391C290.63 244.391 291.393 244.635 291.945 245.125C292.497 245.609 292.784 246.279 292.805 247.133V251.023C292.805 251.799 292.904 252.417 293.102 252.875V253H291.586ZM289.188 251.898C289.641 251.898 290.07 251.781 290.477 251.547C290.883 251.312 291.177 251.008 291.359 250.633V248.898H290.227C288.456 248.898 287.57 249.417 287.57 250.453C287.57 250.906 287.721 251.26 288.023 251.516C288.326 251.771 288.714 251.898 289.188 251.898ZM297.031 242.5V244.547H298.609V245.664H297.031V250.906C297.031 251.245 297.102 251.5 297.242 251.672C297.383 251.839 297.622 251.922 297.961 251.922C298.128 251.922 298.357 251.891 298.648 251.828V253C298.268 253.104 297.898 253.156 297.539 253.156C296.893 253.156 296.406 252.961 296.078 252.57C295.75 252.18 295.586 251.625 295.586 250.906V245.664H294.047V244.547H295.586V242.5H297.031ZM87.5234 267.703C87.5234 266.406 87.8307 265.365 88.4453 264.578C89.0599 263.786 89.8646 263.391 90.8594 263.391C91.849 263.391 92.6328 263.729 93.2109 264.406V260H94.6562V272H93.3281L93.2578 271.094C92.6797 271.802 91.875 272.156 90.8438 272.156C89.8646 272.156 89.0651 271.755 88.4453 270.953C87.8307 270.151 87.5234 269.104 87.5234 267.812V267.703ZM88.9688 267.867C88.9688 268.826 89.1667 269.576 89.5625 270.117C89.9583 270.659 90.5052 270.93 91.2031 270.93C92.1198 270.93 92.7891 270.518 93.2109 269.695V265.812C92.7786 265.016 92.1146 264.617 91.2188 264.617C90.5104 264.617 89.9583 264.891 89.5625 265.438C89.1667 265.984 88.9688 266.794 88.9688 267.867ZM102.125 271.164C101.562 271.826 100.737 272.156 99.6484 272.156C98.7474 272.156 98.0599 271.896 97.5859 271.375C97.1172 270.849 96.8802 270.073 96.875 269.047V263.547H98.3203V269.008C98.3203 270.289 98.8411 270.93 99.8828 270.93C100.987 270.93 101.721 270.518 102.086 269.695V263.547H103.531V272H102.156L102.125 271.164ZM109.82 264.844C109.602 264.807 109.365 264.789 109.109 264.789C108.161 264.789 107.518 265.193 107.18 266V272H105.734V263.547H107.141L107.164 264.523C107.638 263.768 108.31 263.391 109.18 263.391C109.461 263.391 109.674 263.427 109.82 263.5V264.844ZM112.727 272H111.281V263.547H112.727V272ZM111.164 261.305C111.164 261.07 111.234 260.872 111.375 260.711C111.521 260.549 111.734 260.469 112.016 260.469C112.297 260.469 112.51 260.549 112.656 260.711C112.802 260.872 112.875 261.07 112.875 261.305C112.875 261.539 112.802 261.734 112.656 261.891C112.51 262.047 112.297 262.125 112.016 262.125C111.734 262.125 111.521 262.047 111.375 261.891C111.234 261.734 111.164 261.539 111.164 261.305ZM116.414 263.547L116.461 264.609C117.107 263.797 117.951 263.391 118.992 263.391C120.779 263.391 121.68 264.398 121.695 266.414V272H120.25V266.406C120.245 265.797 120.104 265.346 119.828 265.055C119.557 264.763 119.133 264.617 118.555 264.617C118.086 264.617 117.674 264.742 117.32 264.992C116.966 265.242 116.69 265.57 116.492 265.977V272H115.047V263.547H116.414ZM123.531 267.703C123.531 266.385 123.836 265.339 124.445 264.562C125.055 263.781 125.862 263.391 126.867 263.391C127.898 263.391 128.703 263.755 129.281 264.484L129.352 263.547H130.672V271.797C130.672 272.891 130.346 273.753 129.695 274.383C129.049 275.013 128.18 275.328 127.086 275.328C126.477 275.328 125.88 275.198 125.297 274.938C124.714 274.677 124.268 274.32 123.961 273.867L124.711 273C125.331 273.766 126.089 274.148 126.984 274.148C127.688 274.148 128.234 273.951 128.625 273.555C129.021 273.159 129.219 272.602 129.219 271.883V271.156C128.641 271.823 127.852 272.156 126.852 272.156C125.862 272.156 125.06 271.758 124.445 270.961C123.836 270.164 123.531 269.078 123.531 267.703ZM124.984 267.867C124.984 268.82 125.18 269.57 125.57 270.117C125.961 270.659 126.508 270.93 127.211 270.93C128.122 270.93 128.792 270.516 129.219 269.688V265.828C128.776 265.021 128.112 264.617 127.227 264.617C126.523 264.617 125.974 264.891 125.578 265.438C125.182 265.984 124.984 266.794 124.984 267.867ZM137.539 272V264.664H136.203V263.547H137.539V262.68C137.539 261.773 137.781 261.073 138.266 260.578C138.75 260.083 139.435 259.836 140.32 259.836C140.654 259.836 140.984 259.88 141.312 259.969L141.234 261.141C140.99 261.094 140.729 261.07 140.453 261.07C139.984 261.07 139.622 261.208 139.367 261.484C139.112 261.755 138.984 262.146 138.984 262.656V263.547H140.789V264.664H138.984V272H137.539ZM145.711 272.156C144.565 272.156 143.633 271.781 142.914 271.031C142.195 270.276 141.836 269.268 141.836 268.008V267.742C141.836 266.904 141.995 266.156 142.312 265.5C142.635 264.839 143.083 264.323 143.656 263.953C144.234 263.578 144.859 263.391 145.531 263.391C146.63 263.391 147.484 263.753 148.094 264.477C148.703 265.201 149.008 266.237 149.008 267.586V268.188H143.281C143.302 269.021 143.544 269.695 144.008 270.211C144.477 270.721 145.07 270.977 145.789 270.977C146.299 270.977 146.732 270.872 147.086 270.664C147.44 270.456 147.75 270.18 148.016 269.836L148.898 270.523C148.19 271.612 147.128 272.156 145.711 272.156ZM145.531 264.578C144.948 264.578 144.458 264.792 144.062 265.219C143.667 265.641 143.422 266.234 143.328 267H147.562V266.891C147.521 266.156 147.323 265.589 146.969 265.188C146.615 264.781 146.135 264.578 145.531 264.578ZM154.195 272.156C153.049 272.156 152.117 271.781 151.398 271.031C150.68 270.276 150.32 269.268 150.32 268.008V267.742C150.32 266.904 150.479 266.156 150.797 265.5C151.12 264.839 151.568 264.323 152.141 263.953C152.719 263.578 153.344 263.391 154.016 263.391C155.115 263.391 155.969 263.753 156.578 264.477C157.188 265.201 157.492 266.237 157.492 267.586V268.188H151.766C151.786 269.021 152.029 269.695 152.492 270.211C152.961 270.721 153.555 270.977 154.273 270.977C154.784 270.977 155.216 270.872 155.57 270.664C155.924 270.456 156.234 270.18 156.5 269.836L157.383 270.523C156.674 271.612 155.612 272.156 154.195 272.156ZM154.016 264.578C153.432 264.578 152.943 264.792 152.547 265.219C152.151 265.641 151.906 266.234 151.812 267H156.047V266.891C156.005 266.156 155.807 265.589 155.453 265.188C155.099 264.781 154.62 264.578 154.016 264.578ZM158.82 267.703C158.82 266.406 159.128 265.365 159.742 264.578C160.357 263.786 161.161 263.391 162.156 263.391C163.146 263.391 163.93 263.729 164.508 264.406V260H165.953V272H164.625L164.555 271.094C163.977 271.802 163.172 272.156 162.141 272.156C161.161 272.156 160.362 271.755 159.742 270.953C159.128 270.151 158.82 269.104 158.82 267.812V267.703ZM160.266 267.867C160.266 268.826 160.464 269.576 160.859 270.117C161.255 270.659 161.802 270.93 162.5 270.93C163.417 270.93 164.086 270.518 164.508 269.695V265.812C164.076 265.016 163.411 264.617 162.516 264.617C161.807 264.617 161.255 264.891 160.859 265.438C160.464 265.984 160.266 266.794 160.266 267.867ZM169.773 272H168.328V263.547H169.773V272ZM168.211 261.305C168.211 261.07 168.281 260.872 168.422 260.711C168.568 260.549 168.781 260.469 169.062 260.469C169.344 260.469 169.557 260.549 169.703 260.711C169.849 260.872 169.922 261.07 169.922 261.305C169.922 261.539 169.849 261.734 169.703 261.891C169.557 262.047 169.344 262.125 169.062 262.125C168.781 262.125 168.568 262.047 168.422 261.891C168.281 261.734 168.211 261.539 168.211 261.305ZM173.461 263.547L173.508 264.609C174.154 263.797 174.997 263.391 176.039 263.391C177.826 263.391 178.727 264.398 178.742 266.414V272H177.297V266.406C177.292 265.797 177.151 265.346 176.875 265.055C176.604 264.763 176.18 264.617 175.602 264.617C175.133 264.617 174.721 264.742 174.367 264.992C174.013 265.242 173.737 265.57 173.539 265.977V272H172.094V263.547H173.461ZM180.578 267.703C180.578 266.385 180.883 265.339 181.492 264.562C182.102 263.781 182.909 263.391 183.914 263.391C184.945 263.391 185.75 263.755 186.328 264.484L186.398 263.547H187.719V271.797C187.719 272.891 187.393 273.753 186.742 274.383C186.096 275.013 185.227 275.328 184.133 275.328C183.523 275.328 182.927 275.198 182.344 274.938C181.76 274.677 181.315 274.32 181.008 273.867L181.758 273C182.378 273.766 183.135 274.148 184.031 274.148C184.734 274.148 185.281 273.951 185.672 273.555C186.068 273.159 186.266 272.602 186.266 271.883V271.156C185.688 271.823 184.898 272.156 183.898 272.156C182.909 272.156 182.107 271.758 181.492 270.961C180.883 270.164 180.578 269.078 180.578 267.703ZM182.031 267.867C182.031 268.82 182.227 269.57 182.617 270.117C183.008 270.659 183.555 270.93 184.258 270.93C185.169 270.93 185.839 270.516 186.266 269.688V265.828C185.823 265.021 185.159 264.617 184.273 264.617C183.57 264.617 183.021 264.891 182.625 265.438C182.229 265.984 182.031 266.794 182.031 267.867ZM195.32 264.57C195.961 263.784 196.794 263.391 197.82 263.391C199.607 263.391 200.508 264.398 200.523 266.414V272H199.078V266.406C199.073 265.797 198.932 265.346 198.656 265.055C198.385 264.763 197.961 264.617 197.383 264.617C196.914 264.617 196.503 264.742 196.148 264.992C195.794 265.242 195.518 265.57 195.32 265.977V272H193.875V260H195.32V264.57ZM202.305 267.695C202.305 266.867 202.466 266.122 202.789 265.461C203.117 264.799 203.57 264.289 204.148 263.93C204.732 263.57 205.396 263.391 206.141 263.391C207.292 263.391 208.221 263.789 208.93 264.586C209.643 265.383 210 266.443 210 267.766V267.867C210 268.69 209.841 269.43 209.523 270.086C209.211 270.737 208.76 271.245 208.172 271.609C207.589 271.974 206.917 272.156 206.156 272.156C205.01 272.156 204.081 271.758 203.367 270.961C202.659 270.164 202.305 269.109 202.305 267.797V267.695ZM203.758 267.867C203.758 268.805 203.974 269.557 204.406 270.125C204.844 270.693 205.427 270.977 206.156 270.977C206.891 270.977 207.474 270.69 207.906 270.117C208.339 269.539 208.555 268.732 208.555 267.695C208.555 266.768 208.333 266.018 207.891 265.445C207.453 264.867 206.87 264.578 206.141 264.578C205.427 264.578 204.852 264.862 204.414 265.43C203.977 265.997 203.758 266.81 203.758 267.867ZM217.031 271.164C216.469 271.826 215.643 272.156 214.555 272.156C213.654 272.156 212.966 271.896 212.492 271.375C212.023 270.849 211.786 270.073 211.781 269.047V263.547H213.227V269.008C213.227 270.289 213.747 270.93 214.789 270.93C215.893 270.93 216.628 270.518 216.992 269.695V263.547H218.438V272H217.062L217.031 271.164ZM224.727 264.844C224.508 264.807 224.271 264.789 224.016 264.789C223.068 264.789 222.424 265.193 222.086 266V272H220.641V263.547H222.047L222.07 264.523C222.544 263.768 223.216 263.391 224.086 263.391C224.367 263.391 224.581 263.427 224.727 263.5V264.844ZM230.984 269.758C230.984 269.367 230.836 269.065 230.539 268.852C230.247 268.633 229.734 268.445 229 268.289C228.271 268.133 227.69 267.945 227.258 267.727C226.831 267.508 226.513 267.247 226.305 266.945C226.102 266.643 226 266.284 226 265.867C226 265.174 226.292 264.589 226.875 264.109C227.464 263.63 228.214 263.391 229.125 263.391C230.083 263.391 230.859 263.638 231.453 264.133C232.052 264.628 232.352 265.26 232.352 266.031H230.898C230.898 265.635 230.729 265.294 230.391 265.008C230.057 264.721 229.635 264.578 229.125 264.578C228.599 264.578 228.188 264.693 227.891 264.922C227.594 265.151 227.445 265.451 227.445 265.82C227.445 266.169 227.583 266.432 227.859 266.609C228.135 266.786 228.633 266.956 229.352 267.117C230.076 267.279 230.661 267.471 231.109 267.695C231.557 267.919 231.888 268.19 232.102 268.508C232.32 268.82 232.43 269.203 232.43 269.656C232.43 270.411 232.128 271.018 231.523 271.477C230.919 271.93 230.135 272.156 229.172 272.156C228.495 272.156 227.896 272.036 227.375 271.797C226.854 271.557 226.445 271.224 226.148 270.797C225.857 270.365 225.711 269.898 225.711 269.398H227.156C227.182 269.883 227.375 270.268 227.734 270.555C228.099 270.836 228.578 270.977 229.172 270.977C229.719 270.977 230.156 270.867 230.484 270.648C230.818 270.424 230.984 270.128 230.984 269.758Z" fill="black"/>
<path d="M232.149 56.7645C233.26 56.5241 234.343 54.6287 236.137 57.998L236.137 57.9978C237.146 57.6012 238.154 57.2045 239.175 56.8361C240.483 56.3453 244.107 56.9339 245.379 57.8251C247.73 59.4895 247.646 59.4589 248.412 63.4327C248.732 65.063 249.481 66.7774 250 68.4562C250.315 69.4886 251.022 71.1876 250.81 71.4446C250.293 72.0317 249.622 72.3843 250.48 73.6853C251.79 75.6272 251.143 72.6027 251.553 73.0614C252.165 73.7543 252.671 74.8498 253.129 75.8421L253.148 75.8818C253.671 77.0255 255.818 74.7769 255.217 78.4333C255.129 78.9377 256.774 80.7033 257.517 81.9866C258.402 83.4762 258.628 85.3466 260.15 86.5312C260.762 87.0037 259.858 89.8227 258.696 89.6512C256.575 89.3221 256.406 92.5275 254.652 92.8085C254.565 92.8125 254.489 93.1783 254.537 93.2911C257.305 98.445 252.62 96.7083 252.944 99.6037C250.594 98.9054 249.716 100.947 248.786 102.91C246.325 101.492 246.812 104.351 246.502 106.051C246.474 106.196 246.625 106.465 246.694 106.669C247.057 107.814 248.322 109.442 246.909 109.644C246.526 109.707 245.707 108.289 245.065 107.83C244.778 107.618 244.217 107.891 244.095 108.276C243.573 109.899 246.397 110.495 245.685 112.299C246.017 112.491 246.538 113.002 246.665 112.881C247.702 111.673 249.978 113.536 250.64 111.32C250.708 111.104 251.227 113.587 251.659 115.11C251.864 115.064 252.067 115.081 252.257 115.198C252.278 116.895 251.995 116.292 251.659 115.11C251.209 115.21 250.749 115.613 250.392 115.926L250.39 115.927C249.411 116.811 250.026 119.216 251.488 120.426C251.934 120.803 252.419 121.23 252.865 121.439C254.627 122.222 254.298 123.462 254.07 124.726L254.061 124.776C254.004 125.092 253.936 125.47 254.002 125.822L254.036 126.005C254.347 127.679 254.355 127.725 253.95 127.544C253.643 127.408 253.318 126.98 253.046 126.929C251.507 126.752 249.845 126.16 248.648 127.204C248.382 127.417 247.854 127.142 247.45 127.115C247.468 126.74 247.514 126.387 247.503 126.025C247.385 124.576 248.615 123.484 247.35 121.857C245.435 119.373 246.043 123.647 244.616 123.022C244.086 122.782 243.587 123.328 243.112 123.597C241.952 124.225 239.013 124.111 237.707 123.434C237.303 123.24 236.76 123.138 236.518 123.408C235.94 124.021 236.899 126.479 235.463 126.124C233.9 125.724 234.518 127.76 234.429 128.765C234.25 130.941 235.143 129.561 235.64 129.849C236.569 130.353 237.24 131.8 236.644 132.288C235.39 133.322 235.784 134.121 237.225 135.407C237.372 135.544 237.543 136.405 237.425 136.589C236.674 138.009 235.818 139.307 235.067 140.728C234.982 140.864 235.294 141.764 235.523 141.966C237.383 143.774 237.557 144.1 237.217 145.478C237.174 145.63 237.129 145.816 237.035 145.889C236.521 146.275 235.51 146.539 237.192 147.555C237.798 147.931 238.761 148.054 238.976 147.595C239.261 147.007 238.967 145.732 238.923 144.751C238.9 144.361 238.891 143.964 238.868 143.574C239.133 143.861 239.462 144.088 239.663 144.435C239.988 145.03 240.235 145.692 240.496 146.347C241.461 148.736 242.721 149.766 243.96 148.904C245.123 148.075 246.553 148.499 247.996 148.784C248.252 148.841 248.535 149.087 248.813 149.236C248.701 149.517 248.645 149.974 248.449 150.057C247.712 150.338 246.911 151.013 246.136 150.577C244.876 149.88 244.803 150.212 245.455 151.7C246.084 153.133 246.534 154.274 245.318 154.559C245.215 154.57 245.409 155.82 245.674 156.274C245.903 156.643 246.533 156.908 246.832 156.814C248.01 156.479 249.058 155.798 250.281 155.61C250.71 155.528 251.472 156.436 252.099 156.902C251.878 157.263 251.72 157.73 251.424 157.957C250.094 158.857 248.729 159.672 247.387 160.544C247.218 160.65 247.009 161.039 246.97 160.989C244.653 158.276 243.995 160.457 242.84 161.516C242.175 162.133 240.6 161.37 240.14 162.133C239.126 163.899 238.422 166.099 237.884 168.396C237.562 169.733 236.275 170.315 237.173 172.799C237.429 173.523 237.232 174.108 238.039 174.663C238.368 174.89 238.955 175.973 238.903 176.229C238.684 177.222 237.989 177.852 237.969 178.894C237.942 180.672 237.203 179.987 236.326 179.727C235.885 179.615 235.783 181.259 235.254 181.484C233.925 182.051 232.524 182.615 230.997 182.466C229.901 182.366 229.056 182.226 228.74 183.661C228.627 184.109 228.11 184.696 228.017 184.603C225.631 182.02 225.924 185.595 224.906 186.096C223.634 186.671 222.873 188.696 221.521 188.705C220.138 188.728 219.514 189.861 218.445 190.283C217.047 190.813 215.669 191.433 214.295 192.019C213.042 192.553 211.836 193.2 210.523 193.594C209.297 193.983 207.268 192.448 207.016 195.122C205.53 193.689 205.133 196.525 203.638 195.028C202.967 197.348 201.012 197.281 199.64 198.333C197.071 200.262 193.592 199.511 190.678 200.42C189.705 200.734 188.11 199.881 186.868 198.977C185.502 197.992 185.293 200.182 184.076 199.167C182.713 201.581 180.988 202.85 177.904 200.431C177.66 200.235 177.28 201.898 176.824 201.792C175.557 201.498 174.221 200.835 172.918 200.123C171.561 199.368 167.703 198.313 166.625 198.672C165.622 199 164.776 199.527 163.374 198.625C162.439 198.023 161.178 197.827 160.58 198.349C159.588 199.205 159.015 200.749 157.659 201.127C157.375 201.215 156.201 202.982 158.324 204.278C158.202 204.663 158.162 205.28 157.908 205.355C155.897 206.079 154.969 208.508 153.635 210.277C153.339 210.67 153.159 211.713 152.921 211.615C151.95 211.095 149.56 211.421 150 213.5L146.579 214.5C145.892 214.85 146.186 215.968 145.5 216.309C142.869 217.616 139.546 217.879 139.821 216.932C139.35 217 138.542 216.778 138.459 217.213C138.116 218.626 137.924 219.808 136.425 217.38C136.145 216.933 135.414 216.977 134.908 216.793C134.443 216.625 133.991 216.484 133.541 216.309C133.813 216.026 134.278 215.861 134.333 215.404C134.514 214.027 132.075 210.734 130.885 211.041C129.176 211.469 127.44 209.909 125.724 209.274C124.149 208.678 122.66 209.08 120.982 207.362C120.036 206.398 119.926 206.978 119.56 207.835C119.284 208.485 118.065 207.972 117.362 208.205C115.368 208.888 113.57 204.754 111.617 204.82C110.182 202.331 107.577 200.408 108.136 196.903C108.148 196.764 107.256 195.845 106.759 195.39C106.289 194.957 105.767 194.612 105.273 194.29C104.426 193.684 103.467 192.693 102.758 192.662C101.774 192.614 100.961 193.261 100.133 193.747C100.01 193.833 100.081 194.503 100.207 194.883C101.054 197.455 100.28 198.319 99.0051 198.762C98.7968 198.817 98.7808 199.324 98.6536 199.612C99.0669 199.702 99.4713 199.73 99.8936 199.883C100.162 199.969 100.433 200.186 100.708 200.37C100.581 200.657 100.52 201.016 100.329 201.198C99.1804 202.187 97.5592 200.645 96.1922 200.494C95.7184 200.43 95.3464 200.855 94.9205 201.07C95.3243 201.431 96.0238 201.9 96.0596 202.151C96.1488 202.946 95.9846 203.65 95.932 204.406C95.5975 204.081 95.2661 203.723 94.9285 203.433C94.5518 203.094 94.127 202.641 93.771 202.56C93.2581 202.445 92.8676 203.078 92.6923 201.453C92.4991 199.702 93.066 196.426 90.1904 197.719C89.8431 197.867 88.8393 197.061 88.4179 196.408C87.1205 194.327 85.7107 192.695 84.0769 191.458C83.8447 191.29 83.5111 190.465 83.5388 190.154C83.6345 188.913 83.1406 188.257 82.2786 187.491C80.9978 186.37 79.6735 185.901 78.4242 183.933C77.4941 182.463 75.6533 182.247 74.9936 179.695C74.9276 179.457 74.3489 178.937 74.213 178.994C73.1799 179.502 71.6605 178.449 71.418 177.252C71.008 175.16 70.1853 172.644 71.2142 171.039C71.65 170.386 71.6883 169.136 71.8108 168.084C71.8293 167.876 71.4288 167.314 71.1788 167.02C71.1125 166.948 70.759 167.166 70.7405 167.374C70.5959 169.002 69.758 168.293 68.7867 167.94C67.2664 167.388 67.5014 164.087 65.9014 164.269C63.9814 164.454 64.1096 161.866 63.3391 160.561C62.9479 159.895 62.8589 158.932 62.6551 158.119C63.1249 158.719 63.5766 159.36 64.0646 159.919C64.17 160.04 64.5658 159.838 64.563 159.706C64.4738 158.911 65.4619 158.256 64.0149 157.206C63.632 156.936 63.0615 155.179 63.0766 155.173C64.847 154.218 65.1443 153.325 62.3252 151.526C61.2247 150.828 61.2885 148.801 62.3792 148.136C63.4549 147.478 63.4247 147.49 62.4651 145.533C62.1192 144.847 61.8309 144.003 61.7053 143.29C61.2956 141.031 61.4078 138.949 60.259 136.506C59.856 135.644 59.9503 133.437 60.3217 133.345C61.8856 133.079 61.6446 131.048 62.0636 129.602C62.27 128.914 63.4505 128.711 62.4806 127.524C61.577 126.41 60.549 123.914 59.4764 124.538C57.5458 125.661 57.0038 123.092 56.4694 121.42C56.0161 119.979 56.3612 117.565 55.9454 117.176C54.3633 115.683 55.9832 114.46 54.8351 113.315C55.1987 112.494 55.352 111.095 55.962 110.935C56.8981 110.703 58.1437 111.238 59.2599 111.596C59.3866 111.642 59.8251 112.922 59.749 113.288C59.6363 113.902 59.2101 114.284 58.9195 114.775C59.4567 114.779 60.0902 115.009 60.5161 114.794C61.3107 114.355 61.9939 113.697 62.6772 113.039C63.0128 112.696 62.717 110.956 62.1814 109.951C61.2096 108.131 60.8958 106.265 61.7032 105.354C63.1307 103.679 65.0219 102.673 65.1573 99.3478C68.4019 97.6647 69.1311 93.0535 70.1134 88.7011C70.2532 88.1081 70.7759 87.7853 71.2441 87.5857C72.7303 86.8855 74.2495 86.3046 75.7477 85.6326C76.2039 85.4048 76.5879 85.0077 77.011 84.6607C76.6075 84.1326 75.8482 83.3562 75.8577 83.0855C75.9229 82.0243 75.7383 80.5028 76.9664 80.7461C77.609 80.8721 78.2579 80.9289 78.9067 80.9857C78.5032 80.4576 78.0725 79.9078 77.7173 79.3258C77.6661 79.2477 77.9055 78.6789 78.1019 78.5952C79.1803 78.0688 80.4453 77.8963 80.3586 75.5997C80.3416 74.9736 80.8525 74.4557 81.2785 74.2408C82.2965 73.7402 83.2457 72.8688 84.7711 74.0188C84.7113 71.9107 86.1594 72.2935 87.0356 71.7533C87.3589 71.5488 87.7938 71.3968 88.201 71.5565C89.0034 71.8479 90.1665 72.9855 90.5595 72.6513C91.8592 71.5973 93.135 70.32 93.9168 68.5533C94.4834 67.245 94.3086 67.0861 95.4435 68.8692C97.5357 72.1444 99.7278 71.6766 101.802 71.5593C102.372 71.5161 102.985 71.6551 103.588 71.7311C102.544 68.1093 103.994 68.9578 105.669 69.4108C106.875 69.7298 107.973 68.8287 108.949 68.1459C109.242 67.9543 108.927 66.5883 108.883 65.7736C109.561 66.4847 110.275 67.1136 110.932 67.9004C112.285 69.5241 112.769 68.4841 113.353 67.6351C114.322 66.2222 114.152 62.7274 116.998 64.7145C117.095 64.7733 117.376 64.2199 117.325 64.1417C115.758 61.0095 118.315 62.3196 118.456 61.0594C118.545 60.2214 116.914 57.3163 119.383 59.2976C119.476 59.3911 119.794 56.9554 120.321 56.0975C120.845 55.2742 122.006 55.6125 122.332 54.0736C122.536 53.0866 123.873 53.0833 124.682 52.6382C125.477 52.1995 125.529 51.9441 124.875 51.2894C124.408 50.6549 123.391 50.3216 123.379 50.4602C123.185 52.643 121.424 51.8604 120.526 52.6431C120.354 52.7832 119.995 52.5695 119.696 52.4968C119.685 51.9682 119.508 51.1768 119.705 50.9263C120.682 49.5763 121.777 48.3763 122.817 47.1327C123.579 46.2411 122.49 46.0721 122.219 45.5208C121.949 44.9694 121.896 43.9251 122.093 43.5078C122.59 42.3292 122.853 44.1174 123.211 44.3311C123.721 44.6473 124.366 44.9055 124.774 44.7317C126.683 44.018 128.547 43.1568 130.447 42.3803C131.066 42.1164 131.676 41.7895 132.34 41.6731C133.047 41.5719 133.988 43.4041 134.019 44.6909C134.036 45.3171 134.185 46.4203 134.415 46.6227C134.939 47.0992 135.941 48.572 135.957 46.5986C135.952 46.1674 136.453 45.9203 136.8 45.7723C138.504 45.0794 140 43.7749 142.295 44.9301C143.102 42.5526 144.417 41.3253 146.917 42.7932C146.875 39.0108 149.763 42.6466 150.942 41.4772C152.04 40.4093 153.455 39.2062 155.514 40.3952C155.638 40.4758 155.861 40.5807 155.879 40.5396C156.475 37.9187 158.166 37.5312 160.08 37.2486C161.994 36.9661 163.692 36.0089 165.348 35.0364C166.451 34.3997 167.271 33.1834 168.289 32.3491C169.226 31.6164 170.208 31.1979 170.958 29.9445C171.9 28.3431 173.932 27.8768 175.725 27.8126C176.745 27.7777 178.339 29.2983 179.535 30.5553C181.897 33.082 184.108 34.3733 186.288 33.7105C186.512 33.6486 186.579 33.22 186.73 32.9888C186.501 32.7864 186.164 32.3301 186.028 32.3881C184.415 33.0423 184.659 31.6049 184.938 30.5857C185.093 29.9862 185.55 29.5917 185.991 29.3703C187.329 28.6998 188.706 28.0793 190.129 27.6063C191.086 27.2982 191.386 26.7037 190.637 24.9893C190.565 24.8201 191.052 24.2458 191.372 24.076C191.523 24.0116 191.954 24.3946 192.174 24.7009C192.406 25.0355 192.52 25.5537 192.745 25.9575C193.257 26.9062 193.814 27.8356 194.355 28.7714C194.688 28.1294 195.13 27.5745 195.331 26.7889C195.616 25.7004 195.017 24.9225 194.14 24.1629C192.964 23.1639 192.574 21.9969 193.707 21.514C194.401 21.2179 195.247 21.191 196.067 21.2744C196.426 21.3213 196.896 21.9211 197.342 22.2977C197.094 22.6368 196.822 22.9195 196.586 23.2868C196.317 23.7016 196.059 24.1447 195.805 24.5531C196.27 24.8885 196.725 25.328 197.183 25.5659C197.572 25.7668 202.431 24.062 202.83 23.9921C203.696 23.8895 204.764 24.301 205.48 23.9292C206.241 23.538 206.6 22.2852 207.337 21.8375C207.645 21.6395 208.528 22.4965 209.088 23.0577C209.221 23.2012 209.129 24.0738 209.125 24.6089C209.122 24.8103 209.103 25.0182 209.046 25.1761C208.691 26.2275 208.254 27.2136 208.02 28.3802C207.965 28.6703 211.996 29.5855 211.994 28.7862C211.964 25.3655 214.145 27.8027 215.286 27.7163C215.929 27.6755 217.518 28.5983 216.962 30.602C218.778 31.4282 219.75 35.0476 221.642 35.3411L221.65 35.3425C222.432 35.4725 222.773 35.5292 222.545 36.6229C222.192 38.3068 222.188 40.8088 221.266 41.3683C220.194 41.9922 219.906 44.4151 217.862 43.2198C217.129 42.7987 216.183 43.4686 215.66 44.1251C215.118 44.8226 213.46 45.6629 216.079 47.5798C216.312 47.7475 216.666 48.4963 216.645 48.7388C216.344 51.9675 217.236 52.7206 219.082 51.7338C219.157 51.7016 219.56 52.3964 219.792 52.7309C217.981 54.9701 220.988 57.5882 221.531 59.9906C221.561 60.1445 222.499 60.3779 223.015 60.6248C224.357 61.2194 225.215 62.1868 225.052 64.19C224.987 64.9176 225.001 65.7452 225.193 66.5301C225.319 67.0765 225.822 67.6288 226.153 68.1543C227.292 65.9688 231.209 73.0661 231.409 67.7141C232.596 68.9081 233.472 68.5348 234.236 67.9421C234.581 67.6619 234.688 66.9496 234.906 66.4566C234.402 66.0711 233.812 65.356 233.447 65.3784C231.953 65.5154 230.417 65.3034 228.768 63.906C228.403 63.5948 228.079 62.8331 227.88 62.2842C227.799 62.0521 228.171 61.4601 228.211 61.51C230.034 63.2331 229.934 59.7753 231.454 60.6609C231.743 60.8376 232.039 60.6113 232.335 60.5518C232.022 59.9852 231.731 59.176 231.402 58.9494C230.866 58.6114 230.31 58.6482 229.755 58.5182C230.124 58.1275 230.442 57.6587 230.85 57.3181C231.176 57.079 231.59 57.0027 232.149 56.7645Z" fill="#FFE68E"/>
<path d="M219.789 66.355C219.748 71.5073 216.979 75.9989 212.868 78.4733C210.694 79.7828 208.143 80.526 205.42 80.5024C197.551 80.4375 191.222 73.9964 191.287 66.1162C191.307 63.5887 191.985 61.2205 193.155 59.1708C195.629 54.8325 200.311 51.9246 205.659 51.9718C213.528 52.0366 219.857 58.4748 219.789 66.355Z" fill="#585E60"/>
<path d="M212.868 78.472C210.694 79.7814 208.143 80.5246 205.42 80.501C197.551 80.4362 191.222 73.9951 191.287 66.1148C191.307 63.5873 191.985 61.2191 193.155 59.1694C201.054 64.0772 207.798 70.6831 212.868 78.472Z" fill="#414749"/>
<path d="M128.713 65.5967C128.648 73.474 122.213 79.8089 114.341 79.7441C111.851 79.7234 109.517 79.0657 107.49 77.9273C103.109 75.4618 100.163 70.746 100.21 65.3608C100.275 57.4805 106.707 51.1456 114.579 51.2134C120.068 51.2577 124.809 54.4074 127.151 58.9816C128.168 60.9638 128.733 63.2138 128.713 65.5967Z" fill="#585E60"/>
<path d="M127.151 58.9814C128.168 60.9633 128.733 63.2136 128.713 65.5965C128.648 73.4738 122.213 79.8087 114.341 79.7439C111.851 79.7232 109.517 79.0655 107.49 77.9272C112.585 70.2737 119.305 63.7946 127.151 58.9814Z" fill="#414749"/>
<path d="M218.64 112.845C218.64 142.386 196.837 166.83 168.462 170.938C165.698 171.336 162.873 171.543 160 171.543C147.483 171.543 135.883 167.618 126.361 160.929C111.243 150.312 101.36 132.732 101.36 112.845C101.36 80.4287 127.615 54.1475 160 54.1475C192.385 54.1475 218.64 80.4287 218.64 112.845Z" fill="#F9E8D4"/>
<path d="M177.452 157.711L168.462 170.937C165.698 171.336 162.873 171.543 160 171.543C147.483 171.543 135.883 167.617 126.36 160.929C124.653 156.946 123.627 153.291 123.028 150.634C122.618 148.822 123.047 146.958 124.195 145.517C125.343 144.082 127.117 143.225 128.946 143.225C130.23 143.225 131.463 143.629 132.512 144.395C136.381 147.217 141.918 151.987 146.326 158.7C146.502 158.971 146.681 159.244 146.86 159.521L166.867 148.008L177.452 157.711Z" fill="#EFCDB1"/>
<path d="M218.64 112.845C218.64 145.261 192.385 171.542 160 171.542C159 171.542 158.007 171.518 157.023 171.47C188.023 169.913 212.683 144.261 212.683 112.845C212.683 81.4285 188.023 55.7769 157.023 54.2203C158.007 54.1716 159 54.1475 160 54.1475C192.385 54.1472 218.64 80.4284 218.64 112.845Z" fill="#EFCDB1"/>
<path d="M173.683 101.571C173.683 101.571 162.554 105.453 167.009 119.769C171.464 134.085 181.631 143.933 191.108 139.009C200.585 134.085 198.335 114.429 191.955 105.776C185.574 97.1226 173.683 101.571 173.683 101.571Z" fill="#585E60"/>
<path d="M146.316 101.571C146.316 101.571 157.445 105.453 152.99 119.769C148.536 134.085 138.368 143.933 128.892 139.009C119.415 134.085 121.665 114.429 128.045 105.776C134.426 97.1226 146.316 101.571 146.316 101.571Z" fill="#585E60"/>
<path d="M160 141.084C163.474 141.084 166.29 138.265 166.29 134.787C166.29 131.31 163.474 128.491 160 128.491C156.526 128.491 153.71 131.31 153.71 134.787C153.71 138.265 156.526 141.084 160 141.084Z" fill="#8B5016"/>
<path d="M127.472 149.63C127.166 148.27 128.704 147.26 129.83 148.081C133.09 150.458 138.381 154.905 142.519 161.205C143.057 162.023 143.572 162.838 144.065 163.641C144.843 164.911 145.566 166.157 146.227 167.366C147.29 169.309 148.19 171.156 148.909 172.84L142.613 176.983C140.719 174.987 138.649 172.46 136.583 169.57C135.879 168.584 135.175 167.56 134.478 166.496C133.814 165.485 133.205 164.467 132.648 163.45C129.732 158.137 128.217 152.937 127.472 149.63Z" fill="#009655"/>
<path d="M136.583 169.571L144.064 163.642C144.843 164.912 145.565 166.158 146.227 167.367C147.289 169.31 148.189 171.157 148.908 172.841L142.612 176.984C140.719 174.987 138.648 172.461 136.583 169.571Z" fill="#006B42"/>
<path d="M132.647 163.45C135.44 164.116 139.058 165.135 146.227 167.367C147.289 169.309 148.19 171.157 148.908 172.84L142.613 176.984C140.072 174.307 137.22 170.678 134.478 166.497C133.814 165.485 133.205 164.467 132.647 163.45Z" fill="#006B42"/>
<path d="M111.913 168.065C110.542 167.37 110.968 165.309 112.502 165.216C116.528 164.971 122.675 164.974 129.292 166.345C132.408 166.989 135.339 167.723 137.948 168.488C139.439 168.925 140.822 169.373 142.077 169.822L140.888 175.578C137.961 175.391 134.457 174.948 130.664 174.26C129.719 174.088 128.753 173.899 127.775 173.696C121.157 172.326 115.512 169.888 111.913 168.065Z" fill="#00C37A"/>
<path d="M130.664 174.26L137.948 168.488C139.439 168.925 140.822 169.372 142.077 169.822L140.888 175.578C137.961 175.391 134.458 174.948 130.664 174.26Z" fill="#009655"/>
<path d="M123.698 184.311L169.149 147.213L177.452 157.711L132.001 194.81L123.698 184.311Z" fill="#A4E869"/>
<path d="M123.698 184.311L129.199 179.952C129.343 180.104 129.482 180.265 129.614 180.432L137.113 189.913C137.251 190.088 137.382 190.268 137.5 190.452L132.001 194.81L123.698 184.311Z" fill="#60DC4D"/>
<path d="M169.149 147.213L171.541 150.237L126.091 187.335L123.698 184.31L169.149 147.213Z" fill="#60DC4D"/>
<path d="M126.832 182.638L134.33 192.117C135.528 193.632 135.272 195.832 133.759 197.031C132.246 198.231 130.048 197.975 128.85 196.46L121.352 186.981C120.154 185.466 120.41 183.265 121.923 182.066C123.436 180.867 125.634 181.123 126.832 182.638Z" fill="#A4E869"/>
<path d="M175.771 143.601C171.118 143.601 167.345 147.377 167.345 152.035C167.345 156.693 171.118 160.469 175.771 160.469L181.064 159.829V143.601H175.771Z" fill="#F9E8D4"/>
<path d="M157.529 56.4172C158.421 56.3789 159.23 56.3603 160 56.3603C188.79 56.3603 212.897 77.9276 216.077 106.528C216.202 107.659 217.159 108.495 218.27 108.495C218.352 108.495 218.434 108.491 218.517 108.481C219.73 108.346 220.604 107.252 220.469 106.039C219.49 97.2302 216.606 88.8246 212.09 81.3522C217.97 78.7891 221.945 72.9248 221.999 66.3732C222.037 61.9712 220.36 57.8187 217.276 54.6808C214.193 51.5431 210.074 49.7951 205.678 49.7588C198.883 49.7049 192.805 53.8349 190.291 60.0156C181.143 54.7542 170.727 51.9365 160 51.9365C159.166 51.9365 158.296 51.9563 157.339 51.9976C156.12 52.0501 155.174 53.082 155.227 54.3021C155.279 55.5228 156.307 56.4721 157.529 56.4172ZM205.641 54.1826C208.857 54.2092 211.871 55.4877 214.125 57.7827C216.381 60.0778 217.608 63.1152 217.58 66.3357C217.538 71.3921 214.307 75.8897 209.614 77.5819C207.04 73.9591 204.061 70.5988 200.706 67.5741C198.618 65.6913 196.416 63.9672 194.117 62.4068C195.756 57.4884 200.39 54.1366 205.641 54.1826Z" fill="black"/>
<path d="M218.676 113.289C217.445 113.228 216.424 114.18 216.37 115.401C215.147 142.885 194.05 165.367 167.292 168.857L174.907 162.642C175.192 162.665 175.48 162.68 175.771 162.68C176.992 162.68 177.981 161.69 177.981 160.468C177.981 159.246 176.992 158.256 175.771 158.256C172.344 158.256 169.555 155.465 169.555 152.034C169.555 148.603 172.344 145.812 175.771 145.812C176.992 145.812 177.981 144.822 177.981 143.6C177.981 142.378 176.992 141.388 175.771 141.388C172.049 141.388 168.769 143.314 166.868 146.221L162.21 150.022V143.002C165.829 142.026 168.5 138.713 168.5 134.787C168.5 130.096 164.687 126.279 160 126.279C155.313 126.279 151.5 130.095 151.5 134.787C151.5 138.713 154.172 142.025 157.791 143.002V153.629L146.276 163.027C145.661 162.008 145.024 160.993 144.366 159.991C140.145 153.564 134.839 148.993 131.13 146.29C129.865 145.369 128.205 145.329 126.9 146.188C125.595 147.047 124.974 148.589 125.317 150.117C125.901 152.708 126.849 156.04 128.357 159.629C112.916 149.189 103.57 131.818 103.57 112.844C103.57 86.106 122.537 62.8297 148.668 57.4984C149.864 57.2545 150.636 56.0864 150.392 54.8893C150.148 53.6922 148.981 52.9189 147.786 53.1637C141.503 54.4454 135.481 56.7334 129.946 59.8873C127.643 53.5123 121.532 49.0578 114.598 49C114.549 49.0009 114.501 49.0006 114.453 49.0006C110.109 49.0006 106.017 50.6769 102.917 53.7293C99.7828 56.8157 98.0365 60.9396 98.0006 65.3416C97.9428 72.2082 102.075 78.2576 108.282 80.7553C102.354 90.3382 99.1505 101.475 99.1505 112.845C99.1505 124.26 102.325 135.389 108.33 145.029C112.953 152.452 119.104 158.767 126.33 163.58C120.803 162.769 115.812 162.8 112.367 163.007C110.669 163.111 109.298 164.301 108.954 165.968C108.611 167.634 109.399 169.27 110.915 170.037C114.604 171.908 120.447 174.437 127.328 175.863C128.203 176.043 129.07 176.209 129.932 176.368L126.123 179.477C125.686 179.311 125.228 179.192 124.751 179.137C123.238 178.962 121.746 179.385 120.552 180.332C119.357 181.279 118.602 182.634 118.426 184.149C118.25 185.664 118.674 187.157 119.62 188.353L127.118 197.833C128.064 199.029 129.418 199.785 130.932 199.961C131.156 199.987 131.38 200 131.602 200C132.881 200 134.114 199.573 135.132 198.766C136.326 197.819 137.081 196.463 137.257 194.948C137.318 194.426 137.302 193.907 137.223 193.401L161.354 173.705C161.46 173.72 161.567 173.731 161.677 173.731C161.698 173.731 161.719 173.731 161.74 173.73C177.15 173.297 191.693 167.088 202.69 156.248C213.675 145.419 220.101 130.983 220.785 115.598C220.839 114.377 219.895 113.344 218.676 113.289ZM155.919 134.788C155.919 132.536 157.75 130.703 160 130.703C162.249 130.703 164.08 132.536 164.08 134.788C164.08 137.04 162.249 138.872 160 138.872C157.75 138.872 155.919 137.04 155.919 134.788ZM102.42 65.3784C102.446 62.1579 103.724 59.1408 106.017 56.8829C108.309 54.625 111.34 53.3925 114.561 53.4247C119.957 53.4692 124.67 57.1504 126.076 62.2906C121.225 65.5551 116.827 69.5194 113.061 74.083C112.285 75.0238 111.541 75.9876 110.826 76.9703C105.798 75.3892 102.375 70.723 102.42 65.3784ZM169.979 160.956L135.051 189.465L129.491 182.435L165.211 153.281C165.587 156.492 167.396 159.27 169.979 160.956ZM140.673 162.421C141.415 163.553 142.131 164.702 142.815 165.853L138.925 169.027C138.043 167.823 137.171 166.573 136.322 165.283C132.939 160.127 131.069 154.684 130.101 151.063C133.037 153.387 137.284 157.262 140.673 162.421ZM128.221 171.531C123.225 170.495 118.805 168.829 115.464 167.315C119.14 167.257 123.861 167.48 128.845 168.51C130.577 168.869 132.297 169.268 133.973 169.695C134.475 170.42 134.983 171.132 135.495 171.827L134.493 172.645C132.463 172.343 130.361 171.972 128.221 171.531ZM132.866 194.437C132.827 194.778 132.657 195.084 132.388 195.297C132.119 195.511 131.782 195.607 131.442 195.566C131.101 195.527 130.795 195.357 130.582 195.087L123.085 185.607C122.872 185.338 122.776 185.002 122.816 184.66C122.855 184.319 123.025 184.014 123.294 183.8C123.524 183.618 123.802 183.522 124.09 183.522C124.14 183.522 124.19 183.525 124.241 183.531C124.581 183.571 124.887 183.741 125.1 184.01L132.597 193.49C132.811 193.759 132.906 194.096 132.866 194.437Z" fill="black"/>
<path d="M164.899 120.427C168.119 130.771 174.027 138.61 180.705 141.397C182.47 142.134 184.257 142.502 186.025 142.501C188.108 142.501 190.165 141.991 192.126 140.971C195.54 139.198 197.923 135.766 199.017 131.047C200.938 122.764 198.617 111.086 193.732 104.462C186.446 94.5794 173.459 99.2934 172.909 99.4987L172.91 99.499C172.058 99.824 160.019 104.744 164.899 120.427ZM170.281 106.835C172.068 104.532 174.401 103.663 174.424 103.654C174.433 103.651 174.444 103.648 174.452 103.645C174.875 103.489 184.881 99.9068 190.177 107.089C194.313 112.699 196.347 122.997 194.712 130.047C194.159 132.431 192.908 135.581 190.09 137.045C187.628 138.324 185.043 138.415 182.406 137.314C177.003 135.059 171.911 128.084 169.119 119.111C167.531 114.006 167.921 109.876 170.281 106.835Z" fill="black"/>
<path d="M147.09 99.4993C146.541 99.2937 133.554 94.58 126.267 104.462C124.628 106.686 123.209 109.599 122.164 112.887C121.794 114.051 122.436 115.295 123.599 115.665C124.762 116.036 126.005 115.392 126.375 114.228C127.275 111.396 128.468 108.928 129.823 107.09C135.119 99.9074 145.125 103.489 145.543 103.643C145.558 103.649 145.574 103.654 145.589 103.66C145.961 103.789 154.656 106.978 150.881 119.111C148.088 128.085 142.997 135.06 137.593 137.315C134.957 138.415 132.371 138.325 129.91 137.046C126.298 135.17 124.378 129.881 124.772 122.899C124.84 121.679 123.908 120.635 122.69 120.566C121.47 120.497 120.428 121.43 120.359 122.649C119.856 131.551 122.595 138.23 127.873 140.972C129.835 141.991 131.891 142.502 133.975 142.502C135.742 142.502 137.529 142.134 139.294 141.398C145.972 138.611 151.881 130.771 155.1 120.427C159.98 104.744 147.942 99.8243 147.09 99.4993Z" fill="black"/>
<path d="M172.858 121.658C174.079 121.658 175.068 120.668 175.068 119.446V119.26C175.068 118.038 174.079 117.048 172.858 117.048C171.638 117.048 170.648 118.038 170.648 119.26V119.446C170.648 120.668 171.638 121.658 172.858 121.658Z" fill="black"/>
<path d="M149.351 119.446V119.26C149.351 118.038 148.362 117.048 147.141 117.048C145.921 117.048 144.932 118.038 144.932 119.26V119.446C144.932 120.668 145.921 121.658 147.141 121.658C148.362 121.658 149.351 120.668 149.351 119.446Z" fill="black"/>
</svg>
