<svg width="320" height="276" viewBox="0 0 320 276" fill="none" xmlns="http://www.w3.org/2000/svg">
<path d="M9.55469 253V241.625H12.7656C13.7552 241.625 14.6302 241.844 15.3906 242.281C16.151 242.719 16.737 243.341 17.1484 244.148C17.5651 244.956 17.776 245.883 17.7812 246.93V247.656C17.7812 248.729 17.5729 249.669 17.1562 250.477C16.7448 251.284 16.1536 251.904 15.3828 252.336C14.6172 252.768 13.724 252.99 12.7031 253H9.55469ZM11.0547 242.859V251.773H12.6328C13.7891 251.773 14.6875 251.414 15.3281 250.695C15.974 249.977 16.2969 248.953 16.2969 247.625V246.961C16.2969 245.669 15.9922 244.667 15.3828 243.953C14.7786 243.234 13.9193 242.87 12.8047 242.859H11.0547ZM19.4453 248.695C19.4453 247.867 19.6068 247.122 19.9297 246.461C20.2578 245.799 20.7109 245.289 21.2891 244.93C21.8724 244.57 22.5365 244.391 23.2812 244.391C24.4323 244.391 25.362 244.789 26.0703 245.586C26.7839 246.383 27.1406 247.443 27.1406 248.766V248.867C27.1406 249.69 26.9818 250.43 26.6641 251.086C26.3516 251.737 25.901 252.245 25.3125 252.609C24.7292 252.974 24.0573 253.156 23.2969 253.156C22.151 253.156 21.2214 252.758 20.5078 251.961C19.7995 251.164 19.4453 250.109 19.4453 248.797V248.695ZM20.8984 248.867C20.8984 249.805 21.1146 250.557 21.5469 251.125C21.9844 251.693 22.5677 251.977 23.2969 251.977C24.0312 251.977 24.6146 251.69 25.0469 251.117C25.4792 250.539 25.6953 249.732 25.6953 248.695C25.6953 247.768 25.474 247.018 25.0312 246.445C24.5938 245.867 24.0104 245.578 23.2812 245.578C22.5677 245.578 21.9922 245.862 21.5547 246.43C21.1172 246.997 20.8984 247.81 20.8984 248.867ZM30.3203 244.547L30.3672 245.609C31.013 244.797 31.8568 244.391 32.8984 244.391C34.6849 244.391 35.5859 245.398 35.6016 247.414V253H34.1562V247.406C34.151 246.797 34.0104 246.346 33.7344 246.055C33.4635 245.763 33.0391 245.617 32.4609 245.617C31.9922 245.617 31.5807 245.742 31.2266 245.992C30.8724 246.242 30.5964 246.57 30.3984 246.977V253H28.9531V244.547H30.3203ZM43 253C42.9167 252.833 42.849 252.536 42.7969 252.109C42.125 252.807 41.3229 253.156 40.3906 253.156C39.5573 253.156 38.8724 252.922 38.3359 252.453C37.8047 251.979 37.5391 251.38 37.5391 250.656C37.5391 249.776 37.8724 249.094 38.5391 248.609C39.2109 248.12 40.1536 247.875 41.3672 247.875H42.7734V247.211C42.7734 246.706 42.6224 246.305 42.3203 246.008C42.0182 245.706 41.5729 245.555 40.9844 245.555C40.4688 245.555 40.0365 245.685 39.6875 245.945C39.3385 246.206 39.1641 246.521 39.1641 246.891H37.7109C37.7109 246.469 37.8594 246.062 38.1562 245.672C38.4583 245.276 38.8646 244.964 39.375 244.734C39.8906 244.505 40.4557 244.391 41.0703 244.391C42.0443 244.391 42.8073 244.635 43.3594 245.125C43.9115 245.609 44.1979 246.279 44.2188 247.133V251.023C44.2188 251.799 44.3177 252.417 44.5156 252.875V253H43ZM40.6016 251.898C41.0547 251.898 41.4844 251.781 41.8906 251.547C42.2969 251.312 42.5911 251.008 42.7734 250.633V248.898H41.6406C39.8698 248.898 38.9844 249.417 38.9844 250.453C38.9844 250.906 39.1354 251.26 39.4375 251.516C39.7396 251.771 40.1276 251.898 40.6016 251.898ZM48.4453 242.5V244.547H50.0234V245.664H48.4453V250.906C48.4453 251.245 48.5156 251.5 48.6562 251.672C48.7969 251.839 49.0365 251.922 49.375 251.922C49.5417 251.922 49.7708 251.891 50.0625 251.828V253C49.6823 253.104 49.3125 253.156 48.9531 253.156C48.3073 253.156 47.8203 252.961 47.4922 252.57C47.1641 252.18 47 251.625 47 250.906V245.664H45.4609V244.547H47V242.5H48.4453ZM53.2891 253H51.8438V244.547H53.2891V253ZM51.7266 242.305C51.7266 242.07 51.7969 241.872 51.9375 241.711C52.0833 241.549 52.2969 241.469 52.5781 241.469C52.8594 241.469 53.0729 241.549 53.2188 241.711C53.3646 241.872 53.4375 242.07 53.4375 242.305C53.4375 242.539 53.3646 242.734 53.2188 242.891C53.0729 243.047 52.8594 243.125 52.5781 243.125C52.2969 243.125 52.0833 243.047 51.9375 242.891C51.7969 242.734 51.7266 242.539 51.7266 242.305ZM55.2266 248.695C55.2266 247.867 55.388 247.122 55.7109 246.461C56.0391 245.799 56.4922 245.289 57.0703 244.93C57.6536 244.57 58.3177 244.391 59.0625 244.391C60.2135 244.391 61.1432 244.789 61.8516 245.586C62.5651 246.383 62.9219 247.443 62.9219 248.766V248.867C62.9219 249.69 62.763 250.43 62.4453 251.086C62.1328 251.737 61.6823 252.245 61.0938 252.609C60.5104 252.974 59.8385 253.156 59.0781 253.156C57.9323 253.156 57.0026 252.758 56.2891 251.961C55.5807 251.164 55.2266 250.109 55.2266 248.797V248.695ZM56.6797 248.867C56.6797 249.805 56.8958 250.557 57.3281 251.125C57.7656 251.693 58.349 251.977 59.0781 251.977C59.8125 251.977 60.3958 251.69 60.8281 251.117C61.2604 250.539 61.4766 249.732 61.4766 248.695C61.4766 247.768 61.2552 247.018 60.8125 246.445C60.375 245.867 59.7917 245.578 59.0625 245.578C58.349 245.578 57.7734 245.862 57.3359 246.43C56.8984 246.997 56.6797 247.81 56.6797 248.867ZM66.1016 244.547L66.1484 245.609C66.7943 244.797 67.638 244.391 68.6797 244.391C70.4661 244.391 71.3672 245.398 71.3828 247.414V253H69.9375V247.406C69.9323 246.797 69.7917 246.346 69.5156 246.055C69.2448 245.763 68.8203 245.617 68.2422 245.617C67.7734 245.617 67.362 245.742 67.0078 245.992C66.6536 246.242 66.3776 246.57 66.1797 246.977V253H64.7344V244.547H66.1016ZM78.4844 250.758C78.4844 250.367 78.3359 250.065 78.0391 249.852C77.7474 249.633 77.2344 249.445 76.5 249.289C75.7708 249.133 75.1901 248.945 74.7578 248.727C74.3307 248.508 74.013 248.247 73.8047 247.945C73.6016 247.643 73.5 247.284 73.5 246.867C73.5 246.174 73.7917 245.589 74.375 245.109C74.9635 244.63 75.7135 244.391 76.625 244.391C77.5833 244.391 78.3594 244.638 78.9531 245.133C79.5521 245.628 79.8516 246.26 79.8516 247.031H78.3984C78.3984 246.635 78.2292 246.294 77.8906 246.008C77.5573 245.721 77.1354 245.578 76.625 245.578C76.099 245.578 75.6875 245.693 75.3906 245.922C75.0938 246.151 74.9453 246.451 74.9453 246.82C74.9453 247.169 75.0833 247.432 75.3594 247.609C75.6354 247.786 76.1328 247.956 76.8516 248.117C77.5755 248.279 78.1615 248.471 78.6094 248.695C79.0573 248.919 79.388 249.19 79.6016 249.508C79.8203 249.82 79.9297 250.203 79.9297 250.656C79.9297 251.411 79.6276 252.018 79.0234 252.477C78.4193 252.93 77.6354 253.156 76.6719 253.156C75.9948 253.156 75.3958 253.036 74.875 252.797C74.3542 252.557 73.9453 252.224 73.6484 251.797C73.3568 251.365 73.2109 250.898 73.2109 250.398H74.6562C74.6823 250.883 74.875 251.268 75.2344 251.555C75.599 251.836 76.0781 251.977 76.6719 251.977C77.2188 251.977 77.6562 251.867 77.9844 251.648C78.3177 251.424 78.4844 251.128 78.4844 250.758ZM93.2656 251.008L94.8906 244.547H96.3359L93.875 253H92.7031L90.6484 246.594L88.6484 253H87.4766L85.0234 244.547H86.4609L88.125 250.875L90.0938 244.547H91.2578L93.2656 251.008ZM99.3828 253H97.9375V244.547H99.3828V253ZM97.8203 242.305C97.8203 242.07 97.8906 241.872 98.0312 241.711C98.1771 241.549 98.3906 241.469 98.6719 241.469C98.9531 241.469 99.1667 241.549 99.3125 241.711C99.4583 241.872 99.5312 242.07 99.5312 242.305C99.5312 242.539 99.4583 242.734 99.3125 242.891C99.1667 243.047 98.9531 243.125 98.6719 243.125C98.3906 243.125 98.1771 243.047 98.0312 242.891C97.8906 242.734 97.8203 242.539 97.8203 242.305ZM103.273 253H101.828V241H103.273V253ZM107.164 253H105.719V241H107.164V253ZM113.109 248.703C113.109 247.385 113.414 246.339 114.023 245.562C114.633 244.781 115.44 244.391 116.445 244.391C117.477 244.391 118.281 244.755 118.859 245.484L118.93 244.547H120.25V252.797C120.25 253.891 119.924 254.753 119.273 255.383C118.628 256.013 117.758 256.328 116.664 256.328C116.055 256.328 115.458 256.198 114.875 255.938C114.292 255.677 113.846 255.32 113.539 254.867L114.289 254C114.909 254.766 115.667 255.148 116.562 255.148C117.266 255.148 117.812 254.951 118.203 254.555C118.599 254.159 118.797 253.602 118.797 252.883V252.156C118.219 252.823 117.43 253.156 116.43 253.156C115.44 253.156 114.638 252.758 114.023 251.961C113.414 251.164 113.109 250.078 113.109 248.703ZM114.562 248.867C114.562 249.82 114.758 250.57 115.148 251.117C115.539 251.659 116.086 251.93 116.789 251.93C117.701 251.93 118.37 251.516 118.797 250.688V246.828C118.354 246.021 117.69 245.617 116.805 245.617C116.102 245.617 115.552 245.891 115.156 246.438C114.76 246.984 114.562 247.794 114.562 248.867ZM122.055 248.695C122.055 247.867 122.216 247.122 122.539 246.461C122.867 245.799 123.32 245.289 123.898 244.93C124.482 244.57 125.146 244.391 125.891 244.391C127.042 244.391 127.971 244.789 128.68 245.586C129.393 246.383 129.75 247.443 129.75 248.766V248.867C129.75 249.69 129.591 250.43 129.273 251.086C128.961 251.737 128.51 252.245 127.922 252.609C127.339 252.974 126.667 253.156 125.906 253.156C124.76 253.156 123.831 252.758 123.117 251.961C122.409 251.164 122.055 250.109 122.055 248.797V248.695ZM123.508 248.867C123.508 249.805 123.724 250.557 124.156 251.125C124.594 251.693 125.177 251.977 125.906 251.977C126.641 251.977 127.224 251.69 127.656 251.117C128.089 250.539 128.305 249.732 128.305 248.695C128.305 247.768 128.083 247.018 127.641 246.445C127.203 245.867 126.62 245.578 125.891 245.578C125.177 245.578 124.602 245.862 124.164 246.43C123.727 246.997 123.508 247.81 123.508 248.867ZM137.492 242.5V244.547H139.07V245.664H137.492V250.906C137.492 251.245 137.562 251.5 137.703 251.672C137.844 251.839 138.083 251.922 138.422 251.922C138.589 251.922 138.818 251.891 139.109 251.828V253C138.729 253.104 138.359 253.156 138 253.156C137.354 253.156 136.867 252.961 136.539 252.57C136.211 252.18 136.047 251.625 136.047 250.906V245.664H134.508V244.547H136.047V242.5H137.492ZM140.227 248.695C140.227 247.867 140.388 247.122 140.711 246.461C141.039 245.799 141.492 245.289 142.07 244.93C142.654 244.57 143.318 244.391 144.062 244.391C145.214 244.391 146.143 244.789 146.852 245.586C147.565 246.383 147.922 247.443 147.922 248.766V248.867C147.922 249.69 147.763 250.43 147.445 251.086C147.133 251.737 146.682 252.245 146.094 252.609C145.51 252.974 144.839 253.156 144.078 253.156C142.932 253.156 142.003 252.758 141.289 251.961C140.581 251.164 140.227 250.109 140.227 248.797V248.695ZM141.68 248.867C141.68 249.805 141.896 250.557 142.328 251.125C142.766 251.693 143.349 251.977 144.078 251.977C144.812 251.977 145.396 251.69 145.828 251.117C146.26 250.539 146.477 249.732 146.477 248.695C146.477 247.768 146.255 247.018 145.812 246.445C145.375 245.867 144.792 245.578 144.062 245.578C143.349 245.578 142.773 245.862 142.336 246.43C141.898 246.997 141.68 247.81 141.68 248.867ZM155.664 242.5V244.547H157.242V245.664H155.664V250.906C155.664 251.245 155.734 251.5 155.875 251.672C156.016 251.839 156.255 251.922 156.594 251.922C156.76 251.922 156.99 251.891 157.281 251.828V253C156.901 253.104 156.531 253.156 156.172 253.156C155.526 253.156 155.039 252.961 154.711 252.57C154.383 252.18 154.219 251.625 154.219 250.906V245.664H152.68V244.547H154.219V242.5H155.664ZM160.383 245.57C161.023 244.784 161.857 244.391 162.883 244.391C164.669 244.391 165.57 245.398 165.586 247.414V253H164.141V247.406C164.135 246.797 163.995 246.346 163.719 246.055C163.448 245.763 163.023 245.617 162.445 245.617C161.977 245.617 161.565 245.742 161.211 245.992C160.857 246.242 160.581 246.57 160.383 246.977V253H158.938V241H160.383V245.57ZM171.258 253.156C170.112 253.156 169.18 252.781 168.461 252.031C167.742 251.276 167.383 250.268 167.383 249.008V248.742C167.383 247.904 167.542 247.156 167.859 246.5C168.182 245.839 168.63 245.323 169.203 244.953C169.781 244.578 170.406 244.391 171.078 244.391C172.177 244.391 173.031 244.753 173.641 245.477C174.25 246.201 174.555 247.237 174.555 248.586V249.188H168.828C168.849 250.021 169.091 250.695 169.555 251.211C170.023 251.721 170.617 251.977 171.336 251.977C171.846 251.977 172.279 251.872 172.633 251.664C172.987 251.456 173.297 251.18 173.562 250.836L174.445 251.523C173.737 252.612 172.674 253.156 171.258 253.156ZM171.078 245.578C170.495 245.578 170.005 245.792 169.609 246.219C169.214 246.641 168.969 247.234 168.875 248H173.109V247.891C173.068 247.156 172.87 246.589 172.516 246.188C172.161 245.781 171.682 245.578 171.078 245.578ZM185.422 253C185.339 252.833 185.271 252.536 185.219 252.109C184.547 252.807 183.745 253.156 182.812 253.156C181.979 253.156 181.294 252.922 180.758 252.453C180.227 251.979 179.961 251.38 179.961 250.656C179.961 249.776 180.294 249.094 180.961 248.609C181.633 248.12 182.576 247.875 183.789 247.875H185.195V247.211C185.195 246.706 185.044 246.305 184.742 246.008C184.44 245.706 183.995 245.555 183.406 245.555C182.891 245.555 182.458 245.685 182.109 245.945C181.76 246.206 181.586 246.521 181.586 246.891H180.133C180.133 246.469 180.281 246.062 180.578 245.672C180.88 245.276 181.286 244.964 181.797 244.734C182.312 244.505 182.878 244.391 183.492 244.391C184.466 244.391 185.229 244.635 185.781 245.125C186.333 245.609 186.62 246.279 186.641 247.133V251.023C186.641 251.799 186.74 252.417 186.938 252.875V253H185.422ZM183.023 251.898C183.477 251.898 183.906 251.781 184.312 251.547C184.719 251.312 185.013 251.008 185.195 250.633V248.898H184.062C182.292 248.898 181.406 249.417 181.406 250.453C181.406 250.906 181.557 251.26 181.859 251.516C182.161 251.771 182.549 251.898 183.023 251.898ZM192.297 251.977C192.812 251.977 193.263 251.82 193.648 251.508C194.034 251.195 194.247 250.805 194.289 250.336H195.656C195.63 250.82 195.464 251.281 195.156 251.719C194.849 252.156 194.438 252.505 193.922 252.766C193.411 253.026 192.87 253.156 192.297 253.156C191.146 253.156 190.229 252.773 189.547 252.008C188.87 251.237 188.531 250.185 188.531 248.852V248.609C188.531 247.786 188.682 247.055 188.984 246.414C189.286 245.773 189.719 245.276 190.281 244.922C190.849 244.568 191.518 244.391 192.289 244.391C193.237 244.391 194.023 244.674 194.648 245.242C195.279 245.81 195.615 246.547 195.656 247.453H194.289C194.247 246.906 194.039 246.458 193.664 246.109C193.294 245.755 192.836 245.578 192.289 245.578C191.555 245.578 190.984 245.844 190.578 246.375C190.177 246.901 189.977 247.664 189.977 248.664V248.938C189.977 249.911 190.177 250.661 190.578 251.188C190.979 251.714 191.552 251.977 192.297 251.977ZM200.672 251.977C201.188 251.977 201.638 251.82 202.023 251.508C202.409 251.195 202.622 250.805 202.664 250.336H204.031C204.005 250.82 203.839 251.281 203.531 251.719C203.224 252.156 202.812 252.505 202.297 252.766C201.786 253.026 201.245 253.156 200.672 253.156C199.521 253.156 198.604 252.773 197.922 252.008C197.245 251.237 196.906 250.185 196.906 248.852V248.609C196.906 247.786 197.057 247.055 197.359 246.414C197.661 245.773 198.094 245.276 198.656 244.922C199.224 244.568 199.893 244.391 200.664 244.391C201.612 244.391 202.398 244.674 203.023 245.242C203.654 245.81 203.99 246.547 204.031 247.453H202.664C202.622 246.906 202.414 246.458 202.039 246.109C201.669 245.755 201.211 245.578 200.664 245.578C199.93 245.578 199.359 245.844 198.953 246.375C198.552 246.901 198.352 247.664 198.352 248.664V248.938C198.352 249.911 198.552 250.661 198.953 251.188C199.354 251.714 199.927 251.977 200.672 251.977ZM205.273 248.695C205.273 247.867 205.435 247.122 205.758 246.461C206.086 245.799 206.539 245.289 207.117 244.93C207.701 244.57 208.365 244.391 209.109 244.391C210.26 244.391 211.19 244.789 211.898 245.586C212.612 246.383 212.969 247.443 212.969 248.766V248.867C212.969 249.69 212.81 250.43 212.492 251.086C212.18 251.737 211.729 252.245 211.141 252.609C210.557 252.974 209.885 253.156 209.125 253.156C207.979 253.156 207.049 252.758 206.336 251.961C205.628 251.164 205.273 250.109 205.273 248.797V248.695ZM206.727 248.867C206.727 249.805 206.943 250.557 207.375 251.125C207.812 251.693 208.396 251.977 209.125 251.977C209.859 251.977 210.443 251.69 210.875 251.117C211.307 250.539 211.523 249.732 211.523 248.695C211.523 247.768 211.302 247.018 210.859 246.445C210.422 245.867 209.839 245.578 209.109 245.578C208.396 245.578 207.82 245.862 207.383 246.43C206.945 246.997 206.727 247.81 206.727 248.867ZM220 252.164C219.438 252.826 218.612 253.156 217.523 253.156C216.622 253.156 215.935 252.896 215.461 252.375C214.992 251.849 214.755 251.073 214.75 250.047V244.547H216.195V250.008C216.195 251.289 216.716 251.93 217.758 251.93C218.862 251.93 219.596 251.518 219.961 250.695V244.547H221.406V253H220.031L220 252.164ZM224.977 244.547L225.023 245.609C225.669 244.797 226.513 244.391 227.555 244.391C229.341 244.391 230.242 245.398 230.258 247.414V253H228.812V247.406C228.807 246.797 228.667 246.346 228.391 246.055C228.12 245.763 227.695 245.617 227.117 245.617C226.648 245.617 226.237 245.742 225.883 245.992C225.529 246.242 225.253 246.57 225.055 246.977V253H223.609V244.547H224.977ZM234.398 242.5V244.547H235.977V245.664H234.398V250.906C234.398 251.245 234.469 251.5 234.609 251.672C234.75 251.839 234.99 251.922 235.328 251.922C235.495 251.922 235.724 251.891 236.016 251.828V253C235.635 253.104 235.266 253.156 234.906 253.156C234.26 253.156 233.773 252.961 233.445 252.57C233.117 252.18 232.953 251.625 232.953 250.906V245.664H231.414V244.547H232.953V242.5H234.398ZM241.258 248.695C241.258 247.867 241.419 247.122 241.742 246.461C242.07 245.799 242.523 245.289 243.102 244.93C243.685 244.57 244.349 244.391 245.094 244.391C246.245 244.391 247.174 244.789 247.883 245.586C248.596 246.383 248.953 247.443 248.953 248.766V248.867C248.953 249.69 248.794 250.43 248.477 251.086C248.164 251.737 247.714 252.245 247.125 252.609C246.542 252.974 245.87 253.156 245.109 253.156C243.964 253.156 243.034 252.758 242.32 251.961C241.612 251.164 241.258 250.109 241.258 248.797V248.695ZM242.711 248.867C242.711 249.805 242.927 250.557 243.359 251.125C243.797 251.693 244.38 251.977 245.109 251.977C245.844 251.977 246.427 251.69 246.859 251.117C247.292 250.539 247.508 249.732 247.508 248.695C247.508 247.768 247.286 247.018 246.844 246.445C246.406 245.867 245.823 245.578 245.094 245.578C244.38 245.578 243.805 245.862 243.367 246.43C242.93 246.997 242.711 247.81 242.711 248.867ZM251.477 253V245.664H250.141V244.547H251.477V243.68C251.477 242.773 251.719 242.073 252.203 241.578C252.688 241.083 253.372 240.836 254.258 240.836C254.591 240.836 254.922 240.88 255.25 240.969L255.172 242.141C254.927 242.094 254.667 242.07 254.391 242.07C253.922 242.07 253.56 242.208 253.305 242.484C253.049 242.755 252.922 243.146 252.922 243.656V244.547H254.727V245.664H252.922V253H251.477ZM262.258 242.5V244.547H263.836V245.664H262.258V250.906C262.258 251.245 262.328 251.5 262.469 251.672C262.609 251.839 262.849 251.922 263.188 251.922C263.354 251.922 263.583 251.891 263.875 251.828V253C263.495 253.104 263.125 253.156 262.766 253.156C262.12 253.156 261.633 252.961 261.305 252.57C260.977 252.18 260.812 251.625 260.812 250.906V245.664H259.273V244.547H260.812V242.5H262.258ZM266.977 245.57C267.617 244.784 268.451 244.391 269.477 244.391C271.263 244.391 272.164 245.398 272.18 247.414V253H270.734V247.406C270.729 246.797 270.589 246.346 270.312 246.055C270.042 245.763 269.617 245.617 269.039 245.617C268.57 245.617 268.159 245.742 267.805 245.992C267.451 246.242 267.174 246.57 266.977 246.977V253H265.531V241H266.977V245.57ZM277.852 253.156C276.706 253.156 275.773 252.781 275.055 252.031C274.336 251.276 273.977 250.268 273.977 249.008V248.742C273.977 247.904 274.135 247.156 274.453 246.5C274.776 245.839 275.224 245.323 275.797 244.953C276.375 244.578 277 244.391 277.672 244.391C278.771 244.391 279.625 244.753 280.234 245.477C280.844 246.201 281.148 247.237 281.148 248.586V249.188H275.422C275.443 250.021 275.685 250.695 276.148 251.211C276.617 251.721 277.211 251.977 277.93 251.977C278.44 251.977 278.872 251.872 279.227 251.664C279.581 251.456 279.891 251.18 280.156 250.836L281.039 251.523C280.331 252.612 279.268 253.156 277.852 253.156ZM277.672 245.578C277.089 245.578 276.599 245.792 276.203 246.219C275.807 246.641 275.562 247.234 275.469 248H279.703V247.891C279.661 247.156 279.464 246.589 279.109 246.188C278.755 245.781 278.276 245.578 277.672 245.578ZM288.156 251.82H293.102V253H286.391V251.938L291.055 245.742H286.461V244.547H292.867V245.57L288.156 251.82ZM294.227 248.695C294.227 247.867 294.388 247.122 294.711 246.461C295.039 245.799 295.492 245.289 296.07 244.93C296.654 244.57 297.318 244.391 298.062 244.391C299.214 244.391 300.143 244.789 300.852 245.586C301.565 246.383 301.922 247.443 301.922 248.766V248.867C301.922 249.69 301.763 250.43 301.445 251.086C301.133 251.737 300.682 252.245 300.094 252.609C299.51 252.974 298.839 253.156 298.078 253.156C296.932 253.156 296.003 252.758 295.289 251.961C294.581 251.164 294.227 250.109 294.227 248.797V248.695ZM295.68 248.867C295.68 249.805 295.896 250.557 296.328 251.125C296.766 251.693 297.349 251.977 298.078 251.977C298.812 251.977 299.396 251.69 299.828 251.117C300.26 250.539 300.477 249.732 300.477 248.695C300.477 247.768 300.255 247.018 299.812 246.445C299.375 245.867 298.792 245.578 298.062 245.578C297.349 245.578 296.773 245.862 296.336 246.43C295.898 246.997 295.68 247.81 295.68 248.867ZM303.352 248.695C303.352 247.867 303.513 247.122 303.836 246.461C304.164 245.799 304.617 245.289 305.195 244.93C305.779 244.57 306.443 244.391 307.188 244.391C308.339 244.391 309.268 244.789 309.977 245.586C310.69 246.383 311.047 247.443 311.047 248.766V248.867C311.047 249.69 310.888 250.43 310.57 251.086C310.258 251.737 309.807 252.245 309.219 252.609C308.635 252.974 307.964 253.156 307.203 253.156C306.057 253.156 305.128 252.758 304.414 251.961C303.706 251.164 303.352 250.109 303.352 248.797V248.695ZM304.805 248.867C304.805 249.805 305.021 250.557 305.453 251.125C305.891 251.693 306.474 251.977 307.203 251.977C307.938 251.977 308.521 251.69 308.953 251.117C309.385 250.539 309.602 249.732 309.602 248.695C309.602 247.768 309.38 247.018 308.938 246.445C308.5 245.867 307.917 245.578 307.188 245.578C306.474 245.578 305.898 245.862 305.461 246.43C305.023 246.997 304.805 247.81 304.805 248.867ZM100.711 267.695C100.711 266.867 100.872 266.122 101.195 265.461C101.523 264.799 101.977 264.289 102.555 263.93C103.138 263.57 103.802 263.391 104.547 263.391C105.698 263.391 106.628 263.789 107.336 264.586C108.049 265.383 108.406 266.443 108.406 267.766V267.867C108.406 268.69 108.247 269.43 107.93 270.086C107.617 270.737 107.167 271.245 106.578 271.609C105.995 271.974 105.323 272.156 104.562 272.156C103.417 272.156 102.487 271.758 101.773 270.961C101.065 270.164 100.711 269.109 100.711 267.797V267.695ZM102.164 267.867C102.164 268.805 102.38 269.557 102.812 270.125C103.25 270.693 103.833 270.977 104.562 270.977C105.297 270.977 105.88 270.69 106.312 270.117C106.745 269.539 106.961 268.732 106.961 267.695C106.961 266.768 106.74 266.018 106.297 265.445C105.859 264.867 105.276 264.578 104.547 264.578C103.833 264.578 103.258 264.862 102.82 265.43C102.383 265.997 102.164 266.81 102.164 267.867ZM114.305 264.844C114.086 264.807 113.849 264.789 113.594 264.789C112.646 264.789 112.003 265.193 111.664 266V272H110.219V263.547H111.625L111.648 264.523C112.122 263.768 112.794 263.391 113.664 263.391C113.945 263.391 114.159 263.427 114.305 263.5V264.844ZM120.977 263.547L121.023 264.609C121.669 263.797 122.513 263.391 123.555 263.391C125.341 263.391 126.242 264.398 126.258 266.414V272H124.812V266.406C124.807 265.797 124.667 265.346 124.391 265.055C124.12 264.763 123.695 264.617 123.117 264.617C122.648 264.617 122.237 264.742 121.883 264.992C121.529 265.242 121.253 265.57 121.055 265.977V272H119.609V263.547H120.977ZM133.656 272C133.573 271.833 133.505 271.536 133.453 271.109C132.781 271.807 131.979 272.156 131.047 272.156C130.214 272.156 129.529 271.922 128.992 271.453C128.461 270.979 128.195 270.38 128.195 269.656C128.195 268.776 128.529 268.094 129.195 267.609C129.867 267.12 130.81 266.875 132.023 266.875H133.43V266.211C133.43 265.706 133.279 265.305 132.977 265.008C132.674 264.706 132.229 264.555 131.641 264.555C131.125 264.555 130.693 264.685 130.344 264.945C129.995 265.206 129.82 265.521 129.82 265.891H128.367C128.367 265.469 128.516 265.062 128.812 264.672C129.115 264.276 129.521 263.964 130.031 263.734C130.547 263.505 131.112 263.391 131.727 263.391C132.701 263.391 133.464 263.635 134.016 264.125C134.568 264.609 134.854 265.279 134.875 266.133V270.023C134.875 270.799 134.974 271.417 135.172 271.875V272H133.656ZM131.258 270.898C131.711 270.898 132.141 270.781 132.547 270.547C132.953 270.312 133.247 270.008 133.43 269.633V267.898H132.297C130.526 267.898 129.641 268.417 129.641 269.453C129.641 269.906 129.792 270.26 130.094 270.516C130.396 270.771 130.784 270.898 131.258 270.898ZM139.102 261.5V263.547H140.68V264.664H139.102V269.906C139.102 270.245 139.172 270.5 139.312 270.672C139.453 270.839 139.693 270.922 140.031 270.922C140.198 270.922 140.427 270.891 140.719 270.828V272C140.339 272.104 139.969 272.156 139.609 272.156C138.964 272.156 138.477 271.961 138.148 271.57C137.82 271.18 137.656 270.625 137.656 269.906V264.664H136.117V263.547H137.656V261.5H139.102ZM147.594 271.164C147.031 271.826 146.206 272.156 145.117 272.156C144.216 272.156 143.529 271.896 143.055 271.375C142.586 270.849 142.349 270.073 142.344 269.047V263.547H143.789V269.008C143.789 270.289 144.31 270.93 145.352 270.93C146.456 270.93 147.19 270.518 147.555 269.695V263.547H149V272H147.625L147.594 271.164ZM155.289 264.844C155.07 264.807 154.833 264.789 154.578 264.789C153.63 264.789 152.987 265.193 152.648 266V272H151.203V263.547H152.609L152.633 264.523C153.107 263.768 153.779 263.391 154.648 263.391C154.93 263.391 155.143 263.427 155.289 263.5V264.844ZM159.977 272.156C158.831 272.156 157.898 271.781 157.18 271.031C156.461 270.276 156.102 269.268 156.102 268.008V267.742C156.102 266.904 156.26 266.156 156.578 265.5C156.901 264.839 157.349 264.323 157.922 263.953C158.5 263.578 159.125 263.391 159.797 263.391C160.896 263.391 161.75 263.753 162.359 264.477C162.969 265.201 163.273 266.237 163.273 267.586V268.188H157.547C157.568 269.021 157.81 269.695 158.273 270.211C158.742 270.721 159.336 270.977 160.055 270.977C160.565 270.977 160.997 270.872 161.352 270.664C161.706 270.456 162.016 270.18 162.281 269.836L163.164 270.523C162.456 271.612 161.393 272.156 159.977 272.156ZM159.797 264.578C159.214 264.578 158.724 264.792 158.328 265.219C157.932 265.641 157.688 266.234 157.594 267H161.828V266.891C161.786 266.156 161.589 265.589 161.234 265.188C160.88 264.781 160.401 264.578 159.797 264.578ZM173.008 264.844C172.789 264.807 172.552 264.789 172.297 264.789C171.349 264.789 170.706 265.193 170.367 266V272H168.922V263.547H170.328L170.352 264.523C170.826 263.768 171.497 263.391 172.367 263.391C172.648 263.391 172.862 263.427 173.008 263.5V264.844ZM177.695 272.156C176.549 272.156 175.617 271.781 174.898 271.031C174.18 270.276 173.82 269.268 173.82 268.008V267.742C173.82 266.904 173.979 266.156 174.297 265.5C174.62 264.839 175.068 264.323 175.641 263.953C176.219 263.578 176.844 263.391 177.516 263.391C178.615 263.391 179.469 263.753 180.078 264.477C180.688 265.201 180.992 266.237 180.992 267.586V268.188H175.266C175.286 269.021 175.529 269.695 175.992 270.211C176.461 270.721 177.055 270.977 177.773 270.977C178.284 270.977 178.716 270.872 179.07 270.664C179.424 270.456 179.734 270.18 180 269.836L180.883 270.523C180.174 271.612 179.112 272.156 177.695 272.156ZM177.516 264.578C176.932 264.578 176.443 264.792 176.047 265.219C175.651 265.641 175.406 266.234 175.312 267H179.547V266.891C179.505 266.156 179.307 265.589 178.953 265.188C178.599 264.781 178.12 264.578 177.516 264.578ZM187.594 269.758C187.594 269.367 187.445 269.065 187.148 268.852C186.857 268.633 186.344 268.445 185.609 268.289C184.88 268.133 184.299 267.945 183.867 267.727C183.44 267.508 183.122 267.247 182.914 266.945C182.711 266.643 182.609 266.284 182.609 265.867C182.609 265.174 182.901 264.589 183.484 264.109C184.073 263.63 184.823 263.391 185.734 263.391C186.693 263.391 187.469 263.638 188.062 264.133C188.661 264.628 188.961 265.26 188.961 266.031H187.508C187.508 265.635 187.339 265.294 187 265.008C186.667 264.721 186.245 264.578 185.734 264.578C185.208 264.578 184.797 264.693 184.5 264.922C184.203 265.151 184.055 265.451 184.055 265.82C184.055 266.169 184.193 266.432 184.469 266.609C184.745 266.786 185.242 266.956 185.961 267.117C186.685 267.279 187.271 267.471 187.719 267.695C188.167 267.919 188.497 268.19 188.711 268.508C188.93 268.82 189.039 269.203 189.039 269.656C189.039 270.411 188.737 271.018 188.133 271.477C187.529 271.93 186.745 272.156 185.781 272.156C185.104 272.156 184.505 272.036 183.984 271.797C183.464 271.557 183.055 271.224 182.758 270.797C182.466 270.365 182.32 269.898 182.32 269.398H183.766C183.792 269.883 183.984 270.268 184.344 270.555C184.708 270.836 185.188 270.977 185.781 270.977C186.328 270.977 186.766 270.867 187.094 270.648C187.427 270.424 187.594 270.128 187.594 269.758ZM194.43 272.156C193.284 272.156 192.352 271.781 191.633 271.031C190.914 270.276 190.555 269.268 190.555 268.008V267.742C190.555 266.904 190.714 266.156 191.031 265.5C191.354 264.839 191.802 264.323 192.375 263.953C192.953 263.578 193.578 263.391 194.25 263.391C195.349 263.391 196.203 263.753 196.812 264.477C197.422 265.201 197.727 266.237 197.727 267.586V268.188H192C192.021 269.021 192.263 269.695 192.727 270.211C193.195 270.721 193.789 270.977 194.508 270.977C195.018 270.977 195.451 270.872 195.805 270.664C196.159 270.456 196.469 270.18 196.734 269.836L197.617 270.523C196.909 271.612 195.846 272.156 194.43 272.156ZM194.25 264.578C193.667 264.578 193.177 264.792 192.781 265.219C192.385 265.641 192.141 266.234 192.047 267H196.281V266.891C196.24 266.156 196.042 265.589 195.688 265.188C195.333 264.781 194.854 264.578 194.25 264.578ZM203.492 264.844C203.273 264.807 203.036 264.789 202.781 264.789C201.833 264.789 201.19 265.193 200.852 266V272H199.406V263.547H200.812L200.836 264.523C201.31 263.768 201.982 263.391 202.852 263.391C203.133 263.391 203.346 263.427 203.492 263.5V264.844ZM207.758 270.039L209.852 263.547H211.328L208.297 272H207.195L204.133 263.547H205.609L207.758 270.039ZM216.117 272.156C214.971 272.156 214.039 271.781 213.32 271.031C212.602 270.276 212.242 269.268 212.242 268.008V267.742C212.242 266.904 212.401 266.156 212.719 265.5C213.042 264.839 213.49 264.323 214.062 263.953C214.641 263.578 215.266 263.391 215.938 263.391C217.036 263.391 217.891 263.753 218.5 264.477C219.109 265.201 219.414 266.237 219.414 267.586V268.188H213.688C213.708 269.021 213.951 269.695 214.414 270.211C214.883 270.721 215.477 270.977 216.195 270.977C216.706 270.977 217.138 270.872 217.492 270.664C217.846 270.456 218.156 270.18 218.422 269.836L219.305 270.523C218.596 271.612 217.534 272.156 216.117 272.156ZM215.938 264.578C215.354 264.578 214.865 264.792 214.469 265.219C214.073 265.641 213.828 266.234 213.734 267H217.969V266.891C217.927 266.156 217.729 265.589 217.375 265.188C217.021 264.781 216.542 264.578 215.938 264.578Z" fill="black"/>
<path d="M232.149 56.7645C233.26 56.5241 234.343 54.6287 236.137 57.998L236.137 57.9978C237.146 57.6012 238.154 57.2045 239.175 56.8361C240.483 56.3453 244.107 56.9339 245.379 57.8251C247.73 59.4895 247.646 59.4589 248.412 63.4327C248.732 65.063 249.481 66.7774 250 68.4562C250.315 69.4886 251.022 71.1876 250.81 71.4446C250.293 72.0317 249.622 72.3843 250.48 73.6853C251.79 75.6272 251.143 72.6027 251.553 73.0614C252.165 73.7543 252.671 74.8498 253.129 75.8421L253.148 75.8818C253.671 77.0255 255.818 74.7769 255.217 78.4333C255.129 78.9377 256.774 80.7033 257.517 81.9866C258.402 83.4762 258.628 85.3466 260.15 86.5312C260.762 87.0037 259.858 89.8227 258.696 89.6512C256.575 89.3221 256.406 92.5275 254.652 92.8085C254.565 92.8125 254.489 93.1783 254.537 93.2911C257.305 98.445 252.62 96.7083 252.945 99.6037C250.594 98.9054 249.716 100.947 248.786 102.91C246.325 101.492 246.812 104.351 246.502 106.051C246.474 106.196 246.625 106.465 246.694 106.669C247.057 107.814 248.322 109.442 246.909 109.644C246.526 109.707 245.707 108.289 245.065 107.83C244.778 107.618 244.217 107.891 244.095 108.276C243.573 109.899 246.397 110.495 245.685 112.299C246.017 112.491 246.538 113.002 246.665 112.881C247.702 111.673 249.978 113.536 250.64 111.32C250.708 111.104 251.227 113.587 251.659 115.11C251.864 115.064 252.067 115.081 252.257 115.198C252.278 116.895 251.995 116.292 251.659 115.11C251.209 115.21 250.749 115.613 250.392 115.926L250.39 115.927C249.411 116.811 250.026 119.216 251.488 120.426C251.934 120.803 252.419 121.23 252.865 121.439C254.627 122.222 254.298 123.462 254.07 124.726L254.061 124.776C254.004 125.092 253.936 125.47 254.002 125.822L254.036 126.005C254.347 127.679 254.355 127.725 253.95 127.544C253.643 127.408 253.318 126.98 253.046 126.929C251.507 126.752 249.845 126.16 248.648 127.204C248.382 127.417 247.854 127.142 247.45 127.115C247.469 126.74 247.514 126.387 247.503 126.025C247.385 124.576 248.615 123.484 247.35 121.857C245.435 119.373 246.043 123.647 244.616 123.022C244.086 122.782 243.587 123.328 243.112 123.597C241.952 124.225 239.013 124.111 237.707 123.434C237.303 123.24 236.76 123.138 236.518 123.408C235.94 124.021 236.899 126.479 235.463 126.124C233.9 125.724 234.518 127.76 234.429 128.765C234.25 130.941 235.143 129.561 235.641 129.849C236.569 130.353 237.24 131.8 236.644 132.288C235.39 133.322 235.784 134.121 237.225 135.407C237.372 135.544 237.543 136.405 237.425 136.589C236.674 138.009 235.818 139.307 235.067 140.728C234.982 140.864 235.294 141.764 235.523 141.966C237.383 143.774 237.557 144.1 237.217 145.478C237.174 145.63 237.129 145.816 237.035 145.889C236.521 146.275 235.51 146.539 237.192 147.555C237.798 147.931 238.761 148.054 238.976 147.595C239.261 147.007 238.967 145.732 238.923 144.751C238.9 144.361 238.891 143.964 238.868 143.574C239.133 143.861 239.462 144.088 239.663 144.435C239.988 145.03 240.235 145.692 240.496 146.347C241.461 148.736 242.721 149.766 243.96 148.904C245.123 148.075 246.553 148.499 247.996 148.784C248.252 148.841 248.535 149.087 248.813 149.236C248.701 149.517 248.645 149.974 248.449 150.057C247.712 150.338 246.911 151.013 246.136 150.577C244.876 149.88 244.803 150.212 245.455 151.7C246.084 153.133 246.534 154.274 245.318 154.559C245.215 154.57 245.409 155.82 245.674 156.274C245.903 156.643 246.533 156.908 246.832 156.814C248.01 156.479 249.058 155.798 250.281 155.61C250.71 155.528 251.472 156.436 252.099 156.902C251.878 157.263 251.72 157.73 251.424 157.957C250.094 158.857 248.729 159.672 247.387 160.544C247.218 160.65 247.009 161.039 246.97 160.989C244.653 158.276 243.995 160.457 242.84 161.516C242.175 162.133 240.6 161.37 240.14 162.133C239.126 163.899 238.422 166.099 237.884 168.396C237.562 169.733 236.275 170.315 237.173 172.799C237.429 173.523 237.232 174.108 238.04 174.663C238.368 174.89 238.955 175.973 238.903 176.229C238.684 177.222 237.989 177.852 237.969 178.894C237.942 180.672 237.203 179.987 236.326 179.727C235.885 179.615 235.783 181.259 235.254 181.484C233.925 182.051 232.524 182.615 230.997 182.466C229.901 182.366 229.056 182.226 228.74 183.661C228.627 184.109 228.11 184.696 228.017 184.603C225.631 182.02 225.924 185.595 224.906 186.096C223.634 186.671 222.873 188.696 221.521 188.705C220.138 188.728 219.514 189.861 218.445 190.283C217.047 190.813 215.669 191.433 214.295 192.019C213.042 192.553 211.836 193.2 210.523 193.594C209.297 193.983 207.268 192.448 207.016 195.122C205.53 193.689 205.133 196.525 203.638 195.028C202.967 197.348 201.012 197.281 199.64 198.333C197.071 200.262 193.592 199.511 190.678 200.42C189.705 200.734 188.11 199.881 186.868 198.977C185.502 197.992 185.293 200.182 184.076 199.167C182.713 201.581 180.988 202.85 177.904 200.431C177.66 200.235 177.28 201.898 176.824 201.792C175.557 201.498 174.221 200.835 172.918 200.123C171.561 199.368 167.703 198.313 166.625 198.672C165.622 199 164.776 199.527 163.374 198.625C162.439 198.023 161.178 197.827 160.58 198.349C159.588 199.205 159.015 200.749 157.659 201.127C157.375 201.215 156.201 202.982 158.324 204.278C158.202 204.663 158.162 205.28 157.908 205.355C155.897 206.079 154.969 208.508 153.635 210.277C153.339 210.67 153.159 211.713 152.921 211.615C151.95 211.095 149.56 211.421 150 213.5L146.579 214.5C145.892 214.85 146.186 215.968 145.5 216.309C142.869 217.616 139.546 217.879 139.821 216.932C139.35 217 138.542 216.778 138.459 217.213C138.116 218.626 137.924 219.808 136.425 217.38C136.145 216.933 135.414 216.977 134.908 216.793C134.443 216.625 133.991 216.484 133.541 216.309C133.813 216.026 134.278 215.861 134.333 215.404C134.514 214.027 132.075 210.734 130.885 211.041C129.176 211.469 127.44 209.909 125.724 209.274C124.149 208.678 122.66 209.08 120.982 207.362C120.036 206.398 119.926 206.978 119.56 207.835C119.284 208.485 118.065 207.972 117.362 208.205C115.368 208.888 113.57 204.754 111.617 204.82C110.182 202.331 107.577 200.408 108.136 196.903C108.148 196.764 107.256 195.845 106.759 195.39C106.289 194.957 105.767 194.612 105.273 194.29C104.426 193.684 103.467 192.693 102.758 192.662C101.774 192.614 100.961 193.261 100.133 193.747C100.01 193.833 100.081 194.503 100.207 194.883C101.054 197.455 100.28 198.319 99.0052 198.762C98.7968 198.817 98.7809 199.324 98.6536 199.612C99.067 199.702 99.4714 199.73 99.8937 199.883C100.162 199.969 100.433 200.186 100.708 200.37C100.581 200.657 100.52 201.016 100.329 201.198C99.1804 202.187 97.5592 200.645 96.1922 200.494C95.7184 200.43 95.3464 200.855 94.9205 201.07C95.3243 201.431 96.0238 201.9 96.0596 202.151C96.1488 202.946 95.9846 203.65 95.932 204.406C95.5975 204.081 95.2661 203.723 94.9285 203.433C94.5518 203.094 94.127 202.641 93.771 202.56C93.2581 202.445 92.8676 203.078 92.6923 201.453C92.4991 199.702 93.0661 196.426 90.1904 197.719C89.8431 197.867 88.8393 197.061 88.4179 196.408C87.1205 194.327 85.7107 192.695 84.0769 191.458C83.8447 191.29 83.5111 190.465 83.5388 190.154C83.6345 188.913 83.1406 188.257 82.2787 187.491C80.9978 186.37 79.6735 185.901 78.4243 183.933C77.4941 182.463 75.6533 182.247 74.9936 179.695C74.9276 179.457 74.349 178.937 74.213 178.994C73.1799 179.502 71.6605 178.449 71.418 177.252C71.008 175.16 70.1853 172.644 71.2142 171.039C71.65 170.386 71.6883 169.136 71.8108 168.084C71.8293 167.876 71.4288 167.314 71.1788 167.02C71.1125 166.948 70.759 167.166 70.7405 167.374C70.5959 169.002 69.758 168.293 68.7867 167.94C67.2664 167.388 67.5014 164.087 65.9014 164.269C63.9815 164.454 64.1096 161.866 63.3391 160.561C62.9479 159.895 62.859 158.932 62.6551 158.119C63.1249 158.719 63.5766 159.36 64.0646 159.919C64.17 160.04 64.5658 159.838 64.563 159.706C64.4738 158.911 65.4619 158.256 64.0149 157.206C63.632 156.936 63.0615 155.179 63.0766 155.173C64.847 154.218 65.1443 153.325 62.3252 151.526C61.2247 150.828 61.2885 148.801 62.3792 148.136C63.4549 147.478 63.4247 147.49 62.4652 145.533C62.1192 144.847 61.8309 144.003 61.7053 143.29C61.2956 141.031 61.4078 138.949 60.259 136.506C59.856 135.644 59.9503 133.437 60.3217 133.345C61.8856 133.079 61.6446 131.048 62.0636 129.602C62.27 128.914 63.4505 128.711 62.4806 127.524C61.577 126.41 60.549 123.914 59.4764 124.538C57.5458 125.661 57.0038 123.092 56.4694 121.42C56.0161 119.979 56.3613 117.565 55.9454 117.176C54.3633 115.683 55.9832 114.46 54.8352 113.315C55.1988 112.494 55.352 111.095 55.962 110.935C56.8981 110.703 58.1437 111.238 59.2599 111.596C59.3866 111.642 59.8251 112.922 59.749 113.288C59.6363 113.902 59.2101 114.284 58.9195 114.775C59.4567 114.779 60.0902 115.009 60.5161 114.794C61.3107 114.355 61.994 113.697 62.6772 113.039C63.0128 112.696 62.717 110.956 62.1814 109.951C61.2096 108.131 60.8958 106.265 61.7033 105.354C63.1307 103.679 65.0219 102.673 65.1573 99.3478C68.4019 97.6647 69.1311 93.0535 70.1134 88.7011C70.2532 88.1081 70.7759 87.7853 71.2441 87.5857C72.7303 86.8855 74.2495 86.3046 75.7477 85.6326C76.2039 85.4048 76.5879 85.0077 77.011 84.6607C76.6075 84.1326 75.8482 83.3562 75.8577 83.0855C75.9229 82.0243 75.7383 80.5028 76.9664 80.7461C77.6091 80.8721 78.2579 80.9289 78.9067 80.9857C78.5032 80.4576 78.0725 79.9078 77.7173 79.3258C77.6661 79.2477 77.9056 78.6789 78.1019 78.5952C79.1803 78.0688 80.4453 77.8963 80.3586 75.5997C80.3416 74.9736 80.8526 74.4557 81.2785 74.2408C82.2965 73.7402 83.2458 72.8688 84.7711 74.0188C84.7113 71.9107 86.1594 72.2935 87.0356 71.7533C87.3589 71.5488 87.7938 71.3968 88.201 71.5565C89.0034 71.8479 90.1666 72.9855 90.5595 72.6513C91.8592 71.5973 93.1351 70.32 93.9168 68.5533C94.4834 67.245 94.3086 67.0861 95.4435 68.8692C97.5357 72.1444 99.7278 71.6766 101.802 71.5593C102.372 71.5161 102.985 71.6551 103.588 71.7311C102.544 68.1093 103.994 68.9578 105.669 69.4108C106.875 69.7298 107.973 68.8287 108.949 68.1459C109.242 67.9543 108.927 66.5883 108.883 65.7736C109.561 66.4847 110.275 67.1136 110.932 67.9004C112.285 69.5241 112.769 68.4841 113.353 67.6351C114.322 66.2222 114.152 62.7274 116.998 64.7145C117.095 64.7733 117.376 64.2199 117.325 64.1417C115.758 61.0095 118.315 62.3196 118.456 61.0594C118.545 60.2214 116.914 57.3163 119.383 59.2976C119.476 59.3911 119.794 56.9554 120.321 56.0975C120.845 55.2742 122.006 55.6125 122.332 54.0736C122.536 53.0866 123.873 53.0833 124.682 52.6382C125.477 52.1995 125.529 51.9441 124.875 51.2894C124.408 50.6549 123.391 50.3216 123.379 50.4602C123.185 52.643 121.424 51.8604 120.526 52.6431C120.354 52.7832 119.995 52.5695 119.696 52.4968C119.685 51.9682 119.508 51.1768 119.705 50.9263C120.682 49.5763 121.777 48.3763 122.817 47.1327C123.579 46.2411 122.49 46.0721 122.219 45.5208C121.949 44.9694 121.896 43.9251 122.093 43.5078C122.59 42.3292 122.853 44.1174 123.211 44.3311C123.721 44.6473 124.366 44.9055 124.774 44.7317C126.683 44.018 128.547 43.1568 130.447 42.3803C131.066 42.1164 131.676 41.7895 132.34 41.6731C133.047 41.5719 133.988 43.4041 134.019 44.6909C134.036 45.3171 134.185 46.4203 134.415 46.6227C134.939 47.0992 135.941 48.572 135.957 46.5986C135.952 46.1674 136.453 45.9203 136.8 45.7723C138.504 45.0794 140 43.7749 142.295 44.9301C143.102 42.5526 144.417 41.3253 146.917 42.7932C146.875 39.0108 149.763 42.6466 150.942 41.4772C152.04 40.4093 153.455 39.2062 155.514 40.3952C155.638 40.4758 155.861 40.5807 155.879 40.5396C156.475 37.9187 158.166 37.5312 160.08 37.2486C161.994 36.9661 163.692 36.0089 165.348 35.0364C166.451 34.3997 167.271 33.1834 168.289 32.3491C169.226 31.6164 170.208 31.1979 170.958 29.9445C171.9 28.3431 173.932 27.8768 175.725 27.8126C176.745 27.7777 178.339 29.2983 179.535 30.5553C181.897 33.082 184.108 34.3733 186.288 33.7105C186.512 33.6486 186.579 33.22 186.73 32.9888C186.501 32.7864 186.164 32.3301 186.028 32.3881C184.415 33.0423 184.659 31.6049 184.938 30.5857C185.093 29.9862 185.55 29.5917 185.991 29.3703C187.329 28.6998 188.706 28.0793 190.129 27.6063C191.086 27.2982 191.386 26.7037 190.637 24.9893C190.565 24.8201 191.052 24.2458 191.372 24.076C191.523 24.0116 191.954 24.3946 192.174 24.7009C192.406 25.0355 192.52 25.5537 192.745 25.9575C193.257 26.9062 193.814 27.8356 194.355 28.7714C194.688 28.1294 195.13 27.5745 195.331 26.7889C195.616 25.7004 195.017 24.9225 194.14 24.1629C192.964 23.1639 192.574 21.9969 193.707 21.514C194.401 21.2179 195.247 21.191 196.067 21.2744C196.426 21.3213 196.896 21.9211 197.342 22.2977C197.094 22.6368 196.822 22.9195 196.586 23.2868C196.317 23.7016 196.059 24.1447 195.805 24.5531C196.27 24.8885 196.725 25.328 197.183 25.5659C197.572 25.7668 202.431 24.062 202.83 23.9921C203.696 23.8895 204.764 24.301 205.48 23.9292C206.241 23.538 206.6 22.2852 207.337 21.8375C207.645 21.6395 208.528 22.4965 209.088 23.0577C209.221 23.2012 209.129 24.0738 209.125 24.6089C209.122 24.8103 209.103 25.0182 209.046 25.1761C208.691 26.2275 208.254 27.2136 208.02 28.3802C207.965 28.6703 211.996 29.5855 211.994 28.7862C211.964 25.3655 214.145 27.8027 215.286 27.7163C215.929 27.6755 217.518 28.5983 216.962 30.602C218.778 31.4282 219.75 35.0476 221.642 35.3411L221.65 35.3425C222.432 35.4725 222.773 35.5292 222.545 36.6229C222.192 38.3068 222.188 40.8088 221.266 41.3683C220.194 41.9922 219.906 44.4151 217.862 43.2198C217.129 42.7987 216.183 43.4686 215.66 44.1251C215.118 44.8226 213.46 45.6629 216.079 47.5798C216.312 47.7475 216.667 48.4963 216.645 48.7388C216.344 51.9675 217.236 52.7206 219.082 51.7338C219.157 51.7016 219.56 52.3964 219.792 52.7309C217.981 54.9701 220.988 57.5882 221.531 59.9906C221.561 60.1445 222.499 60.3779 223.015 60.6248C224.357 61.2194 225.215 62.1868 225.052 64.19C224.987 64.9176 225.001 65.7452 225.193 66.5301C225.319 67.0765 225.822 67.6288 226.153 68.1543C227.292 65.9688 231.209 73.0661 231.409 67.7141C232.596 68.9081 233.472 68.5348 234.236 67.9421C234.581 67.6619 234.688 66.9496 234.906 66.4566C234.403 66.0711 233.812 65.356 233.447 65.3784C231.953 65.5154 230.417 65.3034 228.768 63.906C228.403 63.5948 228.079 62.8331 227.88 62.2842C227.799 62.0521 228.171 61.4601 228.211 61.51C230.034 63.2331 229.934 59.7753 231.454 60.6609C231.743 60.8376 232.039 60.6113 232.335 60.5518C232.022 59.9852 231.731 59.176 231.402 58.9494C230.866 58.6114 230.31 58.6482 229.755 58.5182C230.124 58.1275 230.442 57.6587 230.85 57.3181C231.176 57.079 231.59 57.0027 232.149 56.7645Z" fill="#FFE68E"/>
<path d="M224.335 98.2291H93.9487C88.619 98.2291 86.593 91.2493 91.0886 88.3821L105.043 79.4868L107.173 78.1288L156.282 46.8205C158.027 45.7057 160.254 45.7057 161.999 46.8205L184.9 61.4206L221.614 84.8269L227.192 88.3821C231.691 91.2493 229.665 98.2291 224.335 98.2291Z" fill="#F9F3F1"/>
<path d="M121.658 108.337H198.262V175.644H121.658V108.337Z" fill="#CDBFBA"/>
<path d="M141.355 175.051V142.393C141.355 137.665 144.295 133.836 147.918 133.836H170.548C174.171 133.836 177.11 137.665 177.11 142.393V175.051H141.355Z" fill="#F9F3F1"/>
<path d="M156.79 133.836C153.167 133.836 150.227 137.664 150.227 142.394V175.051H141.354V142.394C141.354 137.664 144.294 133.836 147.917 133.836H156.79Z" fill="#E1D3CE"/>
<path d="M222.729 98.1475V106.759C222.729 107.788 221.894 108.625 220.868 108.625H213.385H194.619H127H108.235H98.4562C97.4266 108.625 96.5955 107.788 96.5955 106.759V98.1475H222.729Z" fill="#F9F3F1"/>
<path d="M223.243 189.461H97.1471C94.5127 189.461 92.377 187.32 92.377 184.679V179.24C92.377 176.599 94.5127 174.458 97.1471 174.458H223.243C225.877 174.458 228.013 176.599 228.013 179.24V184.679C228.013 187.32 225.877 189.461 223.243 189.461Z" fill="#F9F3F1"/>
<path d="M160.122 89.6845C167.643 89.6845 173.741 83.5718 173.741 76.0314C173.741 68.4911 167.643 62.3784 160.122 62.3784C152.6 62.3784 146.503 68.4911 146.503 76.0314C146.503 83.5718 152.6 89.6845 160.122 89.6845Z" fill="#FAF8F8"/>
<path d="M103.312 108.625H122.078V166.156H103.312V108.625Z" fill="#F9F3F1"/>
<path d="M197.786 108.625H216.553V165.86H197.786V108.625Z" fill="#F9F3F1"/>
<path d="M98.5884 171.099V169.219C98.5884 167.364 100.089 165.86 101.939 165.86H122.152C124.003 165.86 125.503 167.364 125.503 169.219V171.099C125.503 172.954 124.003 174.459 122.152 174.459H101.939C100.089 174.459 98.5884 172.954 98.5884 171.099Z" fill="#F9F3F1"/>
<path d="M193.234 171.099V169.219C193.234 167.364 194.735 165.86 196.585 165.86H216.798C218.649 165.86 220.149 167.364 220.149 169.219V171.099C220.149 172.954 218.649 174.459 216.798 174.459H196.585C194.734 174.459 193.234 172.954 193.234 171.099Z" fill="#F9F3F1"/>
<path d="M210.576 85.4996C222.07 85.4996 231.388 76.1065 231.388 64.5196C231.388 52.9326 222.07 43.5396 210.576 43.5396C199.081 43.5396 189.763 52.9326 189.763 64.5196C189.763 76.1065 199.081 85.4996 210.576 85.4996Z" fill="#FFB600"/>
<path d="M210.673 77.0477C217.508 77.0477 223.048 71.4624 223.048 64.5724C223.048 57.6825 217.508 52.0972 210.673 52.0972C203.838 52.0972 198.297 57.6825 198.297 64.5724C198.297 71.4624 203.838 77.0477 210.673 77.0477Z" fill="#FFB600"/>
<path d="M106.019 189.462H97.1457C94.5133 189.462 92.3779 187.321 92.3779 184.679V179.241C92.3779 176.599 94.5133 174.458 97.1457 174.458H106.019C103.386 174.458 101.251 176.599 101.251 179.241V184.679C101.251 187.321 103.386 189.462 106.019 189.462Z" fill="#E1D3CE"/>
<path d="M110.813 174.459H101.94C100.089 174.459 98.589 172.955 98.589 171.099V169.219C98.589 167.363 100.089 165.86 101.94 165.86H110.813C108.962 165.86 107.462 167.363 107.462 169.219V171.099C107.462 172.955 108.962 174.459 110.813 174.459Z" fill="#E1D3CE"/>
<path d="M103.312 108.625H112.185V166.156H103.312V108.625Z" fill="#E1D3CE"/>
<path d="M107.329 108.625H98.4562C97.4269 108.625 96.5958 107.788 96.5958 106.76V98.1489H105.469V106.76C105.469 107.788 106.3 108.625 107.329 108.625Z" fill="#E1D3CE"/>
<path d="M164.557 88.9426C163.167 89.4229 161.673 89.6839 160.121 89.6839C152.599 89.6839 146.503 83.5728 146.503 76.0326C146.503 68.4924 152.599 62.3784 160.121 62.3784C161.673 62.3784 163.167 62.6393 164.557 63.1197C159.216 64.964 155.377 70.0491 155.377 76.0326C155.377 82.0162 159.216 87.0983 164.557 88.9426Z" fill="#F3EAE6"/>
<path d="M102.822 98.2289H93.9487C88.619 98.2289 86.593 91.2491 91.0886 88.3819L100.849 82.1611L99.9617 83.0329C95.4657 87.4568 97.492 98.2289 102.822 98.2289Z" fill="#E1D3CE"/>
<path d="M214.548 85.1172C213.258 85.3695 211.923 85.4997 210.559 85.4997C199.064 85.4917 189.755 76.0903 189.763 64.5034C189.771 52.9164 199.098 43.5311 210.593 43.5391C211.944 43.5391 213.266 43.6719 214.546 43.9242C204.961 45.794 197.718 54.2949 197.71 64.5037C197.703 74.7252 204.948 83.2474 214.548 85.1172Z" fill="#FFB600"/>
<path d="M197.787 108.625H206.66V165.86H197.787V108.625Z" fill="#E1D3CE"/>
<path d="M205.459 174.459H196.586C194.735 174.459 193.235 172.955 193.235 171.099V169.219C193.235 167.363 194.735 165.86 196.586 165.86H205.459C203.608 165.86 202.108 167.363 202.108 169.219V171.099C202.108 172.955 203.608 174.459 205.459 174.459Z" fill="#E1D3CE"/>
<path d="M228.437 86.6869L224.125 83.9379C230.099 79.6338 234 72.6134 234 64.6928C234 51.6286 223.398 41 210.366 41C198.812 41 189.175 49.3565 187.136 60.3558L163.025 44.9827C160.566 43.4157 157.387 43.4157 154.928 44.983L89.5154 86.6869C86.6124 88.5374 85.3575 91.8725 86.3187 95.1839C87.2762 98.4825 90.1022 100.617 93.5243 100.633V107.045C93.5243 109.303 95.3565 111.14 97.6088 111.14H100.259V163.122C97.796 163.469 95.8934 165.587 95.8934 168.147V172.574C92.4772 173.031 89.8331 175.969 89.8331 179.517V184.994C89.8331 188.857 92.9685 192 96.8221 192H199.785C201.01 192 202.003 191.004 202.003 189.776C202.003 188.548 201.01 187.552 199.785 187.552H96.8221C95.4145 187.552 94.2696 186.405 94.2696 184.994V179.517C94.2696 178.106 95.4145 176.958 96.8221 176.958H223.275C224.682 176.958 225.827 178.106 225.827 179.517V184.994C225.827 186.405 224.682 187.552 223.275 187.552H209.841C208.616 187.552 207.623 188.548 207.623 189.776C207.623 191.004 208.616 192 209.841 192H223.275C227.128 192 230.264 188.857 230.264 184.994V179.517C230.264 175.654 227.128 172.511 223.275 172.511H222.522V168.147C222.522 165.524 220.526 163.359 217.975 163.094V111.14H220.344C222.596 111.14 224.429 109.303 224.429 107.045V100.633C227.851 100.617 230.677 98.4825 231.634 95.1839C232.595 91.8725 231.34 88.5374 228.437 86.6869ZM210.366 45.4476C220.951 45.4476 229.563 54.081 229.563 64.6928C229.563 75.3048 220.951 83.9379 210.366 83.9379C199.781 83.9379 191.169 75.3045 191.169 64.6928C191.169 54.081 199.781 45.4476 210.366 45.4476ZM118.893 111.14V163.066H104.696V111.14H118.893ZM123.362 172.511H100.33V168.147C100.33 167.798 100.617 167.514 100.97 167.514H122.72C123.074 167.514 123.362 167.798 123.362 168.147V172.511ZM174.915 172.511H143.502V142.373C143.502 138.982 145.499 136.118 147.863 136.118H170.553C172.917 136.118 174.915 138.983 174.915 142.373V172.511ZM218.086 172.511H195.054V168.147C195.054 167.798 195.341 167.514 195.693 167.514H217.447C217.799 167.514 218.086 167.798 218.086 168.147V172.511ZM213.538 163.066H199.342V111.14H213.538V163.066ZM227.374 93.9415C227.059 95.027 226.11 96.187 224.39 96.187H141.075C139.85 96.187 138.857 97.1826 138.857 98.4108C138.857 99.6389 139.85 100.635 141.075 100.635H219.992V106.692H184.997C183.771 106.692 182.779 107.688 182.779 108.916C182.779 110.144 183.771 111.14 184.997 111.14H194.905V163.134C192.48 163.515 190.618 165.615 190.618 168.147V172.511H179.351V142.373C179.351 136.471 175.404 131.67 170.553 131.67H147.863C143.012 131.67 139.065 136.471 139.065 142.373V172.511H127.799V168.147C127.799 165.552 125.843 163.409 123.329 163.106V111.14H174.941C176.166 111.14 177.159 110.144 177.159 108.916C177.159 107.688 176.166 106.692 174.941 106.692H97.9611V100.634H131.019C132.244 100.634 133.237 99.6386 133.237 98.4105C133.237 97.1823 132.244 96.1867 131.019 96.1867H93.563C91.8434 96.1867 90.894 95.0267 90.5787 93.9412C90.2637 92.8554 90.4441 91.3655 91.8961 90.4398L157.308 48.7365C158.322 48.0904 159.632 48.0907 160.644 48.7362L186.75 65.3804C187.115 78.127 197.565 88.3855 210.366 88.3855C213.704 88.3855 216.88 87.6843 219.762 86.4274L226.056 90.4403C227.509 91.3655 227.689 92.8557 227.374 93.9415Z" fill="black"/>
<path d="M160.048 60.166C151.296 60.166 144.175 67.3044 144.175 76.0787C144.175 84.853 151.296 91.9914 160.048 91.9914C168.801 91.9914 175.922 84.853 175.922 76.0787C175.922 67.3044 168.801 60.166 160.048 60.166ZM160.048 87.5441C153.742 87.5441 148.612 82.4009 148.612 76.079C148.612 69.7572 153.742 64.6139 160.048 64.6139C166.354 64.6139 171.485 69.7572 171.485 76.079C171.485 82.4009 166.354 87.5441 160.048 87.5441Z" fill="black"/>
<path d="M210.366 79.2805C218.39 79.2805 224.917 72.7366 224.917 64.6926C224.917 56.6489 218.39 50.105 210.366 50.105C202.342 50.105 195.815 56.6489 195.815 64.6926C195.815 72.7366 202.342 79.2805 210.366 79.2805ZM210.366 54.5529C215.943 54.5529 220.481 59.1016 220.481 64.6929C220.481 70.2841 215.943 74.8332 210.366 74.8332C204.789 74.8332 200.251 70.2844 200.251 64.6929C200.251 59.1016 204.789 54.5529 210.366 54.5529Z" fill="black"/>
</svg>
